<?xml version="1.0" encoding="UTF-8"?> <svg xmlns="http://www.w3.org/2000/svg" width="120" height="40" viewBox="0 0 120 40" fill="none"><rect x="0.5" y="0.5" width="119" height="39" rx="6.5" fill="white"></rect><rect x="0.5" y="0.5" width="119" height="39" rx="6.5" stroke="black"></rect><path d="M105.641 33.197C105.508 33.197 105.078 33.1814 104.953 33.1579V31.7891C105.078 31.8203 105.36 31.8203 105.5 31.8203C106.29 31.8203 106.705 31.4918 106.963 30.6471C106.963 30.6314 107.112 30.1465 107.112 30.1386L104.139 21.9022H105.97L108.058 28.5977H108.082L110.17 21.9022H111.953L108.864 30.561C108.16 32.5556 107.354 33.197 105.641 33.197Z" fill="black"></path><path d="M99.5715 30.1309V21.9023H101.183V23.3024H101.222C101.496 22.3403 102.231 21.7693 103.201 21.7693C103.443 21.7693 103.655 21.8084 103.78 21.8319V23.4041C103.647 23.3493 103.349 23.3102 103.021 23.3102C101.934 23.3102 101.261 24.0376 101.261 25.2031V30.1309H99.5715Z" fill="black"></path><path d="M94.55 23.1147C93.3689 23.1147 92.5398 24.0142 92.4537 25.2579H96.568C96.5289 23.9985 95.7311 23.1147 94.55 23.1147ZM96.5602 27.7139H98.1637C97.929 29.2157 96.5054 30.2873 94.6204 30.2873C92.2034 30.2873 90.7407 28.6525 90.7407 26.0557C90.7407 23.4745 92.2269 21.7537 94.55 21.7537C96.834 21.7537 98.2575 23.365 98.2575 25.8601V26.439H92.4459V26.5406C92.4459 27.972 93.3063 28.9185 94.6595 28.9185C95.6216 28.9185 96.3334 28.4335 96.5602 27.7139Z" fill="black"></path><path d="M87.6824 30.1308V18.8439H89.3719V30.1308H87.6824Z" fill="black"></path><path d="M84.1938 30.1308V18.8439H85.8834V30.1308H84.1938Z" fill="black"></path><path d="M78.7028 28.9341C79.8839 28.9341 80.8069 28.1207 80.8069 27.0491V26.3999L78.781 26.525C77.772 26.5954 77.201 27.0412 77.201 27.7452C77.201 28.4648 77.7955 28.9341 78.7028 28.9341ZM78.2335 30.2717C76.6222 30.2717 75.4958 29.2705 75.4958 27.7921C75.4958 26.3529 76.5987 25.469 78.5542 25.3595L80.8069 25.2266V24.593C80.8069 23.6778 80.189 23.1303 79.1565 23.1303C78.1787 23.1303 77.5686 23.5996 77.42 24.3349H75.8244C75.9182 22.8487 77.1854 21.7537 79.2191 21.7537C81.2136 21.7537 82.4886 22.8096 82.4886 24.46V30.1309H80.8695V28.7777H80.8304C80.3532 29.6929 79.3129 30.2717 78.2335 30.2717Z" fill="black"></path><path d="M74.3461 25.4377C74.3461 28.496 72.5393 30.3185 69.4809 30.3185C66.2505 30.3185 64.2168 28.058 64.2168 24.4365C64.2168 20.8775 66.2427 18.6561 69.4574 18.6561C71.9683 18.6561 73.869 20.1423 74.2601 22.395H72.461C72.0387 20.9949 70.9358 20.1892 69.4653 20.1892C67.3064 20.1892 66.008 21.7692 66.008 24.4208C66.008 27.1194 67.3455 28.7854 69.4966 28.7854C71.3269 28.7854 72.594 27.6122 72.6175 25.8992V25.7036H69.6999V24.2879H74.3461V25.4377Z" fill="black"></path><path d="M59.6489 21.7693C61.7374 21.7693 63.114 23.4119 63.114 26.0166C63.114 28.6212 61.7452 30.2717 59.6802 30.2717C58.4991 30.2717 57.5605 29.6928 57.0912 28.7777H57.0521V32.8529H55.3625V21.9023H56.9973V23.318H57.0286C57.5136 22.3716 58.46 21.7693 59.6489 21.7693ZM59.2031 28.8403C60.5406 28.8403 61.3776 27.7452 61.3776 26.0166C61.3776 24.2957 60.5406 23.1929 59.2031 23.1929C57.9125 23.1929 57.0442 24.3192 57.0442 26.0166C57.0442 27.7295 57.9047 28.8403 59.2031 28.8403Z" fill="black"></path><path d="M50.5911 21.7693C52.6795 21.7693 54.0562 23.4119 54.0562 26.0166C54.0562 28.6212 52.6873 30.2717 50.6224 30.2717C49.4413 30.2717 48.5026 29.6928 48.0333 28.7777H47.9942V32.8529H46.3047V21.9023H47.9395V23.318H47.9707C48.4557 22.3716 49.4021 21.7693 50.5911 21.7693ZM50.1452 28.8403C51.4828 28.8403 52.3197 27.7452 52.3197 26.0166C52.3197 24.2957 51.4828 23.1929 50.1452 23.1929C48.8546 23.1929 47.9864 24.3192 47.9864 26.0166C47.9864 27.7295 48.8468 28.8403 50.1452 28.8403Z" fill="black"></path><path d="M43.4107 30.1308L42.3782 27.0803H38.0762L37.0437 30.1308H35.2212L39.2964 18.8439H41.1893L45.2645 30.1308H43.4107ZM40.2037 20.7211L38.522 25.6724H41.9324L40.2507 20.7211H40.2037Z" fill="black"></path><path d="M36.1577 11.1495C36.1138 11.8702 36.0259 12.358 35.7227 12.714V12.7491H38.623V8.10852H36.3511L36.1577 11.1495ZM35.0283 13.6017V14.8541H34.123V12.7491H34.5845C35.0371 12.4855 35.1953 11.9449 35.2437 11.1056L35.4766 7.26038H39.6074V12.7491H40.3984V14.8541H39.4976V13.6017H35.0283ZM43.1362 13.6896C41.8135 13.6896 40.9434 12.7799 40.9434 11.2902C40.9434 9.80481 41.8179 8.89514 43.1362 8.89514C44.4546 8.89514 45.3291 9.80481 45.3291 11.2902C45.3291 12.7799 44.459 13.6896 43.1362 13.6896ZM43.1362 12.9073C43.8833 12.9073 44.3623 12.3185 44.3623 11.2902C44.3623 10.2662 43.8789 9.67737 43.1362 9.67737C42.3936 9.67737 41.9102 10.2662 41.9102 11.2902C41.9102 12.3185 42.3936 12.9073 43.1362 12.9073ZM50.0928 10.4596H49.1787C49.0557 10.0333 48.7041 9.68616 48.1152 9.68616C47.3813 9.68616 46.9023 10.3146 46.9023 11.2902C46.9023 12.2921 47.3857 12.8942 48.124 12.8942C48.6865 12.8942 49.0557 12.6129 49.1875 12.1295H50.1016C49.9653 13.0568 49.2051 13.6896 48.1152 13.6896C46.7925 13.6896 45.9399 12.7711 45.9399 11.2902C45.9399 9.83997 46.7925 8.89514 48.1064 8.89514C49.249 8.89514 49.9609 9.60706 50.0928 10.4596ZM54.2852 8.97864V9.7301H52.835V13.6017H51.8901V9.7301H50.4399V8.97864H54.2852ZM55.4409 15.3243C55.3662 15.3243 55.1245 15.3156 55.0542 15.3024V14.5333C55.1245 14.5509 55.2827 14.5509 55.3618 14.5509C55.8057 14.5509 56.0386 14.3663 56.1836 13.8917C56.1836 13.8829 56.2671 13.6105 56.2671 13.6061L54.5972 8.97864H55.6255L56.7988 12.7404H56.812L57.9854 8.97864H58.9873L57.2515 13.8434C56.856 14.964 56.4033 15.3243 55.4409 15.3243ZM62.6128 13.6017V9.7301H60.5649V13.6017H59.6201V8.97864H63.562V13.6017H62.6128ZM67.6226 13.6017V11.589H65.5308V13.6017H64.5859V8.97864H65.5308V10.8419H67.6226V8.97864H68.5674V13.6017H67.6226ZM71.5864 13.6896C70.2637 13.6896 69.3936 12.7799 69.3936 11.2902C69.3936 9.80481 70.2681 8.89514 71.5864 8.89514C72.9048 8.89514 73.7793 9.80481 73.7793 11.2902C73.7793 12.7799 72.9092 13.6896 71.5864 13.6896ZM71.5864 12.9073C72.3335 12.9073 72.8125 12.3185 72.8125 11.2902C72.8125 10.2662 72.3291 9.67737 71.5864 9.67737C70.8438 9.67737 70.3604 10.2662 70.3604 11.2902C70.3604 12.3185 70.8438 12.9073 71.5864 12.9073ZM78.332 9.66858H77.3608V10.8815H78.2397C78.7759 10.8815 79.0439 10.6749 79.0439 10.2662C79.0439 9.88391 78.7935 9.66858 78.332 9.66858ZM78.3013 11.545H77.3608V12.9117H78.4067C78.9429 12.9117 79.2329 12.6744 79.2329 12.2306C79.2329 11.7736 78.9253 11.545 78.3013 11.545ZM76.4248 13.6017V8.97864H78.5254C79.4263 8.97864 79.9712 9.42688 79.9712 10.1564C79.9712 10.6354 79.6284 11.0704 79.1846 11.1539V11.1891C79.7822 11.2682 80.1777 11.6901 80.1777 12.2701C80.1777 13.0831 79.5537 13.6017 78.5518 13.6017H76.4248Z" fill="black"></path><path fill-rule="evenodd" clip-rule="evenodd" d="M13.3903 9.75879C9.03902 9.75879 7.44751 11.35 7.44751 15.7004V24.9972C7.44751 29.3476 9.03902 30.9388 13.3903 30.9388H22.6819C27.033 30.9388 28.6275 29.3476 28.6275 24.9972V15.7004C28.6275 11.35 27.036 9.75879 22.6848 9.75879H13.3903Z" fill="black"></path><path fill-rule="evenodd" clip-rule="evenodd" d="M16.6861 22.0427H17.5364L17.1098 21.0506L16.6861 22.0427ZM16.4767 22.5427L16.2244 23.1199H15.6501L16.8715 20.3489H17.3678L18.5843 23.1199H17.9946L17.7456 22.5427H16.4767ZM25.719 23.1179H26.2741V20.3488H25.719V23.1179ZM23.5096 21.9283H24.5328V21.4234H23.5096V20.8559H24.995V20.3508H22.9546V23.1198H25.0485V22.6147H23.5096V21.9283ZM21.3039 22.2555L20.6746 20.3488H20.2153L19.5859 22.2555L18.9735 20.3503H18.3746L19.3412 23.1215H19.8067L20.4371 21.3012L21.0675 23.1215H21.5371L22.5011 20.3503H21.9178L21.3039 22.2555ZM14.8027 21.936C14.8027 22.3867 14.5788 22.6276 14.1723 22.6276C13.7636 22.6276 13.5385 22.3798 13.5385 21.9167V20.3506H12.9759V21.936C12.9759 22.7158 13.4093 23.163 14.1646 23.163C14.9274 23.163 15.3648 22.7073 15.3648 21.9128V20.3489H14.8027V21.936ZM11.6336 20.3489H12.1959V23.1216H11.6336V21.9956H10.3634V23.1216H9.80078V20.3489H10.3634V21.4673H11.6336V20.3489Z" fill="white"></path><path fill-rule="evenodd" clip-rule="evenodd" d="M18.0376 16.8188C16.0909 16.8188 14.5076 15.2353 14.5076 13.2888H15.0062C15.0062 14.9602 16.3662 16.32 18.0376 16.32C19.7089 16.32 21.0689 14.9602 21.0689 13.2888H21.5676C21.5676 15.2353 19.984 16.8188 18.0376 16.8188Z" fill="white"></path></svg> 