<?xml version="1.0" encoding="UTF-8"?> <svg xmlns="http://www.w3.org/2000/svg" width="250" height="250" viewBox="0 0 250 250" fill="none"><path d="M203 175L203.537 183.956C203.779 187.997 207.003 191.221 211.044 191.463L220 192L211.044 192.537C207.003 192.779 203.779 196.003 203.537 200.044L203 209L202.463 200.044C202.221 196.003 198.997 192.779 194.956 192.537L186 192L194.956 191.463C198.997 191.221 202.221 187.997 202.463 183.956L203 175Z" fill="#FDF6F0"></path><path d="M75.5 108L75.805 112.541C75.9727 115.039 77.9613 117.027 80.4587 117.195L85 117.5L80.4587 117.805C77.9613 117.973 75.9727 119.961 75.805 122.459L75.5 127L75.195 122.459C75.0273 119.961 73.0387 117.973 70.5413 117.805L66 117.5L70.5413 117.195C73.0387 117.027 75.0273 115.039 75.195 112.541L75.5 108Z" fill="#FDF6F0"></path><circle cx="124.5" cy="15.5" r="13.5" stroke="#FDF6F0"></circle><circle cx="124.5" cy="234.5" r="13.5" stroke="#FDF6F0"></circle><circle cx="124.5" cy="193.5" r="54.5" stroke="#FDF6F0"></circle><path d="M68.1787 109.5C60.4999 98.4317 56 84.9914 56 70.5C56 32.6685 86.6685 2 124.5 2C162.332 2 193 32.6685 193 70.5C193 108.332 162.332 139 124.5 139C109.124 139 94.9314 133.934 83.5 125.38" stroke="#FDF6F0"></path><circle cx="124.5" cy="88.5" r="86.5" stroke="#FDF6F0"></circle><circle cx="125" cy="125" r="123" stroke="#FDF6F0"></circle></svg> 