<?xml version="1.0" encoding="UTF-8"?> <svg xmlns="http://www.w3.org/2000/svg" width="305" height="291" viewBox="0 0 305 291" fill="none"><path d="M279 268C279 238.059 273.084 208.41 261.59 180.748C250.095 153.086 233.248 127.951 212.009 106.78C190.771 85.6079 165.557 68.8135 137.807 57.3555C110.057 45.8974 80.3153 40 50.2792 40" stroke="#E0D6CE" stroke-dasharray="6 6"></path><ellipse cx="40" cy="39.5" rx="39.5" ry="40" transform="rotate(90 40 39.5)" fill="#FDF6F0"></ellipse><ellipse cx="198" cy="94.6667" rx="15.6667" ry="16" transform="rotate(90 198 94.6667)" fill="#FDF6F0"></ellipse><path d="M72 40L54.5915 40.7462C46.8197 41.0794 40.5922 47.2985 40.2486 55.0699L39.5 72L38.7514 55.0699C38.4078 47.2985 32.1803 41.0794 24.4085 40.7462L7 40L24.4085 39.2538C32.1803 38.9206 38.4078 32.7015 38.7514 24.9301L39.5 8L40.2486 24.9301C40.5922 32.7015 46.8197 38.9206 54.5915 39.2538L72 40Z" fill="#E0D6CE"></path><circle cx="198" cy="95" r="7" transform="rotate(90 198 95)" fill="#E0D6CE"></circle><ellipse cx="279" cy="264.5" rx="23.5" ry="24" transform="rotate(90 279 264.5)" fill="#FDF6F0"></ellipse><path d="M294.791 273.282C294.979 273.497 294.787 273.829 294.507 273.774L284.756 271.851C284.579 271.816 284.411 271.945 284.399 272.125L283.732 282.041C283.713 282.327 283.343 282.426 283.184 282.188L277.648 273.934C277.547 273.784 277.338 273.756 277.202 273.875L269.718 280.416C269.503 280.604 269.171 280.412 269.227 280.132L271.149 270.381C271.184 270.204 271.055 270.036 270.875 270.024L260.959 269.357C260.674 269.338 260.574 268.968 260.812 268.808L269.066 263.273C269.216 263.172 269.244 262.963 269.125 262.826L262.585 255.343C262.396 255.128 262.588 254.796 262.869 254.852L272.619 256.774C272.797 256.809 272.964 256.68 272.977 256.5L273.643 246.584C273.663 246.298 274.032 246.199 274.192 246.437L279.727 254.691C279.828 254.841 280.038 254.869 280.174 254.75L287.657 248.21C287.872 248.021 288.204 248.213 288.149 248.494L286.226 258.244C286.191 258.422 286.32 258.589 286.501 258.601L296.416 259.268C296.702 259.287 296.801 259.657 296.563 259.817L288.309 265.352C288.159 265.453 288.132 265.663 288.251 265.799L294.791 273.282Z" fill="#E0D6CE"></path></svg> 