<?xml version="1.0" encoding="UTF-8"?> <svg xmlns="http://www.w3.org/2000/svg" width="262" height="224" viewBox="0 0 262 224" fill="none"><path d="M260.111 18.2793L255.111 15.3925L255.111 21.166L260.111 18.2793ZM124.337 18.7793L127.423 18.7793V17.7793L124.337 17.7793V18.7793ZM133.594 18.7793L139.766 18.7793V17.7793L133.594 17.7793V18.7793ZM145.937 18.7793L152.109 18.7793L152.109 17.7793L145.937 17.7793L145.937 18.7793ZM158.28 18.7793L164.452 18.7793V17.7793L158.28 17.7793V18.7793ZM170.624 18.7793L176.795 18.7793V17.7793L170.624 17.7793V18.7793ZM182.967 18.7793L189.138 18.7793L189.138 17.7793L182.967 17.7793V18.7793ZM195.31 18.7793L201.481 18.7793L201.481 17.7793L195.31 17.7793V18.7793ZM207.653 18.7793L213.824 18.7793V17.7793L207.653 17.7793V18.7793ZM219.996 18.7793L226.167 18.7793L226.167 17.7793L219.996 17.7793V18.7793ZM232.339 18.7793L238.511 18.7793L238.511 17.7793L232.339 17.7793V18.7793ZM244.682 18.7793L250.854 18.7793V17.7793L244.682 17.7793V18.7793Z" fill="#91BBD8"></path><path d="M20.5371 217.771V122.775" stroke="#91BBD8" stroke-dasharray="6 6"></path><path d="M126.191 18.0488C112.316 18.0488 98.5773 20.7903 85.7588 26.1167C72.9403 31.443 61.2931 39.25 51.4823 49.0919C41.6715 58.9337 33.8891 70.6177 28.5795 83.4767C23.2699 96.3357 20.5371 110.118 20.5371 124.036" stroke="#91BBD8" stroke-dasharray="6 6"></path><ellipse cx="20.304" cy="128.799" rx="18.304" ry="18.5357" fill="#CDE8FB"></ellipse><ellipse cx="45.8692" cy="55.5823" rx="7.25982" ry="7.41428" fill="#CDE8FB"></ellipse><path d="M20.5356 113.971L20.5654 114.667C20.8986 122.439 27.1177 128.666 34.8891 129.01L35.3642 129.031L34.8891 129.052C27.1177 129.396 20.8986 135.623 20.5654 143.395L20.5356 144.091L20.5058 143.395C20.1726 135.623 13.9535 129.396 6.1821 129.052L5.70703 129.031L6.1821 129.01C13.9535 128.666 20.1726 122.439 20.5058 114.667L20.5356 113.971Z" fill="#91BBD8"></path><circle cx="46.023" cy="55.5836" r="3.24375" fill="#91BBD8"></circle><ellipse cx="124.566" cy="18.0472" rx="10.8897" ry="11.1214" fill="#CDE8FB"></ellipse><path d="M128.282 11.0413C128.498 10.853 128.829 11.0445 128.774 11.3252L128.01 15.2014C127.975 15.3788 128.103 15.5466 128.284 15.5587L132.226 15.8238C132.511 15.843 132.61 16.2129 132.373 16.3723L129.091 18.5728C128.941 18.6735 128.914 18.8832 129.033 19.0193L131.633 21.9941C131.821 22.2095 131.629 22.5412 131.349 22.4858L127.473 21.7216C127.295 21.6867 127.127 21.8154 127.115 21.9959L126.85 25.9377C126.831 26.2232 126.461 26.3223 126.302 26.0847L124.101 22.8035C124 22.6533 123.791 22.6257 123.655 22.7447L120.68 25.3446C120.464 25.5329 120.133 25.3414 120.188 25.0607L120.952 21.1845C120.987 21.0071 120.858 20.8393 120.678 20.8271L116.736 20.5621C116.451 20.5429 116.352 20.173 116.589 20.0136L119.87 17.8131C120.021 17.7124 120.048 17.5027 119.929 17.3665L117.329 14.3918C117.141 14.1763 117.333 13.8447 117.613 13.9L121.489 14.6642C121.667 14.6992 121.835 14.5704 121.847 14.39L122.112 10.4481C122.131 10.1626 122.501 10.0635 122.66 10.3012L124.861 13.5824C124.961 13.7326 125.171 13.7602 125.307 13.6412L128.282 11.0413Z" fill="#91BBD8"></path><circle cx="124.105" cy="62.7662" r="10.4263" stroke="#91BBD8"></circle><circle cx="124.335" cy="187.187" r="5.09732" stroke="#91BBD8"></circle><circle cx="124.106" cy="127.64" r="45.6442" stroke="#91BBD8"></circle><path d="M177.623 124.629H198.939" stroke="#91BBD8"></path><path d="M49.7275 124.629H162.795" stroke="#91BBD8"></path><path d="M71.0459 130.652H49.7298" stroke="#91BBD8"></path><path d="M198.941 130.652H85.8736" stroke="#91BBD8"></path></svg> 