<?xml version="1.0" encoding="UTF-8"?> <svg xmlns="http://www.w3.org/2000/svg" width="622" height="42" viewBox="0 0 622 42" fill="none"><g clip-path="url(#clip0_111_1191)"><path d="M20.978 2.83176C21.0705 2.56098 21.4534 2.56098 21.5459 2.83176L24.7563 12.2372C24.8148 12.4083 25.0102 12.4893 25.1725 12.4096L34.0933 8.02908C34.3501 7.90296 34.6209 8.17376 34.4948 8.43059L30.1143 17.3514C30.0346 17.5137 30.1156 17.7091 30.2867 17.7675L39.6921 20.978C39.9629 21.0705 39.9629 21.4534 39.6921 21.5459L30.2867 24.7563C30.1156 24.8148 30.0346 25.0102 30.1143 25.1725L34.4948 34.0933C34.6209 34.3501 34.3501 34.6209 34.0933 34.4948L25.1725 30.1143C25.0102 30.0346 24.8148 30.1156 24.7563 30.2867L21.5459 39.6921C21.4534 39.9629 21.0705 39.9629 20.978 39.6921L17.7675 30.2867C17.7091 30.1156 17.5137 30.0346 17.3514 30.1143L8.43059 34.4948C8.17376 34.6209 7.90296 34.3501 8.02908 34.0933L12.4096 25.1725C12.4893 25.0102 12.4083 24.8148 12.2372 24.7563L2.83176 21.5459C2.56098 21.4534 2.56098 21.0705 2.83176 20.978L12.2372 17.7675C12.4083 17.7091 12.4893 17.5137 12.4096 17.3514L8.02908 8.43059C7.90296 8.17376 8.17376 7.90296 8.43059 8.02908L17.3514 12.4096C17.5137 12.4893 17.7091 12.4083 17.7675 12.2372L20.978 2.83176Z" fill="#FDF6F0"></path></g><path d="M620 21L615 18.1133L615 23.8868L620 21ZM60.5234 21.5L63.4994 21.5L63.4994 20.5L60.5234 20.5L60.5234 21.5ZM69.4512 21.5L75.4031 21.5L75.4031 20.5L69.4512 20.5L69.4512 21.5ZM81.355 21.5L87.3069 21.5L87.3069 20.5L81.355 20.5L81.355 21.5ZM93.2587 21.5L99.2106 21.5L99.2106 20.5L93.2587 20.5L93.2587 21.5ZM105.162 21.5L111.114 21.5L111.114 20.5L105.162 20.5L105.162 21.5ZM117.066 21.5L123.018 21.5L123.018 20.5L117.066 20.5L117.066 21.5ZM128.97 21.5L134.922 21.5L134.922 20.5L128.97 20.5L128.97 21.5ZM140.874 21.5L146.826 21.5L146.826 20.5L140.874 20.5L140.874 21.5ZM152.777 21.5L158.729 21.5L158.729 20.5L152.777 20.5L152.777 21.5ZM164.681 21.5L170.633 21.5L170.633 20.5L164.681 20.5L164.681 21.5ZM176.585 21.5L182.537 21.5L182.537 20.5L176.585 20.5L176.585 21.5ZM188.489 21.5L194.441 21.5L194.441 20.5L188.489 20.5L188.489 21.5ZM200.392 21.5L206.344 21.5L206.344 20.5L200.392 20.5L200.392 21.5ZM212.296 21.5L218.248 21.5L218.248 20.5L212.296 20.5L212.296 21.5ZM224.2 21.5L230.152 21.5L230.152 20.5L224.2 20.5L224.2 21.5ZM236.104 21.5L242.056 21.5L242.056 20.5L236.104 20.5L236.104 21.5ZM248.007 21.5L253.959 21.5L253.959 20.5L248.007 20.5L248.007 21.5ZM259.911 21.5L265.863 21.5L265.863 20.5L259.911 20.5L259.911 21.5ZM271.815 21.5L277.767 21.5L277.767 20.5L271.815 20.5L271.815 21.5ZM283.719 21.5L289.671 21.5L289.671 20.5L283.719 20.5L283.719 21.5ZM295.622 21.5L301.574 21.5L301.574 20.5L295.622 20.5L295.622 21.5ZM307.526 21.5L313.478 21.5L313.478 20.5L307.526 20.5L307.526 21.5ZM319.43 21.5L325.382 21.5L325.382 20.5L319.43 20.5L319.43 21.5ZM331.334 21.5L337.286 21.5L337.286 20.5L331.334 20.5L331.334 21.5ZM343.237 21.5L349.189 21.5L349.189 20.5L343.237 20.5L343.237 21.5ZM355.141 21.5L361.093 21.5L361.093 20.5L355.141 20.5L355.141 21.5ZM367.045 21.5L372.997 21.5L372.997 20.5L367.045 20.5L367.045 21.5ZM378.949 21.5L384.901 21.5L384.901 20.5L378.949 20.5L378.949 21.5ZM390.852 21.5L396.804 21.5L396.804 20.5L390.852 20.5L390.852 21.5ZM402.756 21.5L408.708 21.5L408.708 20.5L402.756 20.5L402.756 21.5ZM414.66 21.5L420.612 21.5L420.612 20.5L414.66 20.5L414.66 21.5ZM426.564 21.5L432.516 21.5L432.516 20.5L426.564 20.5L426.564 21.5ZM438.467 21.5L444.419 21.5L444.419 20.5L438.467 20.5L438.467 21.5ZM450.371 21.5L456.323 21.5L456.323 20.5L450.371 20.5L450.371 21.5ZM462.275 21.5L468.227 21.5L468.227 20.5L462.275 20.5L462.275 21.5ZM474.179 21.5L480.131 21.5L480.131 20.5L474.179 20.5L474.179 21.5ZM486.082 21.5L492.034 21.5L492.034 20.5L486.082 20.5L486.082 21.5ZM497.986 21.5L503.938 21.5L503.938 20.5L497.986 20.5L497.986 21.5ZM509.89 21.5L515.842 21.5L515.842 20.5L509.89 20.5L509.89 21.5ZM521.794 21.5L527.746 21.5L527.746 20.5L521.794 20.5L521.794 21.5ZM533.697 21.5L539.649 21.5L539.649 20.5L533.697 20.5L533.697 21.5ZM545.601 21.5L551.553 21.5L551.553 20.5L545.601 20.5L545.601 21.5ZM557.505 21.5L563.457 21.5L563.457 20.5L557.505 20.5L557.505 21.5ZM569.409 21.5L575.36 21.5L575.36 20.5L569.409 20.5L569.409 21.5ZM581.312 21.5L587.264 21.5L587.264 20.5L581.312 20.5L581.312 21.5ZM593.216 21.5L599.168 21.5L599.168 20.5L593.216 20.5L593.216 21.5ZM605.12 21.5L611.072 21.5L611.072 20.5L605.12 20.5L605.12 21.5Z" fill="#FDF6F0"></path><defs><clipPath id="clip0_111_1191"><rect width="38.5239" height="38" fill="white" transform="translate(2 2)"></rect></clipPath></defs></svg> 