<?xml version="1.0" encoding="UTF-8"?> <svg xmlns="http://www.w3.org/2000/svg" width="322" height="194" viewBox="0 0 322 194" fill="none"><path d="M117.023 93.6387L117.153 91.463C117.396 87.4217 120.619 84.1984 124.66 83.9561L126.836 83.8257L124.66 83.6952C120.619 83.4529 117.396 80.2297 117.153 76.1884L117.023 74.0127L116.893 76.1884C116.65 80.2297 113.427 83.4529 109.386 83.6952L107.21 83.8257L109.386 83.9561C113.427 84.1984 116.65 87.4217 116.893 91.463L117.023 93.6387Z" fill="#3C481A"></path><path d="M43.4271 132.312L43.4793 131.535C43.6471 129.037 45.6356 127.049 48.1331 126.881L48.9108 126.829L48.1331 126.777C45.6356 126.609 43.6471 124.62 43.4793 122.123L43.4271 121.345L43.3749 122.123C43.2071 124.62 41.2186 126.609 38.7211 126.777L37.9434 126.829L38.7211 126.881C41.2186 127.049 43.2071 129.037 43.3749 131.535L43.4271 132.312Z" fill="#3C481A"></path><circle cx="7.79268" cy="7.79268" r="7.79268" transform="matrix(1 0 0 -1 63.9199 193.5)" stroke="#3C481A"></circle><circle cx="7.79268" cy="7.79268" r="7.79268" transform="matrix(1 0 0 -1 63.9199 67.0859)" stroke="#3C481A"></circle><circle cx="31.4593" cy="31.4593" r="31.4593" transform="matrix(1 0 0 -1 40.2549 114.418)" stroke="#3C481A"></circle><path d="M39.2009 131.447C34.7684 137.836 32.1709 145.594 32.1709 153.959C32.1709 175.797 49.8739 193.5 71.7116 193.5C93.5493 193.5 111.252 175.797 111.252 153.959C111.252 132.122 93.5493 114.419 71.7116 114.419C62.836 114.419 54.6435 117.343 48.0449 122.281" stroke="#3C481A"></path><circle cx="49.9309" cy="49.9309" r="49.9309" transform="matrix(1 0 0 -1 21.7783 193.5)" stroke="#3C481A"></circle><circle cx="71" cy="71" r="71" transform="matrix(1 0 0 -1 1 193.5)" stroke="#3C481A"></circle><path d="M321 0.999992L321 43.4998C321 87.6826 285.183 123.5 241 123.5L143.5 123.5" stroke="#3C481A" stroke-dasharray="6 6"></path></svg> 