<?xml version="1.0" encoding="UTF-8"?> <svg xmlns="http://www.w3.org/2000/svg" width="622" height="42" viewBox="0 0 622 42" fill="none"><g clip-path="url(#clip0_111_1201)"><path d="M21.4077 3.16574C21.5001 2.89496 21.8831 2.89496 21.9755 3.16574L25.186 12.5712C25.2444 12.7423 25.4399 12.8233 25.6022 12.7436L34.523 8.36306C34.7798 8.23695 35.0506 8.50775 34.9245 8.76458L30.544 17.6854C30.4643 17.8477 30.5452 18.0431 30.7164 18.1015L40.1218 21.312C40.3926 21.4044 40.3926 21.7874 40.1218 21.8798L30.7164 25.0903C30.5452 25.1487 30.4643 25.3442 30.544 25.5065L34.9245 34.4273C35.0506 34.6841 34.7798 34.9549 34.523 34.8288L25.6022 30.4483C25.4399 30.3686 25.2444 30.4495 25.186 30.6207L21.9755 40.0261C21.8831 40.2969 21.5001 40.2969 21.4077 40.0261L18.1972 30.6207C18.1388 30.4495 17.9434 30.3686 17.7811 30.4483L8.86028 34.8288C8.60345 34.9549 8.33265 34.6841 8.45876 34.4273L12.8393 25.5065C12.919 25.3442 12.838 25.1487 12.6669 25.0903L3.26145 21.8798C2.99066 21.7874 2.99066 21.4044 3.26145 21.312L12.6669 18.1015C12.838 18.0431 12.919 17.8477 12.8393 17.6854L8.45876 8.76458C8.33265 8.50775 8.60345 8.23695 8.86028 8.36306L17.7811 12.7436C17.9434 12.8233 18.1388 12.7423 18.1972 12.5712L21.4077 3.16574Z" stroke="#FDF6F0"></path></g><path d="M620 21L615 18.1133L615 23.8868L620 21ZM60.5234 21.5L63.4994 21.5L63.4994 20.5L60.5234 20.5L60.5234 21.5ZM69.4512 21.5L75.4031 21.5L75.4031 20.5L69.4512 20.5L69.4512 21.5ZM81.355 21.5L87.3069 21.5L87.3069 20.5L81.355 20.5L81.355 21.5ZM93.2587 21.5L99.2106 21.5L99.2106 20.5L93.2587 20.5L93.2587 21.5ZM105.162 21.5L111.114 21.5L111.114 20.5L105.162 20.5L105.162 21.5ZM117.066 21.5L123.018 21.5L123.018 20.5L117.066 20.5L117.066 21.5ZM128.97 21.5L134.922 21.5L134.922 20.5L128.97 20.5L128.97 21.5ZM140.874 21.5L146.826 21.5L146.826 20.5L140.874 20.5L140.874 21.5ZM152.777 21.5L158.729 21.5L158.729 20.5L152.777 20.5L152.777 21.5ZM164.681 21.5L170.633 21.5L170.633 20.5L164.681 20.5L164.681 21.5ZM176.585 21.5L182.537 21.5L182.537 20.5L176.585 20.5L176.585 21.5ZM188.489 21.5L194.441 21.5L194.441 20.5L188.489 20.5L188.489 21.5ZM200.392 21.5L206.344 21.5L206.344 20.5L200.392 20.5L200.392 21.5ZM212.296 21.5L218.248 21.5L218.248 20.5L212.296 20.5L212.296 21.5ZM224.2 21.5L230.152 21.5L230.152 20.5L224.2 20.5L224.2 21.5ZM236.104 21.5L242.056 21.5L242.056 20.5L236.104 20.5L236.104 21.5ZM248.007 21.5L253.959 21.5L253.959 20.5L248.007 20.5L248.007 21.5ZM259.911 21.5L265.863 21.5L265.863 20.5L259.911 20.5L259.911 21.5ZM271.815 21.5L277.767 21.5L277.767 20.5L271.815 20.5L271.815 21.5ZM283.719 21.5L289.671 21.5L289.671 20.5L283.719 20.5L283.719 21.5ZM295.622 21.5L301.574 21.5L301.574 20.5L295.622 20.5L295.622 21.5ZM307.526 21.5L313.478 21.5L313.478 20.5L307.526 20.5L307.526 21.5ZM319.43 21.5L325.382 21.5L325.382 20.5L319.43 20.5L319.43 21.5ZM331.334 21.5L337.286 21.5L337.286 20.5L331.334 20.5L331.334 21.5ZM343.237 21.5L349.189 21.5L349.189 20.5L343.237 20.5L343.237 21.5ZM355.141 21.5L361.093 21.5L361.093 20.5L355.141 20.5L355.141 21.5ZM367.045 21.5L372.997 21.5L372.997 20.5L367.045 20.5L367.045 21.5ZM378.949 21.5L384.901 21.5L384.901 20.5L378.949 20.5L378.949 21.5ZM390.852 21.5L396.804 21.5L396.804 20.5L390.852 20.5L390.852 21.5ZM402.756 21.5L408.708 21.5L408.708 20.5L402.756 20.5L402.756 21.5ZM414.66 21.5L420.612 21.5L420.612 20.5L414.66 20.5L414.66 21.5ZM426.564 21.5L432.516 21.5L432.516 20.5L426.564 20.5L426.564 21.5ZM438.467 21.5L444.419 21.5L444.419 20.5L438.467 20.5L438.467 21.5ZM450.371 21.5L456.323 21.5L456.323 20.5L450.371 20.5L450.371 21.5ZM462.275 21.5L468.227 21.5L468.227 20.5L462.275 20.5L462.275 21.5ZM474.179 21.5L480.131 21.5L480.131 20.5L474.179 20.5L474.179 21.5ZM486.082 21.5L492.034 21.5L492.034 20.5L486.082 20.5L486.082 21.5ZM497.986 21.5L503.938 21.5L503.938 20.5L497.986 20.5L497.986 21.5ZM509.89 21.5L515.842 21.5L515.842 20.5L509.89 20.5L509.89 21.5ZM521.794 21.5L527.746 21.5L527.746 20.5L521.794 20.5L521.794 21.5ZM533.697 21.5L539.649 21.5L539.649 20.5L533.697 20.5L533.697 21.5ZM545.601 21.5L551.553 21.5L551.553 20.5L545.601 20.5L545.601 21.5ZM557.505 21.5L563.457 21.5L563.457 20.5L557.505 20.5L557.505 21.5ZM569.409 21.5L575.36 21.5L575.36 20.5L569.409 20.5L569.409 21.5ZM581.312 21.5L587.264 21.5L587.264 20.5L581.312 20.5L581.312 21.5ZM593.216 21.5L599.168 21.5L599.168 20.5L593.216 20.5L593.216 21.5ZM605.12 21.5L611.072 21.5L611.072 20.5L605.12 20.5L605.12 21.5Z" fill="#FDF6F0"></path><defs><clipPath id="clip0_111_1201"><rect width="38.5239" height="38" fill="white" transform="translate(2 2)"></rect></clipPath></defs></svg> 