<?xml version="1.0" encoding="UTF-8"?> <svg xmlns="http://www.w3.org/2000/svg" width="89" height="30" viewBox="0 0 89 30" fill="none"><rect x="0.88122" y="0.406489" width="87.5346" height="28.6878" rx="4.7813" fill="white"></rect><rect x="0.88122" y="0.406489" width="87.5346" height="28.6878" rx="4.7813" stroke="black" stroke-width="0.735585"></rect><path d="M60.4828 14.1625V15.8478H59.4265V16.953H60.4828V20.7081C60.4828 21.9903 61.0628 22.5032 62.5222 22.5032C62.7786 22.5032 63.0228 22.4727 63.2366 22.4361V21.3431C63.0534 21.3614 62.9374 21.3736 62.7359 21.3736C62.0825 21.3736 61.7956 21.0684 61.7956 20.3723V16.953H63.2366V15.8478H61.7956V14.1625H60.4828Z" fill="black"></path><path d="M66.9541 22.5948C68.8958 22.5948 70.0864 21.2943 70.0864 19.1389C70.0864 16.9957 68.8897 15.689 66.9541 15.689C65.0124 15.689 63.8156 16.9957 63.8156 19.1389C63.8156 21.2943 65.0063 22.5948 66.9541 22.5948ZM66.9541 21.4286C65.8123 21.4286 65.1712 20.5921 65.1712 19.1389C65.1712 17.6979 65.8123 16.8553 66.9541 16.8553C68.0898 16.8553 68.737 17.6979 68.737 19.1389C68.737 20.586 68.0898 21.4286 66.9541 21.4286Z" fill="black"></path><path d="M71.1051 22.4666H72.4179V18.5405C72.4179 17.6063 73.1201 16.9774 74.1154 16.9774C74.3474 16.9774 74.7382 17.0201 74.8481 17.0568V15.7623C74.7076 15.7257 74.4573 15.7073 74.2619 15.7073C73.3949 15.7073 72.656 16.1836 72.4668 16.8369H72.3691V15.8173H71.1051V22.4666Z" fill="black"></path><path d="M78.1077 16.8064C79.0785 16.8064 79.7135 17.4842 79.7441 18.5283H76.3858C76.4591 17.4903 77.1368 16.8064 78.1077 16.8064ZM79.7379 20.6715C79.4937 21.1905 78.9503 21.4774 78.1565 21.4774C77.1063 21.4774 76.4285 20.7386 76.3858 19.5724V19.4991H81.0813V19.0412C81.0813 16.953 79.9639 15.689 78.1138 15.689C76.2393 15.689 75.0486 17.0384 75.0486 19.1633C75.0486 21.2882 76.2148 22.5948 78.1199 22.5948C79.6403 22.5948 80.7027 21.8621 81.0019 20.6715H79.7379Z" fill="black"></path><path d="M51.8738 20.0111C51.9751 21.6439 53.3357 22.6881 55.3609 22.6881C57.5253 22.6881 58.8796 21.5933 58.8796 19.8466C58.8796 18.4733 58.1075 17.7138 56.2342 17.2771L55.228 17.0303C54.0382 16.7519 53.5572 16.3785 53.5572 15.7266C53.5572 14.9039 54.304 14.366 55.4242 14.366C56.4874 14.366 57.2215 14.8913 57.3544 15.733H58.734C58.6517 14.1951 57.2974 13.1129 55.4431 13.1129C53.4496 13.1129 52.1206 14.1951 52.1206 15.8216C52.1206 17.1632 52.8737 17.9606 54.5255 18.3467L55.7026 18.6315C56.9114 18.9163 57.443 19.3339 57.443 20.0301C57.443 20.8402 56.6076 21.4287 55.4685 21.4287C54.247 21.4287 53.399 20.8781 53.2788 20.0111H51.8738Z" fill="black"></path><path d="M38.2748 15.7073C37.3711 15.7073 36.5896 16.1592 36.1866 16.9163H36.0889V15.8173H34.8249V24.677H36.1377V21.4591H36.2415C36.5896 22.1613 37.3406 22.5765 38.287 22.5765C39.9661 22.5765 41.0347 21.2515 41.0347 19.1389C41.0347 17.0262 39.9661 15.7073 38.2748 15.7073ZM37.9023 21.3981C36.8033 21.3981 36.1133 20.531 36.1133 19.145C36.1133 17.7528 36.8033 16.8858 37.9084 16.8858C39.0197 16.8858 39.6853 17.7345 39.6853 19.1389C39.6853 20.5493 39.0197 21.3981 37.9023 21.3981Z" fill="black"></path><path d="M45.6283 15.7073C44.7246 15.7073 43.9431 16.1592 43.5401 16.9163H43.4424V15.8173H42.1784V24.677H43.4912V21.4591H43.595C43.9431 22.1613 44.6941 22.5765 45.6405 22.5765C47.3196 22.5765 48.3882 21.2515 48.3882 19.1389C48.3882 17.0262 47.3196 15.7073 45.6283 15.7073ZM45.2558 21.3981C44.1568 21.3981 43.4668 20.531 43.4668 19.145C43.4668 17.7528 44.1568 16.8858 45.2619 16.8858C46.3732 16.8858 47.0388 17.7345 47.0388 19.1389C47.0388 20.5493 46.3732 21.3981 45.2558 21.3981Z" fill="black"></path><path d="M32.4696 22.4666H33.9758L30.6786 13.3344H29.1534L25.8562 22.4666H27.3118L28.1535 20.0427H31.6342L32.4696 22.4666ZM29.8432 14.9925H29.9508L31.2735 18.853H28.5142L29.8432 14.9925Z" fill="black"></path><path d="M27.1106 7.88422C27.0783 8.41436 27.0136 8.77318 26.7906 9.03501V9.06087H28.9241V5.6473H27.2529L27.1106 7.88422ZM26.2799 9.68799V10.6093H25.6139V9.06087H25.9534C26.2863 8.86692 26.4027 8.46932 26.4382 7.8519L26.6096 5.02342H29.6482V9.06087H30.23V10.6093H29.5674V9.68799H26.2799ZM32.2439 9.75264C31.2709 9.75264 30.6309 9.0835 30.6309 7.98767C30.6309 6.89506 31.2741 6.22593 32.2439 6.22593C33.2137 6.22593 33.857 6.89506 33.857 7.98767C33.857 9.0835 33.2169 9.75264 32.2439 9.75264ZM32.2439 9.17725C32.7934 9.17725 33.1458 8.74408 33.1458 7.98767C33.1458 7.23448 32.7902 6.80132 32.2439 6.80132C31.6976 6.80132 31.342 7.23448 31.342 7.98767C31.342 8.74408 31.6976 9.17725 32.2439 9.17725ZM37.361 7.37671H36.6887C36.5982 7.06316 36.3396 6.80779 35.9064 6.80779C35.3666 6.80779 35.0142 7.27004 35.0142 7.98767C35.0142 8.72469 35.3698 9.16755 35.9129 9.16755C36.3266 9.16755 36.5982 8.96066 36.6951 8.60508H37.3675C37.2673 9.28715 36.7081 9.75264 35.9064 9.75264C34.9334 9.75264 34.3063 9.07704 34.3063 7.98767C34.3063 6.92092 34.9334 6.22593 35.8999 6.22593C36.7404 6.22593 37.2641 6.7496 37.361 7.37671ZM40.4449 6.28734V6.84011H39.3782V9.68799H38.6832V6.84011H37.6164V6.28734H40.4449ZM41.2951 10.9551C41.2401 10.9551 41.0623 10.9487 41.0106 10.939V10.3733C41.0623 10.3862 41.1787 10.3862 41.2369 10.3862C41.5634 10.3862 41.7347 10.2505 41.8414 9.90134C41.8414 9.89487 41.9028 9.69445 41.9028 9.69122L40.6744 6.28734H41.4308L42.2939 9.05441H42.3036L43.1667 6.28734H43.9037L42.6269 9.86578C42.3359 10.6901 42.003 10.9551 41.2951 10.9551ZM46.5706 9.68799V6.84011H45.0642V9.68799H44.3692V6.28734H47.2688V9.68799H46.5706ZM50.2557 9.68799V8.20748H48.717V9.68799H48.022V6.28734H48.717V7.65795H50.2557V6.28734H50.9507V9.68799H50.2557ZM53.1714 9.75264C52.1984 9.75264 51.5584 9.0835 51.5584 7.98767C51.5584 6.89506 52.2017 6.22593 53.1714 6.22593C54.1412 6.22593 54.7845 6.89506 54.7845 7.98767C54.7845 9.0835 54.1444 9.75264 53.1714 9.75264ZM53.1714 9.17725C53.721 9.17725 54.0733 8.74408 54.0733 7.98767C54.0733 7.23448 53.7177 6.80132 53.1714 6.80132C52.6251 6.80132 52.2696 7.23448 52.2696 7.98767C52.2696 8.74408 52.6251 9.17725 53.1714 9.17725ZM58.1334 6.79486H57.419V7.68704H58.0655C58.4599 7.68704 58.6571 7.53511 58.6571 7.23448C58.6571 6.95325 58.4728 6.79486 58.1334 6.79486ZM58.1108 8.17515H57.419V9.18048H58.1884C58.5827 9.18048 58.7961 9.00592 58.7961 8.67943C58.7961 8.34325 58.5698 8.17515 58.1108 8.17515ZM56.7305 9.68799V6.28734H58.2756C58.9383 6.28734 59.3392 6.61707 59.3392 7.15367C59.3392 7.50602 59.087 7.82604 58.7605 7.88746V7.91332C59.2002 7.9715 59.4911 8.28183 59.4911 8.70853C59.4911 9.30655 59.0321 9.68799 58.295 9.68799H56.7305Z" fill="black"></path><path d="M18.7333 14.9716C18.7492 13.7351 19.4133 12.5651 20.4668 11.9175C19.8022 10.9683 18.689 10.3665 17.5309 10.3303C16.2957 10.2006 15.0982 11.0694 14.4688 11.0694C13.8271 11.0694 12.858 10.3432 11.8144 10.3646C10.4541 10.4086 9.18599 11.182 8.52419 12.3712C7.10157 14.8343 8.16271 18.4541 9.52547 20.4451C10.2073 21.42 11.0041 22.509 12.0468 22.4703C13.0671 22.428 13.4481 21.8197 14.6797 21.8197C15.8999 21.8197 16.2574 22.4703 17.3212 22.4458C18.416 22.428 19.1058 21.4665 19.7637 20.4824C20.2536 19.7878 20.6306 19.02 20.8807 18.2076C19.594 17.6634 18.7348 16.3686 18.7333 14.9716Z" fill="black"></path><path d="M16.7239 9.02096C17.3209 8.30434 17.615 7.38326 17.5438 6.45331C16.6318 6.5491 15.7893 6.98497 15.1843 7.67409C14.5927 8.3474 14.2848 9.25227 14.343 10.1467C15.2554 10.1561 16.1522 9.73201 16.7239 9.02096Z" fill="black"></path></svg> 