<?xml version="1.0" encoding="UTF-8"?> <svg xmlns="http://www.w3.org/2000/svg" width="1000" height="33" viewBox="0 0 1000 33" fill="none"><path fill-rule="evenodd" clip-rule="evenodd" d="M1000 15.8642L996.988 15.8642L996.988 16.8642L1000 16.8642L1000 15.8642ZM990.964 15.8642L984.94 15.8642L984.94 16.8642L990.964 16.8642L990.964 15.8642ZM978.916 15.8642L972.892 15.8642L972.892 16.8642L978.916 16.8642L978.916 15.8642ZM966.867 15.8642L960.843 15.8642L960.843 16.8642L966.867 16.8642L966.867 15.8642ZM954.819 15.8642L948.795 15.8642L948.795 16.8642L954.819 16.8642L954.819 15.8642ZM942.771 15.8642L936.747 15.8642L936.747 16.8642L942.771 16.8642L942.771 15.8642ZM930.723 15.8642L924.699 15.8642L924.699 16.8642L930.723 16.8642L930.723 15.8642ZM918.675 15.8642L912.651 15.8642L912.651 16.8642L918.675 16.8642L918.675 15.8642ZM906.627 15.8642L900.602 15.8642L900.602 16.8642L906.627 16.8642L906.627 15.8642ZM894.578 15.8642L888.554 15.8642L888.554 16.8642L894.578 16.8642L894.578 15.8642ZM882.53 15.8642L876.506 15.8642L876.506 16.8642L882.53 16.8642L882.53 15.8642ZM870.482 15.8642L864.458 15.8642L864.458 16.8642L870.482 16.8642L870.482 15.8642ZM858.434 15.8642L852.41 15.8642L852.41 16.8642L858.434 16.8642L858.434 15.8642ZM846.386 15.8642L840.361 15.8642L840.361 16.8642L846.386 16.8642L846.386 15.8642ZM834.337 15.8642L828.313 15.8642L828.313 16.8642L834.337 16.8642L834.337 15.8642ZM822.289 15.8642L816.265 15.8642L816.265 16.8642L822.289 16.8642L822.289 15.8642ZM810.241 15.8642L804.217 15.8642L804.217 16.8642L810.241 16.8642L810.241 15.8642ZM798.193 15.8642L792.169 15.8642L792.169 16.8642L798.193 16.8642L798.193 15.8642ZM786.145 15.8642L780.121 15.8642L780.121 16.8642L786.145 16.8642L786.145 15.8642ZM774.096 15.8642L768.072 15.8642L768.072 16.8642L774.096 16.8642L774.096 15.8642ZM762.048 15.8642L756.024 15.8642L756.024 16.8642L762.048 16.8642L762.048 15.8642ZM750 15.8642L743.976 15.8642L743.976 16.8642L750 16.8642L750 15.8642ZM737.952 15.8642L731.928 15.8642L731.928 16.8642L737.952 16.8642L737.952 15.8642ZM725.904 15.8642L719.88 15.8642L719.88 16.8642L725.904 16.8642L725.904 15.8642ZM713.855 15.8642L707.831 15.8642L707.831 16.8642L713.855 16.8642L713.855 15.8642ZM701.807 15.8642L695.783 15.8642L695.783 16.8642L701.807 16.8642L701.807 15.8642ZM689.759 15.8642L683.735 15.8642L683.735 16.8642L689.759 16.8642L689.759 15.8642ZM677.711 15.8642L671.687 15.8642L671.687 16.8642L677.711 16.8642L677.711 15.8642ZM665.663 15.8642L659.638 15.8642L659.638 16.8642L665.663 16.8642L665.663 15.8642ZM653.614 15.8642L647.59 15.8642L647.59 16.8642L653.614 16.8642L653.614 15.8642ZM641.566 15.8642L635.542 15.8642L635.542 16.8642L641.566 16.8642L641.566 15.8642ZM629.518 15.8642L623.494 15.8642L623.494 16.8642L629.518 16.8642L629.518 15.8642ZM617.47 15.8642L611.446 15.8642L611.446 16.8642L617.47 16.8642L617.47 15.8642ZM605.421 15.8642L599.397 15.8642L599.397 16.8642L605.421 16.8642L605.421 15.8642ZM593.373 15.8642L587.349 15.8642L587.349 16.8642L593.373 16.8642L593.373 15.8642ZM581.325 15.8642L575.301 15.8642L575.301 16.8642L581.325 16.8642L581.325 15.8642ZM569.277 15.8642L563.253 15.8642L563.253 16.8642L569.277 16.8642L569.277 15.8642ZM557.229 15.8642L551.204 15.8642L551.204 16.8642L557.229 16.8642L557.229 15.8642ZM545.18 15.8642L539.156 15.8642L539.156 16.8642L545.18 16.8642L545.18 15.8642ZM533.132 15.8642L527.108 15.8642L527.108 16.8642L533.132 16.8642L533.132 15.8642ZM521.084 15.8642L515.06 15.8642L515.06 16.8642L521.084 16.8642L521.084 15.8642ZM509.036 15.8642L503.012 15.8642L503.012 16.8642L509.036 16.8642L509.036 15.8642ZM496.988 15.8642L490.963 15.8642L490.963 16.8642L496.988 16.8642L496.988 15.8642ZM484.939 15.8642L478.915 15.8642L478.915 16.8642L484.939 16.8642L484.939 15.8642ZM472.891 15.8642L466.867 15.8642L466.867 16.8642L472.891 16.8642L472.891 15.8642ZM460.843 15.8642L454.819 15.8642L454.819 16.8642L460.843 16.8642L460.843 15.8642ZM448.795 15.8642L442.771 15.8642L442.771 16.8642L448.795 16.8642L448.795 15.8642ZM436.746 15.8642L430.722 15.8642L430.722 16.8642L436.746 16.8642L436.746 15.8642ZM424.698 15.8642L418.674 15.8642L418.674 16.8642L424.698 16.8642L424.698 15.8642ZM412.65 15.8642L406.626 15.8642L406.626 16.8642L412.65 16.8642L412.65 15.8642ZM400.602 15.8642L394.578 15.8642L394.578 16.8642L400.602 16.8642L400.602 15.8642ZM388.554 15.8642L382.529 15.8642L382.529 16.8642L388.554 16.8642L388.554 15.8642ZM376.505 15.8642L370.481 15.8642L370.481 16.8642L376.505 16.8642L376.505 15.8642ZM364.457 15.8642L358.433 15.8642L358.433 16.8642L364.457 16.8642L364.457 15.8642ZM352.409 15.8642L346.385 15.8642L346.385 16.8642L352.409 16.8642L352.409 15.8642ZM340.361 15.8642L334.337 15.8642L334.337 16.8642L340.361 16.8642L340.361 15.8642ZM328.313 15.8642L322.288 15.8642L322.288 16.8642L328.313 16.8642L328.313 15.8642ZM316.264 15.8642L310.24 15.8642L310.24 16.8642L316.264 16.8642L316.264 15.8642ZM304.216 15.8642L298.192 15.8642L298.192 16.8642L304.216 16.8642L304.216 15.8642ZM292.168 15.8642L286.144 15.8642L286.144 16.8642L292.168 16.8642L292.168 15.8642ZM280.12 15.8642L274.096 15.8642L274.096 16.8642L280.12 16.8642L280.12 15.8642ZM219.879 15.8642L213.854 15.8642L213.854 16.8642L219.879 16.8642L219.879 15.8642ZM207.83 15.8642L201.806 15.8642L201.806 16.8642L207.83 16.8642L207.83 15.8642ZM195.782 15.8642L189.758 15.8642L189.758 16.8642L195.782 16.8642L195.782 15.8642ZM183.734 15.8642L177.71 15.8642L177.71 16.8642L183.734 16.8642L183.734 15.8642ZM171.686 15.8642L165.662 15.8642L165.662 16.8642L171.686 16.8642L171.686 15.8642ZM159.637 15.8642L153.613 15.8642L153.613 16.8642L159.637 16.8642L159.637 15.8642ZM147.589 15.8642L141.565 15.8642L141.565 16.8642L147.589 16.8642L147.589 15.8642ZM135.541 15.8642L129.517 15.8642L129.517 16.8642L135.541 16.8642L135.541 15.8642ZM123.493 15.8642L117.469 15.8641L117.469 16.8641L123.493 16.8642L123.493 15.8642ZM111.445 15.8641L105.42 15.8641L105.42 16.8641L111.445 16.8641L111.445 15.8641ZM99.3963 15.8641L93.3722 15.8641L93.3722 16.8641L99.3963 16.8641L99.3963 15.8641ZM87.3481 15.8641L81.324 15.8641L81.324 16.8641L87.3481 16.8641L87.3481 15.8641ZM75.2999 15.8641L69.2758 15.8641L69.2758 16.8641L75.2999 16.8641L75.2999 15.8641ZM63.2517 15.8641L57.2276 15.8641L57.2276 16.8641L63.2517 16.8641L63.2517 15.8641ZM51.2035 15.8641L45.1793 15.8641L45.1793 16.8641L51.2035 16.8641L51.2035 15.8641ZM39.1552 15.8641L33.1312 15.8641L33.1312 16.8641L39.1552 16.8641L39.1552 15.8641ZM27.1071 15.8641L21.0829 15.8641L21.0829 16.8641L27.1071 16.8641L27.1071 15.8641ZM15.0588 15.8641L9.03473 15.8641L9.03473 16.8641L15.0588 16.8641L15.0588 15.8641ZM2.52367e-07 16.3641L5 19.2509L5 13.4774L2.52367e-07 16.3641Z" fill="#E0D6CE"></path><path d="M247.393 0.831759C247.485 0.560976 247.868 0.560976 247.96 0.831759L250.593 8.54568C250.652 8.71681 250.847 8.79775 251.01 8.71805L258.326 5.12536C258.583 4.99925 258.854 5.27005 258.728 5.52688L255.135 12.8433C255.055 13.0056 255.136 13.2011 255.307 13.2595L263.021 15.8926C263.292 15.985 263.292 16.368 263.021 16.4604L255.307 19.0935C255.136 19.1519 255.055 19.3473 255.135 19.5096L258.728 26.8261C258.854 27.0829 258.583 27.3537 258.326 27.2276L251.01 23.6349C250.847 23.5552 250.652 23.6361 250.593 23.8073L247.96 31.5212C247.868 31.792 247.485 31.792 247.393 31.5212L244.759 23.8073C244.701 23.6361 244.506 23.5552 244.343 23.6349L237.027 27.2276C236.77 27.3537 236.499 27.0829 236.625 26.8261L240.218 19.5096C240.298 19.3473 240.217 19.1519 240.046 19.0935L232.332 16.4604C232.061 16.368 232.061 15.985 232.332 15.8926L240.046 13.2595C240.217 13.2011 240.298 13.0056 240.218 12.8433L236.625 5.52688C236.499 5.27005 236.77 4.99925 237.027 5.12536L244.343 8.71805C244.506 8.79775 244.701 8.71681 244.759 8.54568L247.393 0.831759Z" stroke="#E0D6CE"></path><path d="M0.5 16L16.5 32L16.5 1.90798e-07L0.5 16Z" fill="#E0D6CE"></path></svg> 