<?xml version="1.0" encoding="UTF-8"?> <svg xmlns="http://www.w3.org/2000/svg" width="365" height="36" viewBox="0 0 365 36" fill="none"><path d="M363 18L347 2L347 34L363 18Z" fill="#FDF6F0"></path><path fill-rule="evenodd" clip-rule="evenodd" d="M231.98 19C231.993 18.6684 232 18.335 232 18L233.642 18V19L231.98 19ZM185.02 19L179.492 19V18L185 18C185 18.335 185.007 18.6684 185.02 19ZM5.00846 18L2 18V19L5.00846 19V18ZM17.0418 18L11.0251 18V19L17.0418 19V18ZM29.0751 18L23.0584 18V19L29.0751 19V18ZM41.1084 18L35.0918 18V19L41.1084 19V18ZM53.1417 18L47.1251 18V19L53.1417 19V18ZM65.1751 18L59.1584 18V19L65.1751 19V18ZM77.2084 18L71.1917 18V19L77.2084 19V18ZM89.2417 18L83.2251 18V19L89.2417 19L89.2417 18ZM101.275 18L95.2584 18V19L101.275 19V18ZM113.308 18L107.292 18V19L113.308 19V18ZM125.342 18L119.325 18V19L125.342 19V18ZM137.375 18L131.358 18V19L137.375 19V18ZM149.408 18L143.392 18V19L149.408 19V18ZM161.442 18L155.425 18V19L161.442 19V18ZM173.475 18L167.458 18V19L173.475 19V18ZM245.675 18L239.658 18V19L245.675 19V18ZM257.708 18L251.692 18V19L257.708 19V18ZM269.742 18L263.725 18V19L269.742 19V18ZM281.775 18L275.758 18V19L281.775 19V18ZM293.808 18L287.792 18V19L293.808 19V18ZM305.842 18L299.825 18V19L305.842 19V18ZM317.875 18L311.858 18V19L317.875 19V18ZM329.908 18L323.892 18V19L329.908 19V18ZM341.942 18L335.925 18V19L341.942 19V18ZM353.975 18L347.958 18V19L353.975 19V18ZM363 18.5L358 15.6133V21.3868L363 18.5Z" fill="#FDF6F0"></path><path d="M208.996 2L209.375 10.8381C209.544 14.7838 212.702 17.9455 216.647 18.1199L225.242 18.5L216.647 18.88C212.702 19.0545 209.544 22.2161 209.375 26.1618L208.996 35L208.617 26.1618C208.448 22.2161 205.291 19.0545 201.345 18.88L192.75 18.5L201.345 18.1199C205.291 17.9455 208.448 14.7838 208.617 10.8381L208.996 2Z" fill="#FDF6F0"></path></svg> 