<?xml version="1.0" encoding="UTF-8"?> <svg xmlns="http://www.w3.org/2000/svg" width="100" height="99" viewBox="0 0 100 99" fill="none"><path d="M33.8904 0.12532C33.6712 0.207542 33.4656 0.27606 33.4519 0.289764C33.4382 0.303467 33.2053 2.66049 32.9312 5.52454C32.6708 8.37489 32.4104 11.006 32.3693 11.3623L32.2871 12.0063L33.0271 11.7597L33.7534 11.513L33.8767 9.99192C33.9727 8.7997 34.0412 8.45711 34.2193 8.3886C34.3427 8.33378 35.48 7.93638 36.7682 7.48416L39.0841 6.67564L40.1941 7.77193L41.3041 8.86822L41.9482 8.64896C42.3181 8.52563 42.5922 8.37489 42.5648 8.32008C42.4826 8.12823 34.5893 0.0293951 34.4386 0.0019879C34.3701 -0.0117157 34.1234 0.0430987 33.8904 0.12532ZM38.0563 5.63417C37.9193 5.7575 34.3289 6.94972 34.2604 6.8812C34.1919 6.81268 34.466 2.89345 34.5756 2.3453C34.6304 2.09864 34.9045 2.3179 36.3708 3.81159C37.33 4.78455 38.0837 5.60676 38.0563 5.63417Z" fill="#242424"></path><path d="M51.0887 2.12602V2.66046L53.2539 2.74268C68.506 3.35935 82.2781 11.1293 90.7469 23.8736C94.9128 30.1362 97.3247 36.7002 98.3113 44.4291C98.6128 46.7861 98.6539 52.5964 98.3935 54.7753C96.9958 66.2315 92.3091 75.8925 84.3747 83.6214C76.6459 91.1584 67.3275 95.5435 56.2275 96.8728C54.3913 97.092 48.5124 97.092 46.635 96.8728C37.248 95.7765 29.1629 92.4602 21.8589 86.6636C20.0363 85.2384 16.1034 81.2918 14.5823 79.3733C8.23752 71.4115 4.68828 61.8875 4.26347 51.7468L4.18125 49.5679H3.63311H3.08496L3.16718 51.8564C3.82496 69.4793 14.2534 85.4851 30.1907 93.2824C35.2747 95.7765 40.304 97.2291 46.3609 97.9691C48.2246 98.202 54.8572 98.1883 56.7757 97.9691C68.1497 96.6124 77.9478 91.9121 85.8273 84.0325C100.106 69.7533 104.012 48.2524 95.6391 29.8621C89.3766 16.0763 76.8241 5.92192 62.0516 2.71528C58.8586 2.01639 55.3779 1.60529 52.6372 1.60529H51.0887V2.12602Z" fill="#242424"></path><path d="M22.2428 6.23736C20.6395 6.79921 19.1732 8.08735 18.5017 9.51252C18.1866 10.184 18.1317 10.4855 18.1455 11.5407C18.1455 13.1851 18.488 14.0621 19.598 15.2406C21.3521 17.118 23.6269 17.5291 25.9702 16.378C27.368 15.6928 28.8617 13.8703 29.0535 12.6095C29.0809 12.4177 28.6972 11.7873 27.875 10.6636C27.2035 9.74548 26.6143 9.00549 26.5732 9.00549C26.5321 9.00549 26.2717 9.18363 25.9976 9.38919L25.4906 9.77289L26.5869 11.2255L27.6695 12.6918L27.3954 13.2399C27.0254 13.9525 26.1209 14.8295 25.3261 15.1995C24.5039 15.6106 23.1062 15.6928 22.2017 15.3914C21.818 15.2543 21.2288 14.9117 20.8862 14.6103C19.0773 13.0206 19.0225 10.3347 20.7628 8.63549C21.5851 7.85438 22.4484 7.45698 23.6132 7.36105L24.5724 7.29254V6.67587V6.05921L23.7502 6.0318C23.2432 6.0044 22.6676 6.08662 22.2428 6.23736Z" fill="#242424"></path><path d="M11.2533 17.2823C9.8144 17.7482 8.41663 19.0089 7.69034 20.4889C7.33405 21.2015 7.30664 21.407 7.30664 22.7774C7.30664 24.2026 7.33405 24.3259 7.73145 25.107C8.82774 27.2037 11.3492 28.5055 13.5007 28.067C14.6518 27.8477 15.6247 27.2996 16.4744 26.4089C17.324 25.5181 17.7077 24.8329 18.0092 23.6407C18.3243 22.4348 18.1873 21.3933 17.5843 20.1463C16.6936 18.3374 14.9533 17.2137 12.9251 17.1315C12.2536 17.1041 11.6096 17.1589 11.2533 17.2823ZM14.3092 18.8582C16.4195 19.79 17.3514 22.243 16.3784 24.23C15.4603 26.1348 13.5966 27.094 11.7603 26.6281C9.8281 26.1348 8.59478 24.6274 8.58108 22.7911C8.58108 21.3659 9.22515 20.1052 10.39 19.2556C11.5274 18.4197 12.9662 18.2689 14.3092 18.8582Z" fill="#242424"></path><path d="M58.7633 17.5975C57.7629 18.1182 57.3929 19.2967 57.9411 20.2149C58.0918 20.4616 58.7085 20.9823 59.3388 21.3934C60.764 22.2978 60.9147 22.4623 60.7092 22.9145C60.6133 23.1063 60.4077 23.3119 60.2159 23.3804C59.4896 23.6682 57.9136 22.9693 57.4066 22.1471L57.1599 21.736L56.79 22.2293L56.4062 22.7226L56.7625 23.1886C57.2011 23.7641 58.5988 24.463 59.5307 24.5726C60.5584 24.696 61.4218 24.2849 61.7781 23.5038C62.3262 22.2978 62.0384 21.7086 60.3118 20.6123C58.9825 19.7627 58.7359 19.4201 59.0236 18.8993C59.3662 18.2553 60.8736 18.4745 61.7644 19.2967L62.2166 19.7079L62.5455 19.4064C62.9703 19.009 62.9566 18.8582 62.5044 18.4334C61.504 17.5016 59.7088 17.1042 58.7633 17.5975Z" fill="#242424"></path><path d="M49.0331 18.1454C40.7013 18.7757 32.7669 22.8046 27.2718 29.2179C19.4059 38.3856 17.4189 51.0751 22.1055 62.2573C26.1207 71.8361 34.8636 79.0168 45.0454 81.086C49.3346 81.9493 54.3501 81.8945 58.4886 80.9353C67.0122 78.9483 74.2477 73.6724 78.7699 66.1491C81.4284 61.7228 82.8947 56.8169 83.2236 51.2396L83.3195 49.5677H82.7577C82.4014 49.5677 82.1958 49.6362 82.1958 49.7322C82.1821 50.7736 81.8669 54.0625 81.6477 55.2547C79.9484 64.8198 73.8229 73.0146 65.1348 77.3586C55.3094 82.2508 43.6613 81.5519 34.5073 75.5087C24.6407 68.9857 19.3648 57.2691 21.0229 45.5937C21.9548 39.1393 24.8188 33.2878 29.3684 28.6149C35.028 22.7909 41.8935 19.6939 50.1705 19.2005L51.7738 19.1183V18.5839V18.0494L50.7186 18.0768C50.1294 18.0905 49.3757 18.1179 49.0331 18.1454Z" fill="#242424"></path><path d="M65.2591 20.8858C64.8343 21.6258 64.0532 22.955 63.5324 23.8321C63.0254 24.7091 62.6006 25.4902 62.6006 25.5724C62.6006 25.7095 63.2995 26.1343 63.5324 26.1343C63.6009 26.1343 63.8202 25.8465 64.0121 25.4765C64.2176 25.1202 64.4232 24.7502 64.4917 24.6543C64.5876 24.5173 64.8891 24.6269 65.8072 25.1065C67.5476 26.0109 68.452 25.9424 69.425 24.8461C70.2746 23.8732 70.2746 22.6399 69.425 21.6806C69.0824 21.2695 66.9035 19.858 66.2457 19.6114C66.1087 19.5565 65.8072 19.9402 65.2591 20.8858ZM68.3835 22.2699C68.8631 22.7084 68.9591 23.1469 68.7124 23.7361C68.452 24.3528 67.8354 24.6543 67.1639 24.4624C66.7939 24.3665 65.4509 23.6676 65.2317 23.4621C65.218 23.4484 65.5058 22.9002 65.8895 22.2562L66.5883 21.0776L67.3009 21.5025C67.6983 21.7354 68.178 22.078 68.3835 22.2699Z" fill="#242424"></path><path d="M72.1246 26.3269C70.9187 26.8065 69.3291 27.4232 68.5891 27.7109L67.2324 28.2317L67.6983 28.6839L68.1506 29.1498L69.0824 28.7798L70.0143 28.4098L71.1791 29.5746L72.3439 30.7394L72.0013 31.6439L71.6724 32.5483L72.1383 33.0005C72.385 33.2472 72.6179 33.4253 72.6453 33.3842C72.6728 33.3568 73.2757 31.7124 73.9746 29.7254L75.249 26.135L74.9338 25.7924C74.7557 25.6006 74.5501 25.4498 74.4679 25.4635C74.3857 25.4635 73.3305 25.8472 72.1246 26.3269ZM73.3716 27.9302C73.1935 28.4098 72.9742 28.9854 72.8783 29.2046L72.7276 29.602L71.9876 28.8757C71.5765 28.4646 71.2339 28.0946 71.2339 28.0398C71.2339 27.9439 73.6046 26.9572 73.6731 27.012C73.6868 27.0395 73.5498 27.4506 73.3716 27.9302Z" fill="#242424"></path><path d="M2.81128 29.0258L2.56462 29.711L3.03054 30.2865C3.29091 30.6017 4.22275 31.7254 5.08608 32.7669C5.96311 33.8221 6.64829 34.7128 6.62089 34.7539C6.57977 34.7813 5.18201 35.1239 3.49646 35.5076C0.193894 36.275 0.303523 36.2202 0.0431541 37.2617C-0.0390675 37.5769 -0.0116603 37.6454 0.193894 37.6317C0.344633 37.6317 2.1261 37.248 4.15424 36.7683L7.85421 35.905L9.60827 36.4943L11.3623 37.0835L11.4857 36.7409C11.8694 35.7269 11.9516 35.8091 10.0605 35.1787L8.33384 34.6032L5.71645 31.465C4.27757 29.7384 3.09906 28.3269 3.08535 28.3269C3.07165 28.3269 2.94832 28.6421 2.81128 29.0258Z" fill="#242424"></path><path d="M76.0294 31.493C74.3987 32.233 73.5628 33.8775 73.9739 35.5767C74.2754 36.8649 75.3031 38.0023 76.4405 38.3311C76.7009 38.3997 76.9202 38.4408 76.9339 38.4271C76.9613 38.3997 77.0161 38.1393 77.0709 37.8378C77.1531 37.3034 77.1394 37.276 76.7557 37.1937C75.4402 36.9334 74.6591 35.0149 75.3442 33.6719C75.8376 32.699 77.0435 32.1645 78.085 32.4386C79.2498 32.7538 80.1268 34.0282 79.9624 35.1793C79.8938 35.7 79.9075 35.7275 80.3872 35.8508C80.6475 35.933 80.9216 35.9604 80.9901 35.9193C81.2094 35.7823 81.0998 34.0419 80.8394 33.4527C80.4831 32.6715 79.6883 31.8219 78.9894 31.493C78.2083 31.1093 76.8791 31.1093 76.0294 31.493Z" fill="#242424"></path><path d="M79.6747 39.0842C77.8658 39.6324 76.3721 40.1257 76.3447 40.2079C76.3036 40.3313 77.6191 44.8946 77.7288 45.0042C77.7836 45.0727 78.7702 44.7849 78.7702 44.7164C78.7702 44.6753 77.8932 41.6879 77.7425 41.222C77.6739 40.989 77.7699 40.9205 78.4139 40.7424C78.825 40.619 79.2362 40.5231 79.3458 40.5231C79.4691 40.5231 79.6884 41.0575 79.9899 42.1127C80.3461 43.3186 80.4969 43.6749 80.6476 43.6201C80.7573 43.579 80.9217 43.5379 81.0039 43.5379C81.5247 43.5242 81.5384 43.3186 81.0587 41.7153L80.5791 40.112L81.278 39.9064C82.4017 39.5776 82.2235 39.372 82.9635 41.8249C83.1554 42.4964 83.3472 43.0994 83.3746 43.1542C83.4569 43.2912 84.3887 42.9623 84.3887 42.7979C84.3887 42.5786 83.1143 38.2757 83.0321 38.1798C82.9909 38.1387 81.4698 38.5498 79.6747 39.0842Z" fill="#242424"></path><path d="M49.8011 43.278C48.883 43.4973 47.6222 44.1825 46.8 44.9087L46.0052 45.6213L44.5252 45.6624C43.3604 45.6899 42.8945 45.7721 42.3326 46.0187C41.6338 46.3202 41.2227 46.7998 41.2227 47.3206C41.2227 48.0469 42.3052 49.1569 43.9086 50.0476C44.58 50.4176 44.6074 50.4724 44.7719 51.2535C45.416 54.3916 48.2663 56.6938 51.473 56.6938C53.1996 56.6938 54.9948 55.9264 56.2692 54.6246L57.0503 53.8572L58.5577 53.7887C60.7777 53.6928 61.7781 53.172 61.7781 52.1168C61.7781 51.3083 60.5584 50.1161 58.9277 49.3213C58.2973 49.0061 58.1877 48.8828 58.0644 48.4032C57.434 45.8817 55.5977 43.9632 53.2133 43.3328C52.3363 43.1136 50.6507 43.0862 49.8011 43.278ZM53.8848 44.8265C55.8033 45.7721 56.9681 47.5124 57.064 49.6091C57.1188 50.5272 57.064 50.8972 56.8174 51.6235L56.5022 52.5142L55.7485 52.4731C54.6522 52.4183 51.9252 51.8428 50.0615 51.2809C47.8963 50.6231 45.8682 49.8283 45.786 49.6228C45.6763 49.335 45.9915 48.0743 46.3752 47.3206C46.7863 46.4984 47.6085 45.6076 48.4856 45.0458C49.4174 44.4428 50.4178 44.2099 51.747 44.2784C52.72 44.3195 53.0489 44.4017 53.8848 44.8265ZM45.1008 46.7724C45.2926 46.841 45.2926 46.9095 45.1145 47.3206C45.0049 47.5672 44.8541 48.088 44.7719 48.4717L44.6212 49.1569L44.0867 48.8554C43.4015 48.4717 42.6341 47.8413 42.456 47.5124C42.2641 47.1561 42.6889 46.9369 43.8263 46.8272C44.3197 46.7724 44.7582 46.7176 44.813 46.7039C44.8541 46.7039 44.9911 46.7313 45.1008 46.7724ZM59.3114 50.8287C60.3666 51.5413 60.8462 52.1168 60.5447 52.3087C60.2159 52.5142 59.0922 52.7198 58.3248 52.7198C57.7218 52.7198 57.6533 52.6924 57.7355 52.4731C57.8999 52.0483 58.2151 50.7465 58.2151 50.4998C58.2151 50.1435 58.3385 50.1846 59.3114 50.8287ZM48.3622 51.9113C50.4726 52.6239 53.3503 53.3365 54.6933 53.4872C55.1181 53.542 55.5155 53.6242 55.5429 53.6791C55.6388 53.8298 54.7481 54.5835 54.0629 54.9261C51.1989 56.4061 47.8004 55.2961 46.3615 52.4046C45.8134 51.322 45.7585 50.9931 46.1285 51.1439C46.2519 51.1987 47.2659 51.5413 48.3622 51.9113Z" fill="#242424"></path></svg> 