<?xml version="1.0" encoding="UTF-8"?> <svg xmlns="http://www.w3.org/2000/svg" width="1318" height="738" viewBox="0 0 1318 738" fill="none"><path d="M1277.99 472L1277.99 -72.4995" stroke="#E0D6CE" stroke-dasharray="6 6"></path><path d="M1040 710.75L-860 710.75" stroke="#E0D6CE" stroke-dasharray="6 6"></path><path d="M1049.99 712C1079.94 712 1109.58 706.084 1137.25 694.59C1164.91 683.096 1190.04 666.248 1211.21 645.01C1232.39 623.771 1249.18 598.557 1260.64 570.807C1272.1 543.058 1277.99 513.316 1277.99 483.28" stroke="#E0D6CE" stroke-dasharray="6 6"></path><ellipse cx="1278.49" cy="473" rx="39.5" ry="40" transform="rotate(-180 1278.49 473)" fill="#FDF6F0"></ellipse><ellipse cx="1223.33" cy="631" rx="15.6667" ry="16" transform="rotate(-180 1223.33 631)" fill="#FDF6F0"></ellipse><path d="M1277.99 505L1277.25 487.592C1276.91 479.82 1270.7 473.593 1262.92 473.249L1245.99 472.5L1262.92 471.752C1270.7 471.408 1276.91 465.181 1277.25 457.409L1277.99 440L1278.74 457.409C1279.07 465.181 1285.29 471.408 1293.06 471.752L1309.99 472.5L1293.06 473.249C1285.29 473.593 1279.07 479.82 1278.74 487.592L1277.99 505Z" fill="#E0D6CE"></path><circle cx="1222.99" cy="631" r="7" transform="rotate(-180 1222.99 631)" fill="#E0D6CE"></circle><ellipse cx="1053.49" cy="712" rx="23.5" ry="24" transform="rotate(-180 1053.49 712)" fill="#FDF6F0"></ellipse><path d="M1044.71 727.791C1044.5 727.979 1044.16 727.788 1044.22 727.507L1046.14 717.757C1046.18 717.579 1046.05 717.411 1045.87 717.399L1035.95 716.733C1035.67 716.713 1035.57 716.343 1035.81 716.184L1044.06 710.649C1044.21 710.548 1044.24 710.338 1044.12 710.202L1037.58 702.719C1037.39 702.504 1037.58 702.172 1037.86 702.227L1047.61 704.15C1047.79 704.185 1047.96 704.056 1047.97 703.875L1048.64 693.959C1048.66 693.674 1049.03 693.575 1049.19 693.813L1054.72 702.067C1054.82 702.217 1055.03 702.244 1055.17 702.125L1062.65 695.585C1062.87 695.397 1063.2 695.588 1063.14 695.869L1061.22 705.62C1061.18 705.797 1061.31 705.965 1061.49 705.977L1071.41 706.644C1071.7 706.663 1071.79 707.033 1071.56 707.192L1063.3 712.728C1063.15 712.828 1063.12 713.038 1063.24 713.174L1069.78 720.657C1069.97 720.873 1069.78 721.205 1069.5 721.149L1059.75 719.227C1059.57 719.192 1059.4 719.321 1059.39 719.501L1058.73 729.417C1058.71 729.702 1058.34 729.801 1058.18 729.564L1052.64 721.31C1052.54 721.16 1052.33 721.132 1052.19 721.251L1044.71 727.791Z" fill="#E0D6CE"></path><path d="M1011.78 513.383C1008.77 514.148 1006.4 516.51 1005.64 519.519C1004.87 516.51 1002.51 514.148 999.503 513.383C1002.51 512.617 1004.87 510.255 1005.64 507.246C1006.4 510.255 1008.77 512.617 1011.78 513.383Z" fill="#FDF6F0" stroke="#E0D6CE"></path><path d="M1098.4 565.775C1096.99 566.333 1095.86 567.458 1095.3 568.871C1094.75 567.458 1093.62 566.333 1092.21 565.775C1093.62 565.217 1094.75 564.092 1095.3 562.679C1095.86 564.092 1096.99 565.217 1098.4 565.775Z" fill="#FDF6F0" stroke="#E0D6CE"></path><circle cx="1060.84" cy="637.507" r="9.4939" transform="rotate(-180 1060.84 637.507)" stroke="#E0D6CE"></circle><circle cx="1060.84" cy="483.494" r="9.4939" transform="rotate(-180 1060.84 483.494)" stroke="#E0D6CE"></circle><circle cx="1060.84" cy="512.328" r="38.3272" transform="rotate(-180 1060.84 512.328)" stroke="#E0D6CE"></circle><path d="M1100.45 571.401C1105.85 579.185 1109.02 588.637 1109.02 598.828C1109.02 625.433 1087.45 647 1060.84 647C1034.24 647 1012.67 625.433 1012.67 598.828C1012.67 572.223 1034.24 550.655 1060.84 550.655C1071.66 550.655 1081.64 554.218 1089.68 560.233" stroke="#E0D6CE"></path><circle cx="1060.84" cy="586.169" r="60.8313" transform="rotate(-180 1060.84 586.169)" stroke="#E0D6CE"></circle><circle cx="1060.49" cy="560.5" r="86.5" transform="rotate(-180 1060.49 560.5)" stroke="#E0D6CE"></circle></svg> 