<?xml version="1.0" encoding="UTF-8"?> <svg xmlns="http://www.w3.org/2000/svg" width="51" height="36" viewBox="0 0 51 36" fill="none"><path d="M25.1066 5.16127C22.5523 5.15965 20.0549 5.91194 17.9304 7.32298C15.8059 8.73402 14.1497 10.7404 13.1715 13.0882C12.1933 15.4361 11.9369 18.0199 12.4348 20.5128C12.9327 23.0056 14.1626 25.2955 15.9687 27.0927C17.7749 28.8899 20.0762 30.1137 22.5815 30.6091C25.0868 31.1046 27.6835 30.8494 30.043 29.8761C32.4026 28.9027 34.419 27.2547 35.837 25.1408C37.2551 23.0268 38.0112 20.5418 38.0095 18.0002C38.0052 14.5964 36.6443 11.3333 34.2255 8.92651C31.8067 6.51968 28.5273 5.16562 25.1066 5.16127ZM25.1066 31.8002C22.3632 31.8018 19.681 30.9939 17.3992 29.4785C15.1174 27.9631 13.3385 25.8084 12.2876 23.2869C11.2366 20.7655 10.9608 17.9905 11.495 15.313C12.0292 12.6355 13.3494 10.1758 15.2887 8.24503C17.2279 6.31425 19.6991 4.99911 22.3896 4.46597C25.0801 3.93282 27.8691 4.20563 30.4038 5.24988C32.9385 6.29413 35.105 8.0629 36.6292 10.3325C38.1535 12.6021 38.9671 15.2705 38.9671 18.0002C38.9628 21.6574 37.5013 25.1638 34.9031 27.7506C32.305 30.3374 28.782 31.7937 25.1066 31.8002Z" fill="#5C6937"></path><path d="M39.7347 25.6392C34.3457 25.4642 28.9982 24.6367 23.8103 23.175C18.8174 21.9145 13.9866 20.0871 9.41312 17.7289C6.66413 16.2257 3.51062 14.0078 4.06372 11.9789C4.75716 9.37494 10.7752 9.51459 14.3002 9.80209L14.2177 10.7796C7.84463 10.2046 5.26073 11.1985 4.98831 12.2171C4.75716 13.0385 5.92115 14.7307 9.87542 16.891C14.3798 19.222 19.1386 21.03 24.0579 22.2796C36.028 25.4667 45.0263 25.2614 45.6124 23.101C45.8848 22.0742 44.1512 19.9221 38.356 17.2278L38.7688 16.4064C41.9718 17.8932 47.2387 20.7928 46.5452 23.3885C46.0994 24.9492 43.4578 25.6392 39.7347 25.6392Z" fill="#5C6937"></path></svg> 