<?xml version="1.0" encoding="UTF-8"?> <svg xmlns="http://www.w3.org/2000/svg" width="60" height="60" viewBox="0 0 60 60" fill="none"><g clip-path="url(#clip0_1019_5351)"><path d="M29.9049 19.363L29.9154 19.542C30.2518 25.252 34.8007 29.8107 40.51 30.1592V30.1592V30.1592C34.8007 30.5077 30.2518 35.0664 29.9154 40.7764L29.9049 40.9554L29.8944 40.7764C29.558 35.0664 25.0091 30.5077 19.2998 30.1592V30.1592V30.1592C25.0091 29.8107 29.558 25.252 29.8944 19.542L29.9049 19.363Z" fill="#FDF6F0"></path><circle cx="30.0001" cy="30.0636" r="12.6115" stroke="#FDF6F0"></circle><path d="M59.6175 30.1593C59.6175 30.1593 46.3571 46.1147 29.9997 46.1147C13.6422 46.1147 0.381836 30.1593 0.381836 30.1593C0.381836 30.1593 13.6422 14.2039 29.9997 14.2039C46.3571 14.2039 59.6175 30.1593 59.6175 30.1593Z" stroke="#FDF6F0"></path><path d="M60 23.8446C53.9571 18.2961 42.7841 10 30 10C17.2159 10 6.04292 18.2961 0 23.8446" stroke="#FDF6F0"></path><path d="M60 36.5605C53.9571 42.1089 42.7841 50.405 30 50.405C17.2159 50.405 6.04292 42.1089 0 36.5605" stroke="#FDF6F0"></path></g><defs><clipPath id="clip0_1019_5351"><rect width="60" height="60" fill="white"></rect></clipPath></defs></svg> 