<?xml version="1.0" encoding="UTF-8"?> <svg xmlns="http://www.w3.org/2000/svg" width="300" height="214" viewBox="0 0 300 214" fill="none"><g clip-path="url(#clip0_710_4886)"><path d="M446.117 259.193L445.014 255.078L442.002 258.09L446.117 259.193ZM279.531 93.1291L281.071 94.6691L281.593 94.1474L280.053 92.6073L279.531 93.1291ZM284.151 97.7492L287.231 100.829L287.753 100.308L284.673 97.2275L284.151 97.7492ZM290.311 103.909L293.392 106.989L293.913 106.468L290.833 103.388L290.311 103.909ZM296.472 110.07L299.552 113.15L300.073 112.628L296.993 109.548L296.472 110.07ZM302.632 116.23L305.712 119.31L306.234 118.788L303.154 115.708L302.632 116.23ZM308.792 122.39L311.872 125.47L312.394 124.948L309.314 121.868L308.792 122.39ZM314.952 128.55L318.032 131.63L318.554 131.108L315.474 128.028L314.952 128.55ZM321.112 134.71L324.192 137.79L324.714 137.269L321.634 134.189L321.112 134.71ZM327.272 140.87L330.353 143.951L330.874 143.429L327.794 140.349L327.272 140.87ZM333.433 147.031L336.513 150.111L337.034 149.589L333.954 146.509L333.433 147.031ZM339.593 153.191L342.673 156.271L343.195 155.749L340.115 152.669L339.593 153.191ZM345.753 159.351L348.833 162.431L349.355 161.909L346.275 158.829L345.753 159.351ZM351.913 165.511L354.993 168.591L355.515 168.069L352.435 164.989L351.913 165.511ZM358.073 171.671L361.153 174.751L361.675 174.23L358.595 171.15L358.073 171.671ZM364.234 177.832L367.314 180.912L367.835 180.39L364.755 177.31L364.234 177.832ZM370.394 183.992L373.474 187.072L373.996 186.55L370.915 183.47L370.394 183.992ZM376.554 190.152L379.634 193.232L380.156 192.71L377.076 189.63L376.554 190.152ZM382.714 196.312L385.794 199.392L386.316 198.87L383.236 195.79L382.714 196.312ZM388.874 202.472L391.954 205.552L392.476 205.031L389.396 201.95L388.874 202.472ZM395.034 208.632L398.114 211.712L398.636 211.191L395.556 208.111L395.034 208.632ZM401.195 214.793L404.275 217.873L404.796 217.351L401.716 214.271L401.195 214.793ZM407.355 220.953L410.435 224.033L410.957 223.511L407.876 220.431L407.355 220.953ZM413.515 227.113L416.595 230.193L417.117 229.671L414.037 226.591L413.515 227.113ZM419.675 233.273L422.755 236.353L423.277 235.831L420.197 232.751L419.675 233.273ZM425.835 239.433L428.915 242.513L429.437 241.992L426.357 238.911L425.835 239.433ZM431.995 245.593L435.075 248.673L435.597 248.152L432.517 245.072L431.995 245.593ZM438.156 251.754L441.236 254.834L441.757 254.312L438.677 251.232L438.156 251.754Z" fill="#B54B09"></path><path d="M-91.7426 210.088L24.6279 93.718" stroke="#B54B09" stroke-width="0.737881" stroke-dasharray="4.43 4.43"></path><path d="M282.347 94.853C265.35 77.8564 245.162 64.3846 222.934 55.2067C200.706 46.0288 176.875 41.3245 152.8 41.3625C128.725 41.4005 104.879 46.18 82.6221 55.4281C60.3654 64.6762 40.1344 78.2118 23.0841 95.2621" stroke="#B54B09" stroke-width="0.737881" stroke-dasharray="4.43 4.43"></path><ellipse cx="148.637" cy="40.5207" rx="18.8657" ry="19.2671" transform="rotate(45 148.637 40.5207)" fill="#F0803B"></ellipse><path d="M163.203 40.3805C163.402 40.4487 163.402 40.7312 163.203 40.7995L155.577 43.4024C155.451 43.4455 155.391 43.5897 155.45 43.7095L159.001 50.9421C159.095 51.1316 158.895 51.3314 158.705 51.2384L151.473 47.6868C151.353 47.628 151.209 47.6877 151.165 47.814L148.563 55.4396C148.494 55.6394 148.212 55.6394 148.144 55.4396L145.541 47.814C145.498 47.6877 145.353 47.628 145.234 47.6868L138.001 51.2384C137.811 51.3314 137.612 51.1316 137.705 50.9421L141.256 43.7095C141.315 43.5897 141.255 43.4455 141.129 43.4024L133.503 40.7995C133.304 40.7312 133.304 40.4487 133.503 40.3805L141.129 37.7775C141.255 37.7344 141.315 37.5902 141.256 37.4705L137.705 30.2378C137.612 30.0483 137.811 29.8485 138.001 29.9415L145.234 33.4931C145.353 33.5519 145.498 33.4922 145.541 33.3659L148.144 25.7403C148.212 25.5405 148.494 25.5405 148.563 25.7403L151.165 33.3659C151.209 33.4922 151.353 33.5519 151.473 33.4931L158.705 29.9415C158.895 29.8485 159.095 30.0483 159.001 30.2378L155.45 37.4705C155.391 37.5902 155.451 37.7344 155.577 37.7775L163.203 40.3805Z" fill="#B54B09"></path><path d="M71.1911 266.115C54.9007 241.119 73.7037 194.787 115.055 160.09C158.204 123.883 209.564 114.055 229.772 138.138C249.979 162.22 231.382 211.094 188.233 247.3C149.366 279.913 103.837 291.124 80.4146 275.427" stroke="#B54B09" stroke-width="0.737881"></path><ellipse cx="148.021" cy="185.691" rx="56.9224" ry="101.989" transform="rotate(50 148.021 185.691)" stroke="#B54B09" stroke-width="0.737881"></ellipse><path d="M192.573 145.843C191.155 144.577 189.708 143.324 188.233 142.086C145.084 105.879 93.7234 96.0512 73.5159 120.134C53.3083 144.216 71.9059 193.09 115.055 229.296C158.204 265.502 209.564 275.33 229.772 251.248C246.682 231.095 236.417 193.58 207.33 160.656" stroke="#B54B09" stroke-width="0.737881"></path><ellipse cx="56.9224" cy="101.989" rx="56.9224" ry="101.989" transform="matrix(0.642788 -0.766044 -0.766044 -0.642788 189.561 312.857)" stroke="#B54B09" stroke-width="0.737881"></ellipse><path d="M216.185 152.899L208.396 153.441C204.357 153.722 201.143 156.936 200.862 160.975L200.32 168.764L199.778 160.975C199.497 156.936 196.283 153.722 192.244 153.441L184.456 152.899L192.244 152.357C196.283 152.076 199.497 148.862 199.778 144.824L200.32 137.035L200.862 144.824C201.143 148.862 204.357 152.076 208.396 152.357L216.185 152.899Z" fill="#B54B09"></path></g><defs><clipPath id="clip0_710_4886"><rect width="300" height="214" fill="white"></rect></clipPath></defs></svg> 