<?xml version="1.0" encoding="UTF-8"?> <svg xmlns="http://www.w3.org/2000/svg" width="36" height="36" viewBox="0 0 36 36" fill="none"><path fill-rule="evenodd" clip-rule="evenodd" d="M18.0001 31.3334C10.6363 31.3334 4.66675 25.3639 4.66675 18.0001C4.66675 10.6363 10.6363 4.66675 18.0001 4.66675C25.3639 4.66675 31.3334 10.6363 31.3334 18.0001C31.3334 25.3639 25.3639 31.3334 18.0001 31.3334ZM22.4639 21.3752C22.4352 21.2746 22.3293 21.1832 22.1725 21.0479L22.1721 21.0476C22.1342 21.0149 22.0933 20.9795 22.0498 20.9409C21.8261 20.7425 20.7238 19.7775 20.5102 19.6278C20.2966 19.4782 20.1359 19.389 19.8945 19.6014C19.6531 19.8138 19.0022 20.2629 18.8054 20.3949C18.6086 20.5269 18.4521 20.5081 18.2286 20.3096C18.192 20.2772 18.1412 20.2369 18.0785 20.187C17.7571 19.9319 17.1232 19.4286 16.4952 18.4713C15.9109 17.5807 15.6192 16.5962 15.5378 16.2973C15.4565 15.9983 15.6285 15.8947 15.7923 15.8005C15.8903 15.7442 16.0081 15.6598 16.126 15.5754L16.126 15.5753C16.1852 15.533 16.2443 15.4907 16.3009 15.4519C16.445 15.3531 16.5186 15.2688 16.6186 15.1541L16.6186 15.154C16.6363 15.1338 16.6548 15.1126 16.6746 15.0903C16.8069 14.9409 16.8043 14.7786 16.7743 14.632C16.7543 14.5339 16.6689 13.8704 16.5917 13.2699L16.5917 13.2698C16.5535 12.9728 16.5172 12.6912 16.4919 12.501C16.4259 12.0068 16.238 11.9577 16.0873 11.9182L16.0872 11.9182C16.0672 11.913 16.0479 11.9079 16.0296 11.902C15.8811 11.8541 15.7092 11.8064 15.5371 11.7602C15.3649 11.7141 15.0678 11.7038 14.7618 11.8989C14.7422 11.9114 14.7204 11.925 14.6967 11.9397C14.3508 12.1546 13.5993 12.6216 13.2806 13.8112C12.9417 15.0758 13.5301 16.543 13.6179 16.762L13.6193 16.7654C13.6247 16.7789 13.634 16.8047 13.6474 16.8416C13.8378 17.3679 14.8452 20.1529 16.9862 21.8471C17.5311 22.2783 17.9695 22.5661 18.3127 22.7856C18.8787 23.148 19.4492 23.2712 19.9119 23.3238C20.428 23.3827 21.6073 23.1086 21.9842 22.563C22.361 22.0173 22.4996 21.5002 22.4639 21.3752Z" fill="#F0803B"></path></svg> 