<?xml version="1.0" encoding="UTF-8"?> <svg xmlns="http://www.w3.org/2000/svg" width="1396" height="300" viewBox="0 0 1396 300" fill="none"><g clip-path="url(#clip0_111_1131)"><path d="M15.207 300L15.207 142.916" stroke="#3C481A" stroke-dasharray="6 6"></path><path d="M1381.31 300L1381.31 142.916" stroke="#3C481A" stroke-dasharray="6 6"></path><path d="M1228.3 22.8926H136.301" stroke="#3C481A" stroke-dasharray="6 6"></path><path d="M14.9394 145.06C14.9394 129.008 18.1112 113.113 24.2735 98.2825C30.4359 83.4522 39.4682 69.977 50.8547 58.6263C62.2413 47.2757 75.7591 38.2718 90.6363 32.1289C105.514 25.9859 121.459 22.8242 137.562 22.8242" stroke="#3C481A" stroke-dasharray="6 6"></path><path d="M1381.58 145.06C1381.58 129.008 1378.41 113.113 1372.25 98.2825C1366.09 83.4522 1357.05 69.977 1345.67 58.6263C1334.28 47.2757 1320.76 38.2718 1305.89 32.1289C1291.01 25.9859 1275.06 22.8242 1258.96 22.8242" stroke="#3C481A" stroke-dasharray="6 6"></path><ellipse cx="21.1769" cy="21.4449" rx="21.1769" ry="21.4449" transform="matrix(-4.37114e-08 1 1 4.37114e-08 121.629 1.38086)" fill="#5C6937"></ellipse><ellipse cx="1253.45" cy="22.5577" rx="21.1769" ry="21.4449" transform="rotate(90 1253.45 22.5577)" fill="#5C6937"></ellipse><ellipse cx="8.39926" cy="8.57797" rx="8.39926" ry="8.57797" transform="matrix(-4.37114e-08 1 1 4.37114e-08 49.7871 43.7324)" fill="#5C6937"></ellipse><ellipse cx="1338.16" cy="52.1317" rx="8.39926" ry="8.57797" transform="rotate(90 1338.16 52.1317)" fill="#5C6937"></ellipse><path d="M125.916 22.8239L128.877 22.9508C136.649 23.284 142.877 29.5031 143.22 37.2745L143.34 39.9798L143.46 37.2745C143.803 29.5031 150.031 23.284 157.803 22.9508L160.764 22.8239L157.803 22.697C150.031 22.3638 143.803 16.1447 143.46 8.37332L143.34 5.66797L143.22 8.37332C142.877 16.1447 136.649 22.3638 128.877 22.697L125.916 22.8239Z" fill="#3C481A"></path><path d="M1270.6 22.8239L1267.64 22.9508C1259.87 23.284 1253.64 29.5031 1253.3 37.2745L1253.18 39.9798L1253.06 37.2745C1252.71 29.5031 1246.49 23.284 1238.71 22.9508L1235.75 22.8239L1238.71 22.697C1246.49 22.3638 1252.71 16.1447 1253.06 8.37332L1253.18 5.66797L1253.3 8.37332C1253.64 16.1447 1259.87 22.3638 1267.64 22.697L1270.6 22.8239Z" fill="#3C481A"></path><circle cx="3.75286" cy="3.75286" r="3.75286" transform="matrix(-4.37114e-08 1 1 4.37114e-08 54.6123 48.5586)" fill="#3C481A"></circle><circle cx="1338.15" cy="52.3115" r="3.75286" transform="rotate(90 1338.15 52.3115)" fill="#3C481A"></circle><ellipse cx="12.5989" cy="12.867" rx="12.5989" ry="12.867" transform="matrix(-4.37114e-08 1 1 4.37114e-08 2.07324 130.586)" fill="#5C6937"></ellipse><ellipse cx="1381.58" cy="143.185" rx="12.5989" ry="12.867" transform="rotate(90 1381.58 143.185)" fill="#5C6937"></ellipse><path d="M6.74175 147.586C6.55346 147.802 6.74495 148.133 7.02567 148.078L11.698 147.157C11.8754 147.122 12.0433 147.251 12.0554 147.431L12.3749 152.183C12.3941 152.468 12.764 152.567 12.9234 152.33L15.5759 148.374C15.6766 148.224 15.8863 148.196 16.0225 148.315L19.6083 151.449C19.8237 151.638 20.1554 151.446 20.1 151.166L19.1788 146.493C19.1439 146.316 19.2726 146.148 19.453 146.136L24.2046 145.816C24.4901 145.797 24.5892 145.427 24.3516 145.268L20.3964 142.615C20.2462 142.515 20.2186 142.305 20.3376 142.169L23.4715 138.583C23.6598 138.367 23.4683 138.036 23.1876 138.091L18.5152 139.012C18.3378 139.047 18.17 138.919 18.1579 138.738L17.8384 133.987C17.8192 133.701 17.4492 133.602 17.2899 133.84L14.6374 137.795C14.5367 137.945 14.327 137.973 14.1908 137.854L10.605 134.72C10.3896 134.531 10.0579 134.723 10.1132 135.004L11.0344 139.676C11.0694 139.853 10.9406 140.021 10.7602 140.033L6.00864 140.353C5.72316 140.372 5.62404 140.742 5.86167 140.901L9.8169 143.554C9.96708 143.655 9.99469 143.864 9.87569 144L6.74175 147.586Z" fill="#3C481A"></path><path d="M1389.78 147.584C1389.97 147.8 1389.77 148.131 1389.49 148.076L1384.82 147.155C1384.64 147.12 1384.48 147.249 1384.46 147.429L1384.14 152.181C1384.13 152.466 1383.76 152.565 1383.6 152.328L1380.94 148.372C1380.84 148.222 1380.63 148.195 1380.5 148.314L1376.91 151.447C1376.7 151.636 1376.36 151.444 1376.42 151.164L1377.34 146.491C1377.38 146.314 1377.25 146.146 1377.07 146.134L1372.31 145.814C1372.03 145.795 1371.93 145.425 1372.17 145.266L1376.12 142.613C1376.27 142.513 1376.3 142.303 1376.18 142.167L1373.05 138.581C1372.86 138.366 1373.05 138.034 1373.33 138.089L1378 139.01C1378.18 139.045 1378.35 138.917 1378.36 138.736L1378.68 133.985C1378.7 133.699 1379.07 133.6 1379.23 133.838L1381.88 137.793C1381.98 137.943 1382.19 137.971 1382.33 137.852L1385.91 134.718C1386.13 134.529 1386.46 134.721 1386.41 135.002L1385.49 139.674C1385.45 139.851 1385.58 140.019 1385.76 140.031L1390.51 140.351C1390.8 140.37 1390.9 140.74 1390.66 140.899L1386.7 143.552C1386.55 143.653 1386.52 143.862 1386.64 143.998L1389.78 147.584Z" fill="#3C481A"></path><mask id="mask0_111_1131" style="mask-type:alpha" maskUnits="userSpaceOnUse" x="77" y="76" width="133" height="133"><path d="M95.541 142.611L190.889 142.611" stroke="#FDF6F0"></path><path d="M77.3809 124.906L208.951 160.16" stroke="#FDF6F0"></path><path d="M101.899 118.773L184.473 166.448" stroke="#FDF6F0"></path><path d="M95.084 94.4824L191.4 190.799" stroke="#FDF6F0"></path><path d="M119.38 101.293L167.054 183.867" stroke="#FDF6F0"></path><path d="M125.509 76.7754L160.763 208.346" stroke="#FDF6F0"></path><path d="M143.215 94.9375L143.215 190.286" stroke="#FDF6F0"></path><path d="M160.695 76.7754L125.441 208.346" stroke="#FDF6F0"></path><path d="M167.052 101.293L119.378 183.867" stroke="#FDF6F0"></path><path d="M191.345 94.4824L95.0285 190.799" stroke="#FDF6F0"></path><path d="M184.533 118.773L101.959 166.448" stroke="#FDF6F0"></path><path d="M209.053 124.904L77.4823 160.158" stroke="#FDF6F0"></path></mask><g mask="url(#mask0_111_1131)"><path fill-rule="evenodd" clip-rule="evenodd" d="M211.921 142.304C211.921 180.421 181.022 211.32 142.906 211.32C104.79 211.32 73.8906 180.421 73.8906 142.304C73.8906 104.188 104.79 73.2891 142.906 73.2891C181.022 73.2891 211.921 104.188 211.921 142.304ZM172.552 142.67C172.552 158.739 159.415 171.766 143.21 171.766C127.004 171.766 113.867 158.739 113.867 142.67C113.867 126.601 127.004 113.574 143.21 113.574C159.415 113.574 172.552 126.601 172.552 142.67Z" fill="#3C481A"></path></g></g><defs><clipPath id="clip0_111_1131"><rect width="1396" height="300" fill="white"></rect></clipPath></defs></svg> 