<?xml version="1.0" encoding="UTF-8"?> <svg xmlns="http://www.w3.org/2000/svg" width="60" height="59" viewBox="0 0 60 59" fill="none"><path d="M35.494 16.0491L48.2717 8.22461L42.7849 22.1669L42.5549 22.7514L43.1761 22.8445L57.9939 25.0639L44.8288 32.2175L44.2769 32.5174L44.693 32.988L54.6174 44.2129L39.9342 41.2305L39.3186 41.1054L39.3348 41.7334L39.7222 56.7115L30.3912 44.9886L30 44.4971L29.6088 44.9886L20.2778 56.7115L20.6652 41.7334L20.6814 41.1054L20.0658 41.2305L5.38258 44.2129L15.307 32.988L15.7231 32.5174L15.1712 32.2175L2.0061 25.0639L16.8239 22.8445L17.4451 22.7514L17.2151 22.1669L11.7283 8.22461L24.506 16.0491L25.0417 16.3772L25.2412 15.7815L30 1.57425L34.7588 15.7815L34.9583 16.3772L35.494 16.0491Z" stroke="#FDF6F0"></path></svg> 