<?xml version="1.0" encoding="UTF-8"?> <svg xmlns="http://www.w3.org/2000/svg" width="365" height="36" viewBox="0 0 365 36" fill="none"><path d="M356 18L350.992 15.1274L351.008 20.9009L356 18ZM2.00141 19.5L4.95141 19.4917L4.94859 18.4917L1.99859 18.5L2.00141 19.5ZM10.8514 19.475L16.7514 19.4583L16.7486 18.4583L10.8486 18.475L10.8514 19.475ZM22.6514 19.4417L28.5514 19.425L28.5486 18.425L22.6486 18.4417L22.6514 19.4417ZM34.4514 19.4083L40.3514 19.3917L40.3486 18.3917L34.4486 18.4083L34.4514 19.4083ZM46.2514 19.375L52.1514 19.3583L52.1486 18.3583L46.2486 18.375L46.2514 19.375ZM58.0514 19.3417L63.9514 19.325L63.9486 18.325L58.0486 18.3417L58.0514 19.3417ZM69.8514 19.3083L75.7514 19.2917L75.7486 18.2917L69.8486 18.3083L69.8514 19.3083ZM81.6514 19.275L87.5514 19.2583L87.5486 18.2583L81.6486 18.275L81.6514 19.275ZM93.4514 19.2417L99.3514 19.225L99.3486 18.225L93.4486 18.2417L93.4514 19.2417ZM105.251 19.2083L111.151 19.1917L111.149 18.1917L105.249 18.2083L105.251 19.2083ZM117.051 19.175L122.951 19.1583L122.949 18.1583L117.049 18.175L117.051 19.175ZM128.851 19.1417L134.751 19.125L134.749 18.125L128.849 18.1417L128.851 19.1417ZM140.651 19.1083L146.551 19.0917L146.549 18.0917L140.649 18.1083L140.651 19.1083ZM152.451 19.075L158.351 19.0583L158.349 18.0583L152.449 18.075L152.451 19.075ZM164.251 19.0417L170.151 19.025L170.149 18.025L164.249 18.0417L164.251 19.0417ZM176.051 19.0083L181.951 18.9917L181.949 17.9917L176.049 18.0083L176.051 19.0083ZM187.851 18.975L193.751 18.9583L193.749 17.9583L187.849 17.975L187.851 18.975ZM199.651 18.9417L205.551 18.925L205.549 17.925L199.649 17.9417L199.651 18.9417ZM211.451 18.9083L217.351 18.8917L217.349 17.8917L211.449 17.9083L211.451 18.9083ZM223.251 18.875L229.151 18.8583L229.149 17.8583L223.249 17.875L223.251 18.875ZM235.051 18.8417L240.951 18.825L240.949 17.825L235.049 17.8417L235.051 18.8417ZM246.851 18.8083L252.751 18.7917L252.749 17.7917L246.849 17.8083L246.851 18.8083ZM258.651 18.775L264.551 18.7583L264.549 17.7583L258.649 17.775L258.651 18.775ZM270.451 18.7417L276.351 18.725L276.349 17.725L270.449 17.7417L270.451 18.7417ZM282.251 18.7083L288.151 18.6917L288.149 17.6917L282.249 17.7083L282.251 18.7083ZM294.051 18.675L299.951 18.6583L299.949 17.6583L294.049 17.675L294.051 18.675ZM305.851 18.6417L311.751 18.625L311.749 17.625L305.849 17.6417L305.851 18.6417ZM317.651 18.6083L323.551 18.5917L323.549 17.5917L317.649 17.6083L317.651 18.6083ZM329.451 18.575L335.351 18.5583L335.349 17.5583L329.449 17.575L329.451 18.575ZM341.251 18.5417L347.151 18.525L347.149 17.525L341.249 17.5417L341.251 18.5417Z" fill="#FDF6F0"></path><circle cx="103" cy="19" r="7" fill="#FDF6F0"></circle><path d="M363 18L347 2L347 34L363 18Z" fill="#FDF6F0"></path></svg> 