<?xml version="1.0" encoding="UTF-8"?> <svg xmlns="http://www.w3.org/2000/svg" width="1000" height="318" viewBox="0 0 1000 318" fill="none"><path fill-rule="evenodd" clip-rule="evenodd" d="M4 277C4 275.979 4.00637 274.959 4.01907 273.94L5.01899 273.953C5.00634 274.967 5 275.983 5 277V280.042H4V277ZM4 292.208V286.125H5V292.208H4ZM4 304.375V298.292H5V304.375H4ZM4 313.5V310.458H5V313.5H4ZM4.17093 267.848C4.24705 265.814 4.34845 263.786 4.47482 261.764L5.47287 261.827C5.34702 263.84 5.24604 265.859 5.17023 267.886L4.17093 267.848ZM4.93152 255.687C5.10958 253.659 5.3128 251.639 5.54087 249.626L6.53451 249.738C6.30739 251.743 6.10501 253.755 5.92769 255.774L4.93152 255.687ZM6.30362 243.579C6.58386 241.563 6.8891 239.555 7.21899 237.556L8.20565 237.719C7.87713 239.71 7.57317 241.709 7.29409 243.717L6.30362 243.579ZM8.28746 231.556C8.66968 229.558 9.07665 227.568 9.50802 225.587L10.4851 225.8C10.0555 227.772 9.65029 229.754 9.26966 231.744L8.28746 231.556ZM10.8805 219.65C11.364 217.673 11.872 215.707 12.404 213.75L13.369 214.012C12.8392 215.961 12.3333 217.919 11.8518 219.888L10.8805 219.65ZM14.0774 207.891C14.6611 205.942 15.2689 204.004 15.9004 202.076L16.8507 202.387C16.2218 204.307 15.6166 206.237 15.0353 208.178L14.0774 207.891ZM17.8704 196.311C18.5528 194.395 19.2588 192.489 19.9881 190.596L20.9213 190.955C20.1951 192.841 19.492 194.738 18.8124 196.647L17.8704 196.311ZM22.2495 184.94C23.0287 183.061 23.831 181.194 24.6562 179.339L25.5698 179.745C24.7481 181.592 23.9491 183.451 23.1732 185.323L22.2495 184.94ZM27.2025 173.806C28.0764 171.969 28.9728 170.145 29.8914 168.335L30.7832 168.787C29.8684 170.59 28.9757 172.407 28.1056 174.236L27.2025 173.806ZM32.7157 162.939C33.6817 161.149 34.6696 159.373 35.6792 157.611L36.5469 158.108C35.5415 159.863 34.5577 161.631 33.5958 163.414L32.7157 162.939ZM38.7737 152.365C39.829 150.627 40.9057 148.903 42.0034 147.194L42.8448 147.735C41.7516 149.437 40.6794 151.153 39.6285 152.884L38.7737 152.365ZM45.3601 142.111C46.5016 140.429 47.6639 138.763 48.8466 137.111L49.6596 137.694C48.4818 139.338 47.3243 140.998 46.1875 142.673L45.3601 142.111ZM52.4563 132.204C53.681 130.582 54.9258 128.976 56.1902 127.387L56.9728 128.009C55.7135 129.592 54.4739 131.191 53.2543 132.806L52.4563 132.204ZM60.0433 122.667C61.3479 121.109 62.6719 119.569 64.0148 118.045L64.765 118.706C63.4276 120.224 62.1091 121.758 60.8099 123.309L60.0433 122.667ZM68.101 113.525C69.4822 112.035 70.882 110.563 72.3001 109.109L73.016 109.807C71.6038 111.255 70.2098 112.721 68.8343 114.205L68.101 113.525ZM76.6087 104.8C78.063 103.382 79.5351 101.982 81.0247 100.601L81.7047 101.335C80.2212 102.71 78.7551 104.104 77.3069 105.516L76.6087 104.8ZM85.5448 96.515C87.0685 95.172 88.6093 93.8481 90.1669 92.5435L90.809 93.3101C89.2578 94.6093 87.7234 95.9278 86.206 97.2652L85.5448 96.515ZM94.8867 88.6904C96.4761 87.4259 98.0818 86.1812 99.7036 84.9565L100.306 85.7545C98.6912 86.9741 97.0921 88.2137 95.5093 89.4729L94.8867 88.6904ZM104.611 81.3468C106.262 80.1641 107.929 79.0018 109.611 77.8602L110.173 78.6877C108.498 79.8245 106.838 80.982 105.194 82.1597L104.611 81.3468ZM114.694 74.5036C116.403 73.4059 118.127 72.3292 119.865 71.2739L120.384 72.1286C118.653 73.1796 116.937 74.2518 115.235 75.345L114.694 74.5036ZM125.111 68.1794C126.873 67.1698 128.649 66.1819 130.439 65.2159L130.914 66.0959C129.131 67.0578 127.363 68.0417 125.608 69.0471L125.111 68.1794ZM135.834 62.3916C137.645 61.473 139.469 60.5765 141.306 59.7027L141.735 60.6057C139.906 61.4759 138.09 62.3686 136.287 63.2834L135.834 62.3916ZM146.839 57.1563C148.693 56.3312 150.56 55.5288 152.439 54.7496L152.823 55.6734C150.951 56.4493 149.092 57.2483 147.245 58.07L146.839 57.1563ZM158.095 52.4883C159.989 51.759 161.894 51.053 163.811 50.3705L164.146 51.3126C162.238 51.9922 160.341 52.6952 158.455 53.4215L158.095 52.4883ZM169.576 48.4005C171.503 47.769 173.442 47.1613 175.391 46.5775L175.678 47.5355C173.737 48.1168 171.807 48.722 169.887 49.3508L169.576 48.4005ZM181.25 44.9042C183.206 44.3721 185.173 43.8642 187.15 43.3806L187.387 44.352C185.419 44.8335 183.461 45.3393 181.512 45.8691L181.25 44.9042ZM193.087 42.0082C195.068 41.5768 197.057 41.1699 199.056 40.7876L199.244 41.7698C197.254 42.1505 195.272 42.5557 193.3 42.9853L193.087 42.0082ZM205.056 39.7192C207.055 39.3893 209.063 39.084 211.079 38.8038L211.217 39.7943C209.209 40.0733 207.21 40.3773 205.219 40.7058L205.056 39.7192ZM217.126 38.041C219.139 37.813 221.159 37.6098 223.187 37.4317L223.274 38.4279C221.255 38.6052 219.243 38.8076 217.238 39.0347L217.126 38.041ZM229.264 36.975C231.286 36.8486 233.314 36.7472 235.348 36.6711L235.386 37.6704C233.359 37.7462 231.34 37.8472 229.327 37.9731L229.264 36.975ZM241.44 36.5193C242.459 36.5066 243.479 36.5002 244.5 36.5002L247.471 36.5002V37.5002L244.5 37.5002C243.483 37.5002 242.467 37.5065 241.453 37.5192L241.44 36.5193ZM253.413 36.5002L259.355 36.5002V37.5002L253.413 37.5002V36.5002ZM265.296 36.5002L271.238 36.5002V37.5002L265.296 37.5002V36.5002ZM277.18 36.5002L283.122 36.5002V37.5002L277.18 37.5002V36.5002ZM289.064 36.5002L295.006 36.5002V37.5002L289.064 37.5002V36.5002ZM300.948 36.5002L306.889 36.5002V37.5002L300.948 37.5002V36.5002ZM312.831 36.5002L318.773 36.5002V37.5002L312.831 37.5002V36.5002ZM324.715 36.5002L330.657 36.5002V37.5002L324.715 37.5002V36.5002ZM336.599 36.5002L342.541 36.5002V37.5002L336.599 37.5002V36.5002ZM348.482 36.5002L354.424 36.5002V37.5002L348.482 37.5002V36.5002ZM360.366 36.5002L366.308 36.5001V37.5001L360.366 37.5002V36.5002ZM372.25 36.5001L378.192 36.5001V37.5001L372.25 37.5001V36.5001ZM384.134 36.5001L390.076 36.5001V37.5001L384.134 37.5001V36.5001ZM396.017 36.5001L401.959 36.5001V37.5001L396.017 37.5001V36.5001ZM407.901 36.5001L413.843 36.5001V37.5001L407.901 37.5001V36.5001ZM419.785 36.5001L425.727 36.5001V37.5001L419.785 37.5001V36.5001ZM431.669 36.5001L437.61 36.5001V37.5001L431.669 37.5001V36.5001ZM443.552 36.5001L449.494 36.5001V37.5001L443.552 37.5001V36.5001ZM455.436 36.5001L461.378 36.5001V37.5001L455.436 37.5001V36.5001ZM467.32 36.5001L473.262 36.5001V37.5001L467.32 37.5001V36.5001ZM479.203 36.5001L485.145 36.5001V37.5001L479.203 37.5001V36.5001ZM491.087 36.5001L497.029 36.5001V37.5001L491.087 37.5001V36.5001ZM502.971 36.5001L508.913 36.5001V37.5001L502.971 37.5001V36.5001ZM514.855 36.5001L520.797 36.5001V37.5001L514.855 37.5001V36.5001ZM526.738 36.5001L532.68 36.5001V37.5001L526.738 37.5001V36.5001ZM538.622 36.5001L544.564 36.5001V37.5001L538.622 37.5001V36.5001ZM550.506 36.5001L556.448 36.5001V37.5001L550.506 37.5001V36.5001ZM562.39 36.5001L568.331 36.5001V37.5001L562.39 37.5001V36.5001ZM574.273 36.5001L580.215 36.5001V37.5001L574.273 37.5001V36.5001ZM586.157 36.5001L592.099 36.5001V37.5001L586.157 37.5001V36.5001ZM681.227 36.5L687.169 36.5V37.5L681.227 37.5V36.5ZM693.111 36.5L699.052 36.5V37.5L693.111 37.5V36.5ZM704.994 36.5L710.936 36.5V37.5L704.994 37.5V36.5ZM716.878 36.5L722.82 36.5V37.5L716.878 37.5V36.5ZM728.762 36.5L734.704 36.5V37.5L728.762 37.5V36.5ZM740.646 36.5L746.587 36.5V37.5L740.646 37.5V36.5ZM752.529 36.5L755.5 36.5C756.521 36.5 757.541 36.5064 758.56 36.5191L758.547 37.519C757.533 37.5063 756.517 37.5 755.5 37.5L752.529 37.5V36.5ZM764.652 36.6709C766.686 36.747 768.715 36.8484 770.736 36.9748L770.673 37.9729C768.66 37.847 766.641 37.746 764.614 37.6702L764.652 36.6709ZM776.813 37.4315C778.841 37.6096 780.862 37.8128 782.874 38.0409L782.762 39.0345C780.757 38.8074 778.745 38.605 776.726 38.4277L776.813 37.4315ZM788.921 38.8036C790.937 39.0839 792.945 39.3891 794.944 39.719L794.781 40.7056C792.79 40.3771 790.791 40.0732 788.784 39.7941L788.921 38.8036ZM800.944 40.7874C802.943 41.1697 804.933 41.5766 806.913 42.008L806.701 42.9851C804.728 42.5555 802.746 42.1503 800.756 41.7696L800.944 40.7874ZM812.85 43.3804C814.827 43.864 816.794 44.3719 818.75 44.904L818.488 45.869C816.539 45.3391 814.581 44.8333 812.613 44.3518L812.85 43.3804ZM824.609 46.5773C826.558 47.1611 828.497 47.7688 830.424 48.4003L830.113 49.3507C828.193 48.7218 826.263 48.1166 824.322 47.5353L824.609 46.5773ZM836.189 50.3704C838.106 51.0528 840.011 51.7588 841.905 52.4881L841.545 53.4213C839.659 52.695 837.762 51.992 835.854 51.3124L836.189 50.3704ZM847.561 54.7494C849.44 55.5287 851.307 56.331 853.161 57.1561L852.755 58.0698C850.908 57.2481 849.049 56.4491 847.177 55.6732L847.561 54.7494ZM858.694 59.7025C860.531 60.5763 862.355 61.4728 864.166 62.3914L863.713 63.2832C861.91 62.3684 860.094 61.4757 858.265 60.6055L858.694 59.7025ZM869.561 65.2157C871.351 66.1817 873.127 67.1696 874.889 68.1792L874.392 69.0469C872.637 68.0415 870.869 67.0576 869.086 66.0957L869.561 65.2157ZM880.135 71.2737C881.873 72.3289 883.597 73.4057 885.306 74.5034L884.765 75.3448C883.063 74.2516 881.347 73.1794 879.616 72.1284L880.135 71.2737ZM890.389 77.86C892.071 79.0016 893.738 80.1639 895.389 81.3466L894.806 82.1595C893.162 80.9818 891.502 79.8243 889.827 78.6875L890.389 77.86ZM900.296 84.9563C901.918 86.181 903.524 87.4257 905.113 88.6902L904.491 89.4727C902.908 88.2135 901.309 86.9739 899.694 85.7543L900.296 84.9563ZM909.833 92.5432C911.391 93.8479 912.932 95.1718 914.455 96.5148L913.794 97.265C912.277 95.9276 910.742 94.6091 909.191 93.3099L909.833 92.5432ZM918.975 100.601C920.465 101.982 921.937 103.382 923.391 104.8L922.693 105.516C921.245 104.104 919.779 102.71 918.295 101.334L918.975 100.601ZM927.7 109.109C929.118 110.563 930.518 112.035 931.899 113.525L931.166 114.205C929.79 112.721 928.396 111.255 926.984 109.807L927.7 109.109ZM935.985 118.045C937.328 119.568 938.652 121.109 939.957 122.667L939.19 123.309C937.891 121.758 936.572 120.223 935.235 118.706L935.985 118.045ZM943.81 127.387C945.074 128.976 946.319 130.582 947.544 132.204L946.746 132.806C945.526 131.191 944.286 129.592 943.027 128.009L943.81 127.387ZM951.153 137.111C952.336 138.762 953.498 140.429 954.64 142.111L953.812 142.673C952.676 140.998 951.518 139.338 950.34 137.694L951.153 137.111ZM957.997 147.194C959.094 148.903 960.171 150.627 961.226 152.365L960.372 152.884C959.321 151.153 958.248 149.437 957.155 147.735L957.997 147.194ZM964.321 157.611C965.33 159.373 966.318 161.149 967.284 162.939L966.404 163.413C965.442 161.631 964.458 159.863 963.453 158.108L964.321 157.611ZM970.109 168.334C971.027 170.145 971.924 171.969 972.797 173.806L971.894 174.235C971.024 172.406 970.132 170.59 969.217 168.787L970.109 168.334ZM975.344 179.339C976.169 181.193 976.971 183.06 977.751 184.939L976.827 185.322C976.051 183.451 975.252 181.592 974.43 179.745L975.344 179.339ZM980.012 190.595C980.741 192.489 981.447 194.394 982.13 196.311L981.188 196.646C980.508 194.738 979.805 192.841 979.079 190.955L980.012 190.595ZM984.1 202.076C984.731 204.003 985.339 205.942 985.923 207.891L984.965 208.178C984.383 206.237 983.778 204.307 983.149 202.387L984.1 202.076ZM987.596 213.75C988.128 215.706 988.636 217.673 989.12 219.65L988.148 219.887C987.667 217.919 987.161 215.961 986.631 214.012L987.596 213.75ZM990.492 225.587C990.923 227.567 991.33 229.557 991.713 231.556L990.73 231.744C990.35 229.754 989.944 227.772 989.515 225.799L990.492 225.587ZM992.781 237.556C993.111 239.555 993.416 241.563 993.696 243.579L992.706 243.717C992.427 241.709 992.123 239.71 991.794 237.719L992.781 237.556ZM994.459 249.626C994.687 251.639 994.89 253.659 995.068 255.687L994.072 255.774C993.895 253.755 993.693 251.743 993.466 249.738L994.459 249.626ZM995.525 261.764C995.652 263.786 995.753 265.814 995.829 267.848L994.83 267.886C994.754 265.859 994.653 263.84 994.527 261.827L995.525 261.764ZM995.981 273.94C995.994 274.959 996 275.979 996 277V280.042H995V277C995 275.983 994.994 274.967 994.981 273.953L995.981 273.94ZM996 286.125V292.208H995V286.125H996ZM996 298.292V304.375H995V298.292H996ZM996 310.458V313.5H995V310.458H996Z" fill="#3C481A"></path><path d="M637.5 5L638.246 22.4085C638.579 30.1803 644.799 36.4078 652.57 36.7514L669.5 37.5L652.57 38.2486C644.799 38.5922 638.579 44.8197 638.246 52.5915L637.5 70L636.754 52.5915C636.421 44.8197 630.201 38.5922 622.43 38.2486L605.5 37.5L622.43 36.7514C630.201 36.4078 636.421 30.1803 636.754 22.4085L637.5 5Z" fill="#3C481A"></path></svg> 