<?xml version="1.0" encoding="UTF-8"?> <svg xmlns="http://www.w3.org/2000/svg" width="19" height="18" viewBox="0 0 19 18" fill="none"><path d="M14.75 5.5H4.75C4.34 5.5 4 5.16 4 4.75C4 4.34 4.34 4 4.75 4H14.75C15.16 4 15.5 4.34 15.5 4.75C15.5 5.16 15.16 5.5 14.75 5.5Z" fill="#5C6937"></path><path d="M14.75 10H4.75C4.34 10 4 9.66 4 9.25C4 8.84 4.34 8.5 4.75 8.5H14.75C15.16 8.5 15.5 8.84 15.5 9.25C15.5 9.66 15.16 10 14.75 10Z" fill="#5C6937"></path><path d="M14.75 14.5H4.75C4.34 14.5 4 14.16 4 13.75C4 13.34 4.34 13 4.75 13H14.75C15.16 13 15.5 13.34 15.5 13.75C15.5 14.16 15.16 14.5 14.75 14.5Z" fill="#5C6937"></path></svg> 