<?xml version="1.0" encoding="UTF-8"?> <svg xmlns="http://www.w3.org/2000/svg" width="107" height="40" viewBox="0 0 107 40" fill="none"><rect x="0.5" y="0.5" width="106" height="39" rx="6.5" fill="white"></rect><rect x="0.5" y="0.5" width="106" height="39" rx="6.5" stroke="black"></rect><path d="M40.186 25.4556C41.967 25.0015 43.1375 23.6393 43.1375 21.8567C43.1375 19.6536 41.3734 18.1063 38.8968 18.1063H34.4866V29.9627H36.522V25.607H37.9639L41.1189 29.9627H43.5106L40.186 25.4556ZM38.8968 19.9562C40.169 19.9562 41.051 20.7299 41.051 21.8567C41.051 22.9834 40.169 23.757 38.8968 23.757H36.522V19.9562H38.8968Z" fill="#222222"></path><path d="M48.0916 30.1308C49.1602 30.1308 50.1441 29.5759 50.7038 28.6509L51.094 29.9627H52.5527V21.2175H50.602V26.2796C50.602 27.5241 49.7709 28.3986 48.6344 28.3986C47.5149 28.3986 46.7346 27.5241 46.7346 26.2796V21.2175H44.7839V26.4982C44.7839 28.6005 46.2088 30.1308 48.0916 30.1308Z" fill="#222222"></path><path d="M58.7781 30.1309C61.0341 30.1309 62.9 28.8527 62.9 26.7337C62.9 24.3624 60.9493 23.6729 59.27 23.1011C57.9639 22.6639 56.8274 22.2603 56.8274 21.2007C56.8274 20.2757 57.6925 19.788 58.7103 19.788C59.7789 19.788 60.5422 20.343 60.9662 21.2848L62.9 20.9653C62.2893 19.1153 60.7457 17.9381 58.6424 17.9381C56.4712 17.9381 54.7411 19.1826 54.7411 21.3016C54.7411 23.6897 56.6917 24.3456 58.371 24.9006C59.6601 25.321 60.8136 25.7247 60.8136 26.801C60.8136 27.7427 59.9485 28.2809 58.7951 28.2809C57.472 28.2809 56.7595 27.6587 56.132 26.5319L54.1643 26.8683C54.7411 28.8696 56.5729 30.1309 58.7781 30.1309Z" fill="#222222"></path><path d="M68.2067 28.281C67.5451 28.281 67.2229 27.9614 67.2229 27.3056V22.8994H69.8519V21.2176H67.2229V18.6949H65.7641L65.2721 21.2176H63.8303V22.8994H65.2721V27.3056C65.2721 29.0209 66.2729 29.9627 68.2067 29.9627H69.8519L70.0217 28.281H68.2067Z" fill="#222222"></path><path d="M75.5958 30.1309C78.3606 30.1309 80.3114 28.2473 80.3114 25.5902C80.3114 22.933 78.3606 21.0494 75.5958 21.0494C72.8309 21.0494 70.8801 22.933 70.8801 25.5902C70.8801 28.2473 72.8309 30.1309 75.5958 30.1309ZM75.5958 28.3651C74.0017 28.3651 72.9159 27.2383 72.9159 25.5902C72.9159 23.9421 74.0017 22.8153 75.5958 22.8153C77.1905 22.8153 78.2757 23.9421 78.2757 25.5902C78.2757 27.2383 77.1905 28.3651 75.5958 28.3651Z" fill="#222222"></path><path d="M83.9584 29.9627V24.7997C83.9584 23.6897 84.5013 23.0675 85.6884 23.0675H86.8081L86.6383 21.2175H86.2652C85.2304 21.2175 84.4333 21.5034 83.8395 22.4788L83.4664 21.2175H82.0076V29.9627H83.9584Z" fill="#222222"></path><path d="M96.4065 25.4892C96.4065 22.9666 94.5066 21.0494 91.8261 21.0494C89.1462 21.0494 87.2463 22.9498 87.2463 25.5902C87.2463 28.2306 89.1462 30.1309 91.8261 30.1309C93.658 30.1309 95.3886 29.2732 96.0498 27.6083L94.2179 27.3056C93.7939 27.9278 92.9798 28.3651 91.945 28.3651C90.4522 28.3651 89.4683 27.4569 89.2821 26.1115H96.3725C96.3895 25.9265 96.4065 25.7247 96.4065 25.4892ZM91.8261 22.7312C93.0478 22.7312 93.9637 23.5048 94.2858 24.5979H89.401C89.7231 23.4711 90.639 22.7312 91.8261 22.7312Z" fill="#222222"></path><path d="M36.1577 11.1495C36.1138 11.8702 36.0259 12.358 35.7227 12.714V12.7491H38.623V8.10852H36.3511L36.1577 11.1495ZM35.0283 13.6017V14.8541H34.123V12.7491H34.5845C35.0371 12.4855 35.1953 11.9449 35.2437 11.1056L35.4766 7.26038H39.6074V12.7491H40.3984V14.8541H39.4976V13.6017H35.0283ZM43.1362 13.6896C41.8135 13.6896 40.9434 12.7799 40.9434 11.2902C40.9434 9.80481 41.8179 8.89514 43.1362 8.89514C44.4546 8.89514 45.3291 9.80481 45.3291 11.2902C45.3291 12.7799 44.459 13.6896 43.1362 13.6896ZM43.1362 12.9073C43.8833 12.9073 44.3623 12.3185 44.3623 11.2902C44.3623 10.2662 43.8789 9.67737 43.1362 9.67737C42.3936 9.67737 41.9102 10.2662 41.9102 11.2902C41.9102 12.3185 42.3936 12.9073 43.1362 12.9073ZM50.0928 10.4596H49.1787C49.0557 10.0333 48.7041 9.68616 48.1152 9.68616C47.3813 9.68616 46.9023 10.3146 46.9023 11.2902C46.9023 12.2921 47.3857 12.8942 48.124 12.8942C48.6865 12.8942 49.0557 12.6129 49.1875 12.1295H50.1016C49.9653 13.0568 49.2051 13.6896 48.1152 13.6896C46.7925 13.6896 45.9399 12.7711 45.9399 11.2902C45.9399 9.83997 46.7925 8.89514 48.1064 8.89514C49.249 8.89514 49.9609 9.60706 50.0928 10.4596ZM54.2852 8.97864V9.7301H52.835V13.6017H51.8901V9.7301H50.4399V8.97864H54.2852ZM55.4409 15.3243C55.3662 15.3243 55.1245 15.3156 55.0542 15.3024V14.5333C55.1245 14.5509 55.2827 14.5509 55.3618 14.5509C55.8057 14.5509 56.0386 14.3663 56.1836 13.8917C56.1836 13.8829 56.2671 13.6105 56.2671 13.6061L54.5972 8.97864H55.6255L56.7988 12.7404H56.812L57.9854 8.97864H58.9873L57.2515 13.8434C56.856 14.964 56.4033 15.3243 55.4409 15.3243ZM62.6128 13.6017V9.7301H60.5649V13.6017H59.6201V8.97864H63.562V13.6017H62.6128ZM67.6226 13.6017V11.589H65.5308V13.6017H64.5859V8.97864H65.5308V10.8419H67.6226V8.97864H68.5674V13.6017H67.6226ZM71.5864 13.6896C70.2637 13.6896 69.3936 12.7799 69.3936 11.2902C69.3936 9.80481 70.2681 8.89514 71.5864 8.89514C72.9048 8.89514 73.7793 9.80481 73.7793 11.2902C73.7793 12.7799 72.9092 13.6896 71.5864 13.6896ZM71.5864 12.9073C72.3335 12.9073 72.8125 12.3185 72.8125 11.2902C72.8125 10.2662 72.3291 9.67737 71.5864 9.67737C70.8438 9.67737 70.3604 10.2662 70.3604 11.2902C70.3604 12.3185 70.8438 12.9073 71.5864 12.9073ZM78.332 9.66858H77.3608V10.8815H78.2397C78.7759 10.8815 79.0439 10.6749 79.0439 10.2662C79.0439 9.88391 78.7935 9.66858 78.332 9.66858ZM78.3013 11.545H77.3608V12.9117H78.4067C78.9429 12.9117 79.2329 12.6744 79.2329 12.2306C79.2329 11.7736 78.9253 11.545 78.3013 11.545ZM76.4248 13.6017V8.97864H78.5254C79.4263 8.97864 79.9712 9.42688 79.9712 10.1564C79.9712 10.6354 79.6284 11.0704 79.1846 11.1539V11.1891C79.7822 11.2682 80.1777 11.6901 80.1777 12.2701C80.1777 13.0831 79.5537 13.6017 78.5518 13.6017H76.4248Z" fill="black"></path><path d="M20.5614 23.4905C19.7526 23.2884 19.1854 22.5649 19.1854 21.735V11.9582C19.1854 11.0156 20.0761 10.3243 20.9948 10.5538L26.813 12.0072C27.6218 12.2093 28.189 12.9328 28.189 13.7627V23.5395C28.189 24.4821 27.2982 25.1734 26.3796 24.9439L20.5614 23.4905Z" fill="black"></path><path d="M9.60954 27.9928C8.80067 27.7907 8.23352 27.0672 8.23352 26.2373V16.4605C8.23352 15.5179 9.1242 14.8266 10.0429 15.0561L15.861 16.5095C16.6699 16.7116 17.2371 17.4351 17.2371 18.265V28.0418C17.2371 28.9844 16.3464 29.6757 15.4276 29.4462L9.60954 27.9928Z" fill="black"></path><path d="M15.0855 25.7418C14.2766 25.5398 13.7095 24.8163 13.7095 23.9864V14.2096C13.7095 13.267 14.6001 12.5757 15.5189 12.8052L21.3369 14.2586C22.1458 14.4606 22.713 15.1842 22.713 16.014V25.7909C22.713 26.7335 21.8223 27.4247 20.9036 27.1952L15.0855 25.7418Z" fill="black"></path><path d="M18.8923 26.6956C18.6375 26.6307 18.4561 26.4053 18.4472 26.1426L18.1941 18.6761C18.1209 17.6879 17.3873 16.9019 16.6208 16.6705C16.5777 16.6575 16.5318 16.675 16.5064 16.7121C16.4804 16.7497 16.4904 16.8018 16.5265 16.8297C16.7158 16.9763 17.2368 17.4544 17.2368 18.2793L17.2353 26.2757L18.8923 26.6956Z" fill="white"></path><path d="M24.3683 24.4424C24.1138 24.3787 23.9323 24.1541 23.9233 23.8919L23.6702 16.4259C23.597 15.4376 22.8634 14.6517 22.0968 14.4202C22.0538 14.4073 22.0079 14.4248 21.9824 14.4619C21.9565 14.4995 21.9665 14.5515 22.0026 14.5795C22.1919 14.726 22.713 15.2042 22.713 16.029L22.7114 24.0281L24.3683 24.4424Z" fill="white"></path></svg> 