<?xml version="1.0" encoding="UTF-8"?> <svg xmlns="http://www.w3.org/2000/svg" width="364" height="36" viewBox="0 0 364 36" fill="none"><path d="M361.5 18L345.5 2L345.5 34L361.5 18Z" fill="#FDF6F0"></path><path fill-rule="evenodd" clip-rule="evenodd" d="M2 19L4.99583 19L4.99583 18L2 18V19ZM10.9875 19L16.9792 19L16.9792 18L10.9875 18V19ZM22.9708 19H28.9625V18L22.9708 18V19ZM34.9542 19L40.9458 19V18L34.9542 18V19ZM46.9375 19L52.9292 19V18L46.9375 18V19ZM58.9208 19L64.9125 19V18L58.9208 18V19ZM70.9042 19L76.8959 19V18L70.9042 18V19ZM82.8875 19L88.8792 19V18L82.8875 18V19ZM142.804 19L148.796 19V18L142.804 18V19ZM154.788 19L160.779 19V18L154.788 18V19ZM166.771 19L172.763 19V18L166.771 18V19ZM178.754 19L184.746 19V18L178.754 18V19ZM190.738 19L196.729 19V18L190.738 18V19ZM202.721 19H208.713V18L202.721 18V19ZM214.704 19L220.696 19V18H214.704V19ZM226.688 19L232.679 19V18L226.688 18V19ZM238.671 19L244.663 19V18L238.671 18V19ZM250.654 19L256.646 19V18L250.654 18V19ZM262.638 19L268.629 19V18L262.638 18V19ZM274.621 19L280.613 19V18L274.621 18V19ZM286.604 19L292.596 19V18L286.604 18V19ZM298.588 19L304.579 19V18L298.588 18V19ZM310.571 19L316.563 19V18L310.571 18V19ZM322.554 19L328.546 19V18L322.554 18V19ZM334.538 19L340.529 19V18L334.538 18V19ZM346.521 19L352.513 19V18L346.521 18V19ZM361.5 18.5L356.5 15.6133V21.3868L361.5 18.5Z" fill="#FDF6F0"></path><path d="M116.525 2.9675C116.618 2.69672 117.001 2.69672 117.093 2.9675L119.726 10.6814C119.785 10.8526 119.98 10.9335 120.142 10.8538L127.459 7.26111C127.716 7.13499 127.987 7.40579 127.86 7.66262L124.268 14.9791C124.188 15.1414 124.269 15.3368 124.44 15.3952L132.154 18.0283C132.425 18.1207 132.425 18.5037 132.154 18.5961L124.44 21.2292C124.269 21.2876 124.188 21.4831 124.268 21.6454L127.86 28.9618C127.987 29.2186 127.716 29.4894 127.459 29.3633L120.142 25.7706C119.98 25.6909 119.785 25.7719 119.726 25.943L117.093 33.6569C117.001 33.9277 116.618 33.9277 116.525 33.6569L113.892 25.943C113.834 25.7719 113.638 25.6909 113.476 25.7706L106.16 29.3633C105.903 29.4894 105.632 29.2186 105.758 28.9618L109.351 21.6454C109.431 21.4831 109.35 21.2876 109.178 21.2292L101.465 18.5961C101.194 18.5037 101.194 18.1207 101.465 18.0283L109.178 15.3952C109.35 15.3368 109.431 15.1414 109.351 14.9791L105.758 7.66262C105.632 7.40579 105.903 7.13499 106.16 7.26111L113.476 10.8538C113.638 10.9335 113.834 10.8526 113.892 10.6814L116.525 2.9675Z" stroke="#FDF6F0"></path></svg> 