<?xml version="1.0" encoding="UTF-8"?> <svg xmlns="http://www.w3.org/2000/svg" width="120" height="388" viewBox="0 0 120 388" fill="none"><g clip-path="url(#clip0_3001_7091)"><g clip-path="url(#clip1_3001_7091)"><path d="M-2.89348 -214.613L2.68329 -213.119L-1.39919 -209.036L-2.89348 -214.613ZM222.515 10.7952L222.161 11.1487L220.074 9.06161L220.428 8.70805L220.781 8.3545L222.868 10.4416L222.515 10.7952ZM216.254 4.53382L215.9 4.88738L211.726 0.713149L212.079 0.359595L212.433 0.00604204L216.607 4.18027L216.254 4.53382ZM207.905 -3.81463L207.552 -3.46108L203.377 -7.63531L203.731 -7.98886L204.084 -8.34242L208.259 -4.16819L207.905 -3.81463ZM199.557 -12.1631L199.203 -11.8095L195.029 -15.9838L195.382 -16.3373L195.736 -16.6909L199.91 -12.5166L199.557 -12.1631ZM191.208 -20.5115L190.855 -20.158L186.68 -24.3322L187.034 -24.6858L187.387 -25.0393L191.562 -20.8651L191.208 -20.5115ZM182.86 -28.86L182.506 -28.5065L178.332 -32.6807L178.685 -33.0342L179.039 -33.3878L183.213 -29.2136L182.86 -28.86ZM174.511 -37.2085L174.158 -36.8549L169.983 -41.0291L170.337 -41.3827L170.691 -41.7362L174.865 -37.562L174.511 -37.2085ZM166.163 -45.5569L165.809 -45.2034L161.635 -49.3776L161.989 -49.7311L162.342 -50.0847L166.516 -45.9105L166.163 -45.5569ZM157.814 -53.9054L157.461 -53.5518L153.287 -57.7261L153.64 -58.0796L153.994 -58.4332L158.168 -54.2589L157.814 -53.9054ZM149.466 -62.2538L149.112 -61.9003L144.938 -66.0745L145.292 -66.4281L145.645 -66.7816L149.819 -62.6074L149.466 -62.2538ZM141.117 -70.6023L140.764 -70.2487L136.59 -74.423L136.943 -74.7765L137.297 -75.1301L141.471 -70.9558L141.117 -70.6023ZM132.769 -78.9508L132.415 -78.5972L128.241 -82.7714L128.595 -83.125L128.948 -83.4785L133.123 -79.3043L132.769 -78.9508ZM124.421 -87.2992L124.067 -86.9456L119.893 -91.1199L120.246 -91.4734L120.6 -91.827L124.774 -87.6527L124.421 -87.2992ZM116.072 -95.6476L115.719 -95.2941L111.544 -99.4683L111.898 -99.8219L112.251 -100.175L116.426 -96.0012L116.072 -95.6476ZM107.724 -103.996L107.37 -103.643L103.196 -107.817L103.549 -108.17L103.903 -108.524L108.077 -104.35L107.724 -103.996ZM99.3752 -112.345L99.0216 -111.991L94.8474 -116.165L95.2009 -116.519L95.5545 -116.872L99.7287 -112.698L99.3752 -112.345ZM91.0267 -120.693L90.6732 -120.339L86.499 -124.514L86.8525 -124.867L87.2061 -125.221L91.3803 -121.047L91.0267 -120.693ZM82.6783 -129.041L82.3247 -128.688L78.1505 -132.862L78.5041 -133.216L78.8576 -133.569L83.0318 -129.395L82.6783 -129.041ZM74.3298 -137.39L73.9763 -137.036L69.8021 -141.211L70.1556 -141.564L70.5092 -141.918L74.6834 -137.743L74.3298 -137.39ZM65.9814 -145.738L65.6278 -145.385L61.4536 -149.559L61.8072 -149.913L62.1607 -150.266L66.3349 -146.092L65.9814 -145.738ZM57.6329 -154.087L57.2794 -153.733L53.1052 -157.907L53.4587 -158.261L53.8123 -158.615L57.9865 -154.44L57.6329 -154.087ZM49.2845 -162.435L48.9309 -162.082L44.7567 -166.256L45.1103 -166.609L45.4638 -166.963L49.638 -162.789L49.2845 -162.435ZM40.936 -170.784L40.5825 -170.43L36.4082 -174.604L36.7618 -174.958L37.1153 -175.311L41.2896 -171.137L40.936 -170.784ZM32.5876 -179.132L32.234 -178.779L28.0598 -182.953L28.4133 -183.306L28.7669 -183.66L32.9411 -179.486L32.5876 -179.132ZM24.2391 -187.481L23.8855 -187.127L19.7113 -191.301L20.0649 -191.655L20.4184 -192.008L24.5926 -187.834L24.2391 -187.481ZM15.8906 -195.829L15.5371 -195.476L11.3628 -199.65L11.7164 -200.003L12.0699 -200.357L16.2442 -196.183L15.8906 -195.829ZM7.54215 -204.178L7.18859 -203.824L3.01438 -207.998L3.36793 -208.352L3.72149 -208.705L7.8957 -204.531L7.54215 -204.178Z" fill="#465128"></path><path d="M63.6519 514.31L221.361 356.601" stroke="#465128" stroke-dasharray="6 6"></path><path d="M219.822 7.33324C242.857 30.3675 261.114 57.7275 273.552 87.8511C285.99 117.975 292.366 150.272 292.314 182.899C292.263 215.526 285.785 247.843 273.252 278.006C260.719 308.169 242.375 335.587 219.268 358.694" stroke="#465128" stroke-dasharray="6 6"></path><mask id="mask0_3001_7091" style="mask-type:alpha" maskUnits="userSpaceOnUse" x="-100" y="56" width="278" height="278"><path d="M107.678 126.509L-29.1421 263.329" stroke="#FDF6F0"></path><path d="M159.146 125.856L-80.2392 264.066" stroke="#FDF6F0"></path><path d="M132.765 169.838L-54.1351 219.918" stroke="#FDF6F0"></path><path d="M177.4 194.917H-99.0191" stroke="#FDF6F0"></path><path d="M132.763 220.005L-54.1373 169.926" stroke="#FDF6F0"></path><path d="M159.149 263.983L-80.2369 125.774" stroke="#FDF6F0"></path><path d="M107.678 263.329L-29.1421 126.508" stroke="#FDF6F0"></path><path d="M108.658 314.474L-29.5511 75.0882" stroke="#FDF6F0"></path><path d="M64.353 288.415L14.2734 101.515" stroke="#FDF6F0"></path><path d="M39.2705 333.046L39.2706 56.6272" stroke="#FDF6F0"></path><path d="M14.188 288.415L64.2677 101.515" stroke="#FDF6F0"></path><path d="M-29.7983 314.801L108.411 75.4157" stroke="#FDF6F0"></path></mask><g mask="url(#mask0_3001_7091)"><path d="M139.183 95.8831C84.4879 41.1883 -4.19028 41.1878 -58.8852 95.8824C-113.58 150.577 -113.58 239.256 -58.8852 293.951C-4.19028 348.646 84.4879 348.645 139.183 293.95C193.877 239.256 193.877 150.578 139.183 95.8831ZM81.2911 152.724C104.35 175.782 104.191 213.325 80.9375 236.579C57.6835 259.833 20.1398 259.992 -2.91884 236.934C-25.9775 213.875 -25.8186 176.331 -2.56459 153.077C20.6894 129.823 58.2326 129.665 81.2911 152.724Z" fill="#465128"></path></g></g></g><defs><clipPath id="clip0_3001_7091"><rect width="120" height="388" fill="white" transform="matrix(-1 0 0 1 120 0)"></rect></clipPath><clipPath id="clip1_3001_7091"><rect width="780.082" height="780.082" fill="white" transform="matrix(-1 0 0 1 446 -235)"></rect></clipPath></defs></svg> 