<?xml version="1.0" encoding="UTF-8"?> <svg xmlns="http://www.w3.org/2000/svg" width="557" height="768" viewBox="0 0 557 768" fill="none"><path d="M557 26.5002L552 23.6134L552 29.3869L557 26.5002ZM264 27.0002L267.052 27.0002V26.0002L264 26.0002V27.0002ZM273.156 27.0002L279.26 27.0002V26.0002L273.156 26.0002V27.0002ZM285.365 27.0002L291.469 27.0002V26.0002L285.365 26.0002V27.0002ZM297.573 27.0002L303.677 27.0002V26.0002L297.573 26.0002V27.0002ZM309.781 27.0002L315.885 27.0002V26.0002L309.781 26.0002V27.0002ZM321.99 27.0002L328.094 27.0002V26.0002L321.99 26.0002V27.0002ZM334.198 27.0002L340.302 27.0002L340.302 26.0002L334.198 26.0002V27.0002ZM346.406 27.0002L352.51 27.0002V26.0002L346.406 26.0002V27.0002ZM358.615 27.0002L364.719 27.0002L364.719 26.0002L358.615 26.0002V27.0002ZM370.823 27.0002L376.927 27.0002V26.0002L370.823 26.0002V27.0002ZM383.031 27.0002L389.135 27.0002V26.0002L383.031 26.0002V27.0002ZM395.24 27.0002L401.344 27.0002V26.0002L395.24 26.0002V27.0002ZM407.448 27.0002L413.552 27.0002V26.0002L407.448 26.0002V27.0002ZM419.656 27.0002L425.76 27.0002V26.0002L419.656 26.0002L419.656 27.0002ZM431.865 27.0002L437.969 27.0002V26.0002L431.865 26.0002V27.0002ZM444.073 27.0002L450.177 27.0002V26.0002L444.073 26.0002V27.0002ZM456.281 27.0002L462.385 27.0002V26.0002L456.281 26.0002V27.0002ZM468.49 27.0002L474.594 27.0002V26.0002L468.49 26.0002V27.0002ZM480.698 27.0002L486.802 27.0002V26.0002L480.698 26.0002L480.698 27.0002ZM492.906 27.0002L499.01 27.0002V26.0002L492.906 26.0002V27.0002ZM505.115 27.0002L511.219 27.0002V26.0002L505.115 26.0002V27.0002ZM517.323 27.0002L523.427 27.0002V26.0002L517.323 26.0002V27.0002ZM529.531 27.0002L535.635 27.0002L535.635 26.0002L529.531 26.0002V27.0002ZM541.74 27.0002L547.844 27.0002L547.844 26.0002L541.74 26.0002L541.74 27.0002Z" fill="#FDF6F0"></path><path d="M557 26L541 10L541 42L557 26Z" fill="#FDF6F0"></path><path d="M40 457V252" stroke="#3C481A" stroke-dasharray="6 6"></path><path d="M40 767.5L40 487.5" stroke="#3C481A" stroke-dasharray="6 6"></path><ellipse cx="40" cy="457" rx="29" ry="29" transform="rotate(-90 40 457)" fill="#5C6937"></ellipse><path d="M49.2815 441.209C49.497 441.021 49.8286 441.213 49.7733 441.493L47.8509 451.244C47.816 451.421 47.9447 451.589 48.1251 451.601L58.041 452.268C58.3265 452.287 58.4256 452.657 58.188 452.816L49.934 458.352C49.7838 458.453 49.7562 458.662 49.8752 458.798L56.4153 466.282C56.6036 466.497 56.4121 466.829 56.1314 466.773L46.3808 464.851C46.2034 464.816 46.0356 464.945 46.0234 465.125L45.3566 475.041C45.3374 475.326 44.9675 475.426 44.8082 475.188L39.2728 466.934C39.1721 466.784 38.9623 466.756 38.8262 466.875L31.3431 473.415C31.1277 473.604 30.796 473.412 30.8514 473.131L32.7737 463.381C32.8087 463.203 32.6799 463.036 32.4995 463.023L22.5836 462.357C22.2981 462.337 22.199 461.968 22.4367 461.808L30.6907 456.273C30.8409 456.172 30.8685 455.962 30.7495 455.826L24.2094 448.343C24.0211 448.128 24.2126 447.796 24.4933 447.851L34.2439 449.774C34.4213 449.809 34.5891 449.68 34.6012 449.499L35.268 439.584C35.2872 439.298 35.6571 439.199 35.8165 439.437L41.3519 447.691C41.4526 447.841 41.6623 447.868 41.7985 447.749L49.2815 441.209Z" stroke="#3C481A"></path><path d="M268 26C238.059 26 208.41 31.916 180.748 43.4103C153.086 54.9046 127.951 71.7521 106.78 92.9908C85.6079 114.229 68.8135 139.443 57.3555 167.193C45.8974 194.943 40 224.685 40 254.721" stroke="#FDF6F0"></path><ellipse cx="39.5" cy="265" rx="39.5" ry="40" fill="#5C6937"></ellipse><ellipse cx="94.6667" cy="107" rx="15.6667" ry="16" fill="#5C6937"></ellipse><path d="M40 233L40.7462 250.408C41.0794 258.18 47.2985 264.408 55.0699 264.751L72 265.5L55.0699 266.249C47.2985 266.592 41.0794 272.82 40.7462 280.592L40 298L39.2538 280.592C38.9206 272.82 32.7015 266.592 24.9301 266.249L8 265.5L24.9301 264.751C32.7015 264.408 38.9206 258.18 39.2538 250.408L40 233Z" fill="#FDF6F0"></path><circle cx="95" cy="107" r="7" fill="#FDF6F0"></circle><ellipse cx="264.5" cy="26" rx="23.5" ry="24" fill="#5C6937"></ellipse><path d="M273.282 10.2093C273.497 10.021 273.829 10.2125 273.773 10.4933L271.851 20.2438C271.816 20.4213 271.945 20.5891 272.125 20.6012L282.041 21.268C282.327 21.2872 282.426 21.6571 282.188 21.8165L273.934 27.3519C273.784 27.4526 273.756 27.6623 273.875 27.7984L280.415 35.2815C280.604 35.497 280.412 35.8286 280.131 35.7733L270.381 33.8509C270.203 33.8159 270.036 33.9447 270.023 34.1251L269.357 44.041C269.337 44.3265 268.968 44.4256 268.808 44.188L263.273 35.934C263.172 35.7838 262.962 35.7562 262.826 35.8752L255.343 42.4153C255.128 42.6036 254.796 42.4121 254.851 42.1313L256.774 32.3808C256.809 32.2033 256.68 32.0355 256.5 32.0234L246.584 31.3566C246.298 31.3374 246.199 30.9675 246.437 30.8081L254.691 25.2727C254.841 25.172 254.868 24.9623 254.749 24.8262L248.209 17.3431C248.021 17.1276 248.213 16.796 248.493 16.8513L258.244 18.7737C258.421 18.8087 258.589 18.6799 258.601 18.4995L259.268 8.58359C259.287 8.29812 259.657 8.199 259.816 8.43663L265.352 16.6907C265.453 16.8408 265.662 16.8684 265.798 16.7494L273.282 10.2093Z" fill="#FDF6F0"></path></svg> 