<?xml version="1.0" encoding="UTF-8"?> <svg xmlns="http://www.w3.org/2000/svg" width="200" height="133" viewBox="0 0 200 133" fill="none"><path d="M161.003 48.8228C172.145 48.8228 181.43 53.1252 188.858 61.73C196.286 70.3347 200 80.0619 200 90.9114C200 103.632 195.543 113.92 186.63 121.776C177.716 129.259 168.245 133 158.217 133C148.189 133 138.347 128.698 128.691 120.093C119.406 111.114 114.763 99.5162 114.763 85.2996C114.763 63.2264 121.82 44.1463 135.933 28.0591C150.046 11.5977 164.531 2.24473 179.387 0L183.844 8.9789C175.302 12.346 165.46 18.8931 154.318 28.6203C143.547 38.3474 137.79 47.8875 137.047 57.2405C146.332 51.6287 154.318 48.8228 161.003 48.8228ZM46.2396 48.8228C57.3816 48.8228 66.6667 53.1252 74.0947 61.73C81.5228 70.3347 85.2368 80.0619 85.2368 90.9114C85.2368 103.632 80.7799 113.92 71.8663 121.776C62.9526 129.259 53.4819 133 43.454 133C33.7976 133 24.1411 128.698 14.4847 120.093C4.82823 111.114 0 99.5162 0 85.2996C0 63.2264 7.05664 44.1463 21.1699 28.0591C35.2832 11.5977 49.7679 2.24473 64.624 0L69.0808 8.9789C60.5385 12.346 50.6964 18.8931 39.5543 28.6203C28.7837 38.3474 23.0269 47.8875 22.2841 57.2405C31.5692 51.6287 39.5543 48.8228 46.2396 48.8228Z" fill="#E0D6CE"></path></svg> 