<?xml version="1.0" encoding="UTF-8"?> <svg xmlns="http://www.w3.org/2000/svg" width="818" height="291" viewBox="0 0 818 291" fill="none"><path d="M552 39.9995L7.5 39.9995" stroke="#E0D6CE" stroke-dasharray="6 6"></path><path d="M792 268C792 238.058 786.084 208.41 774.59 180.748C763.095 153.085 746.248 127.951 725.009 106.779C703.771 85.6074 678.557 68.813 650.807 57.355C623.057 45.8969 593.315 39.9995 563.279 39.9995" stroke="#E0D6CE" stroke-dasharray="6 6"></path><ellipse cx="553" cy="39.4995" rx="39.5" ry="40" transform="rotate(90 553 39.4995)" fill="#FDF6F0"></ellipse><ellipse cx="711" cy="94.6662" rx="15.6667" ry="16" transform="rotate(90 711 94.6662)" fill="#FDF6F0"></ellipse><path d="M585 39.9995L567.592 40.7457C559.82 41.0789 553.592 47.298 553.249 55.0694L552.5 71.9995L551.751 55.0694C551.408 47.298 545.18 41.0789 537.408 40.7457L520 39.9995L537.408 39.2533C545.18 38.9201 551.408 32.701 551.751 24.9296L552.5 7.99951L553.249 24.9296C553.592 32.701 559.82 38.9201 567.592 39.2533L585 39.9995Z" fill="#E0D6CE"></path><circle cx="711" cy="94.9995" r="7" transform="rotate(90 711 94.9995)" fill="#E0D6CE"></circle><ellipse cx="792" cy="264.5" rx="23.5" ry="24" transform="rotate(90 792 264.5)" fill="#FDF6F0"></ellipse><path d="M807.791 273.281C807.979 273.497 807.787 273.828 807.507 273.773L797.756 271.851C797.579 271.816 797.411 271.944 797.399 272.125L796.732 282.041C796.713 282.326 796.343 282.425 796.184 282.188L790.648 273.934C790.547 273.784 790.338 273.756 790.202 273.875L782.718 280.415C782.503 280.603 782.171 280.412 782.227 280.131L784.149 270.381C784.184 270.203 784.055 270.035 783.875 270.023L773.959 269.356C773.674 269.337 773.574 268.967 773.812 268.808L782.066 263.273C782.216 263.172 782.244 262.962 782.125 262.826L775.585 255.343C775.396 255.127 775.588 254.796 775.869 254.851L785.619 256.773C785.797 256.808 785.964 256.68 785.977 256.499L786.643 246.583C786.663 246.298 787.032 246.199 787.192 246.436L792.727 254.69C792.828 254.841 793.038 254.868 793.174 254.749L800.657 248.209C800.872 248.021 801.204 248.212 801.149 248.493L799.226 258.244C799.191 258.421 799.32 258.589 799.501 258.601L809.416 259.268C809.702 259.287 809.801 259.657 809.563 259.816L801.309 265.352C801.159 265.452 801.132 265.662 801.251 265.798L807.791 273.281Z" fill="#E0D6CE"></path><circle cx="7" cy="39.9995" r="7" transform="rotate(90 7 39.9995)" fill="#E0D6CE"></circle></svg> 