<?xml version="1.0" encoding="UTF-8"?> <svg xmlns="http://www.w3.org/2000/svg" width="320" height="944" viewBox="0 0 320 944" fill="none"><path d="M316.5 940L244 940C111.452 940 4.0001 832.548 4.00012 700L4.00022 4" stroke="#3C481A" stroke-dasharray="6 6"></path><ellipse cx="40" cy="827" rx="26" ry="26" transform="rotate(90 40 827)" fill="#5C6937"></ellipse><path d="M41.022 845.168C40.9295 845.439 40.5466 845.439 40.4541 845.168L37.2437 835.763C37.1852 835.592 36.9898 835.511 36.8275 835.59L27.9067 839.971C27.6499 840.097 27.3791 839.826 27.5052 839.569L31.8857 830.649C31.9654 830.486 31.8844 830.291 31.7133 830.232L22.3079 827.022C22.0371 826.93 22.0371 826.547 22.3079 826.454L31.7133 823.244C31.8844 823.185 31.9654 822.99 31.8857 822.828L27.5052 813.907C27.3791 813.65 27.6499 813.379 27.9067 813.505L36.8275 817.886C36.9898 817.965 37.1852 817.884 37.2437 817.713L40.4541 808.308C40.5466 808.037 40.9295 808.037 41.022 808.308L44.2325 817.713C44.2909 817.884 44.4863 817.965 44.6486 817.886L53.5694 813.505C53.8262 813.379 54.097 813.65 53.9709 813.907L49.5904 822.828C49.5107 822.99 49.5917 823.185 49.7628 823.244L59.1682 826.454C59.439 826.547 59.439 826.93 59.1682 827.022L49.7628 830.232C49.5917 830.291 49.5107 830.486 49.5904 830.649L53.9709 839.569C54.097 839.826 53.8262 840.097 53.5694 839.971L44.6486 835.59C44.4863 835.511 44.2909 835.592 44.2325 835.763L41.022 845.168Z" fill="#3C481A"></path></svg> 