<?xml version="1.0" encoding="UTF-8"?> <svg xmlns="http://www.w3.org/2000/svg" width="984" height="717" viewBox="0 0 984 717" fill="none"><circle cx="492" cy="360" r="80" fill="#F0803B"></circle><path d="M488.407 334.069C483.314 334.065 478.333 335.573 474.097 338.401C469.86 341.229 466.558 345.25 464.607 349.956C462.656 354.661 462.145 359.84 463.138 364.836C464.131 369.832 466.583 374.421 470.185 378.023C473.787 381.625 478.376 384.078 483.372 385.071C488.368 386.064 493.546 385.552 498.251 383.601C502.956 381.651 506.977 378.348 509.805 374.111C512.633 369.874 514.141 364.894 514.137 359.8C514.129 352.978 511.415 346.439 506.592 341.615C501.768 336.791 495.229 334.077 488.407 334.069ZM488.407 387.458C482.937 387.461 477.588 385.842 473.038 382.805C468.487 379.768 464.94 375.449 462.844 370.396C460.749 365.342 460.199 359.781 461.264 354.415C462.329 349.048 464.962 344.119 468.829 340.249C472.696 336.38 477.624 333.744 482.989 332.675C488.354 331.607 493.916 332.153 498.97 334.246C504.025 336.339 508.345 339.884 511.385 344.433C514.425 348.981 516.047 354.329 516.047 359.8C516.038 367.13 513.124 374.157 507.943 379.342C502.762 384.526 495.737 387.445 488.407 387.458Z" fill="#FDF6F0"></path><path d="M517.576 375.111C506.829 374.76 496.166 373.102 485.82 370.172C475.864 367.646 466.231 363.983 457.11 359.257C451.629 356.244 445.34 351.799 446.443 347.733C447.826 342.514 459.827 342.794 466.856 343.37L466.691 345.33C453.983 344.177 448.83 346.169 448.287 348.211C447.826 349.857 450.147 353.248 458.032 357.578C467.015 362.249 476.504 365.873 486.314 368.377C510.184 374.765 528.128 374.353 529.297 370.024C529.84 367.966 526.383 363.653 514.826 358.253L515.65 356.607C522.037 359.586 532.54 365.398 531.157 370.6C530.268 373.728 525 375.111 517.576 375.111Z" fill="#FDF6F0"></path><circle cx="489" cy="360" r="259.5" stroke="#5C6937" stroke-dasharray="6 6"></circle><circle cx="489" cy="360" r="169.5" stroke="#E0D6CE"></circle><circle cx="718" cy="240" r="32" fill="#FDF6F0"></circle><circle cx="718" cy="490" r="32" fill="#FDF6F0"></circle><circle cx="658" cy="403" r="32" fill="#FDF6F0"></circle><circle cx="492" cy="190" r="32" fill="#FDF6F0"></circle><circle cx="492" cy="620" r="32" fill="#FDF6F0"></circle><circle cx="492" cy="100" r="32" fill="#FDF6F0"></circle><circle cx="256" cy="240" r="32" fill="#FDF6F0"></circle><circle cx="256" cy="490" r="32" fill="#FDF6F0"></circle><circle cx="330" cy="419" r="32" fill="#FDF6F0"></circle><path fill-rule="evenodd" clip-rule="evenodd" d="M658.371 394.454L658 381L657.629 394.454C657.584 396.062 657.09 397.556 656.267 398.816C654.794 398.507 653.388 397.8 652.22 396.694L642.444 387.444L651.694 397.22C652.8 398.388 653.507 399.794 653.816 401.267C652.556 402.09 651.062 402.584 649.454 402.629L636 403L649.454 403.371C651.062 403.416 652.556 403.91 653.816 404.733C653.507 406.206 652.8 407.612 651.694 408.78L642.444 418.556L652.22 409.306C653.388 408.2 654.794 407.493 656.267 407.184C657.09 408.444 657.584 409.938 657.629 411.546L658 425L658.371 411.546C658.416 409.938 658.91 408.444 659.733 407.184C661.206 407.493 662.612 408.2 663.78 409.306L673.556 418.556L664.306 408.78C663.2 407.612 662.493 406.206 662.184 404.733C663.444 403.91 664.938 403.416 666.546 403.371L680 403L666.546 402.629C664.938 402.584 663.444 402.09 662.184 401.267C662.493 399.794 663.2 398.388 664.306 397.22L673.556 387.444L663.78 396.694C662.612 397.8 661.206 398.507 659.733 398.816C658.91 397.556 658.416 396.062 658.371 394.454Z" fill="#E0D6CE"></path><path d="M492 170L494.516 180.611L502 172.679L498.873 183.127L509.321 180L501.389 187.484L512 190L501.389 192.516L509.321 200L498.873 196.873L502 207.321L494.516 199.389L492 210L489.484 199.389L482 207.321L485.127 196.873L474.679 200L482.611 192.516L472 190L482.611 187.484L474.679 180L485.127 183.127L482 172.679L489.484 180.611L492 170Z" fill="#E0D6CE"></path><path d="M350 419L344.57 418.764C336.798 418.425 330.575 412.202 330.236 404.43L330 399L329.764 404.43C329.425 412.202 323.202 418.425 315.43 418.764L310 419L315.43 419.236C323.202 419.575 329.425 425.798 329.764 433.57L330 439L330.236 433.57C330.575 425.798 336.798 419.575 344.57 419.236L350 419Z" fill="#E0D6CE"></path><path opacity="0.4" fill-rule="evenodd" clip-rule="evenodd" d="M157.647 703H156.216C155.713 702.508 155.211 702.015 154.711 701.521L155.062 701.165L155.414 700.809C156.156 701.542 156.9 702.272 157.647 703ZM827.784 703H826.353C827.1 702.272 827.844 701.542 828.586 700.809L828.938 701.165L829.289 701.521C828.788 702.015 828.287 702.508 827.784 703ZM971.491 363.004L971.991 363.007C971.997 362.005 972 361.003 972 360C972 358.997 971.997 357.995 971.991 356.993L971.491 356.996L970.991 356.999C970.997 357.999 971 358.999 971 360C971 360.429 970.999 360.858 970.998 361.287C970.997 361.858 970.994 362.429 970.991 363.001L971.491 363.004ZM971.417 351L971.917 350.991C971.88 348.994 971.831 346.999 971.77 345.007L971.271 345.023L970.771 345.038C970.832 347.026 970.881 349.016 970.917 351.01L971.417 351ZM971.051 339.063L971.551 339.042C971.465 337.049 971.367 335.059 971.257 333.072L970.758 333.099L970.259 333.127C970.369 335.11 970.466 337.096 970.552 339.085L971.051 339.063ZM970.39 327.115L970.889 327.081C970.754 325.087 970.607 323.097 970.447 321.11L969.949 321.15L969.451 321.19C969.609 323.173 969.756 325.159 969.891 327.148L970.39 327.115ZM969.435 315.206L969.933 315.16C969.749 313.174 969.553 311.193 969.345 309.214L968.848 309.267L968.351 309.319C968.558 311.293 968.754 313.271 968.937 315.252L969.435 315.206ZM968.184 303.308L968.68 303.25C968.447 301.265 968.201 299.285 967.943 297.308L967.447 297.372L966.951 297.437C967.209 299.41 967.454 301.387 967.687 303.367L968.184 303.308ZM966.638 291.459L967.133 291.388C966.851 289.415 966.556 287.446 966.25 285.48L965.756 285.557L965.262 285.634C965.568 287.595 965.862 289.561 966.143 291.53L966.638 291.459ZM964.796 279.641L965.289 279.558C964.956 277.588 964.612 275.622 964.256 273.66L963.764 273.749L963.272 273.838C963.627 275.796 963.971 277.758 964.303 279.724L964.796 279.641ZM962.66 267.882L963.151 267.787C962.77 265.83 962.378 263.877 961.973 261.929L961.484 262.031L960.994 262.133C961.398 264.077 961.789 266.025 962.169 267.978L962.66 267.882ZM960.229 256.172L960.717 256.064C960.286 254.114 959.844 252.167 959.39 250.226L958.903 250.34L958.416 250.454C958.869 252.391 959.311 254.333 959.74 256.28L960.229 256.172ZM957.506 244.535L957.992 244.415C957.513 242.479 957.023 240.548 956.521 238.622L956.037 238.748L955.553 238.874C956.054 240.796 956.543 242.723 957.021 244.655L957.506 244.535ZM954.49 232.961L954.973 232.829C954.445 230.903 953.905 228.982 953.354 227.065L952.873 227.204L952.393 227.342C952.943 229.254 953.481 231.171 954.008 233.093L954.49 232.961ZM951.187 221.475L951.666 221.331C951.09 219.421 950.503 217.517 949.905 215.617L949.428 215.768L948.951 215.918C949.548 217.813 950.134 219.714 950.708 221.619L951.187 221.475ZM946.162 204.237C946.809 206.123 947.444 208.015 948.068 209.912L947.593 210.068L947.118 210.224C946.496 208.331 945.862 206.444 945.216 204.561L945.689 204.399L946.162 204.237ZM943.717 198.763L944.188 198.594C943.517 196.716 942.835 194.842 942.142 192.974L941.673 193.148L941.204 193.322C941.896 195.186 942.577 197.056 943.246 198.931L943.717 198.763ZM939.555 187.55L940.021 187.37C939.303 185.507 938.573 183.65 937.833 181.799L937.369 181.985L936.904 182.17C937.643 184.018 938.371 185.871 939.088 187.73L939.555 187.55ZM935.115 176.454L935.577 176.262C934.813 174.419 934.037 172.581 933.251 170.75L932.792 170.947L932.332 171.145C933.117 172.972 933.891 174.806 934.654 176.645L935.115 176.454ZM930.396 165.463L930.852 165.26C930.042 163.436 929.22 161.619 928.388 159.807L927.933 160.016L927.479 160.224C928.31 162.032 929.13 163.846 929.939 165.667L930.396 165.463ZM925.406 154.604L925.857 154.39C925.001 152.587 924.135 150.79 923.257 148.999L922.808 149.219L922.359 149.44C923.235 151.226 924.1 153.019 924.954 154.819L925.406 154.604ZM920.141 143.864L920.587 143.638C919.686 141.858 918.775 140.083 917.853 138.315L917.409 138.547L916.966 138.778C917.886 140.542 918.796 142.313 919.695 144.09L920.141 143.864ZM914.614 133.268L915.054 133.031C914.109 131.273 913.153 129.521 912.187 127.777L911.749 128.019L911.312 128.261C912.276 130.002 913.23 131.75 914.173 133.505L914.614 133.268ZM906.256 117.377C907.266 119.097 908.264 120.823 909.253 122.557L908.819 122.804L908.384 123.052C907.398 121.322 906.401 119.6 905.394 117.884L905.825 117.63L906.256 117.377ZM902.769 112.498L903.197 112.239C902.165 110.53 901.123 108.828 900.07 107.133L899.646 107.397L899.221 107.661C900.271 109.352 901.311 111.051 902.341 112.756L902.769 112.498ZM896.459 102.336L896.881 102.067C895.807 100.386 894.723 98.7111 893.63 97.0438L893.211 97.3181L892.793 97.5924C893.885 99.2561 894.966 100.927 896.038 102.605L896.459 102.336ZM889.903 92.3433L890.318 92.0638C889.202 90.4084 888.076 88.7603 886.941 87.1197L886.529 87.4042L886.118 87.6888C887.252 89.3261 888.375 90.9707 889.489 92.6227L889.903 92.3433ZM883.095 82.5089L883.503 82.2192C882.347 80.5932 881.182 78.9748 880.006 77.3639L879.602 77.6586L879.198 77.9533C880.371 79.5609 881.535 81.176 882.688 82.7986L883.095 82.5089ZM872.832 67.7839C874.048 69.3661 875.254 70.9561 876.45 72.5538L876.05 72.8535L875.65 73.1532C874.456 71.5588 873.252 69.9721 872.039 68.3932L872.435 68.0886L872.832 67.7839ZM868.763 63.3703L869.155 63.0608C867.92 61.4943 866.676 59.9356 865.422 58.3849L865.033 58.6994L864.644 59.0138C865.896 60.5612 867.138 62.1166 868.37 63.6799L868.763 63.3703ZM861.246 54.0753L861.631 53.7561C860.357 52.2202 859.073 50.6923 857.781 49.1725L857.4 49.4965L857.019 49.8205C858.309 51.3371 859.59 52.8618 860.861 54.3945L861.246 54.0753ZM853.498 44.9666L853.875 44.6379C852.563 43.1346 851.243 41.6395 849.914 40.1527L849.541 40.486L849.168 40.8193C850.495 42.303 851.813 43.795 853.121 45.2952L853.498 44.9666ZM845.528 36.0548L845.897 35.7169C844.549 34.2463 843.191 32.7841 841.825 31.3305L841.461 31.6729L841.096 32.0153C842.46 33.466 843.814 34.9252 845.16 36.3927L845.528 36.0548ZM837.339 27.342L837.699 26.9951C836.315 25.5585 834.922 24.1306 833.521 22.7114L833.165 23.0627L832.809 23.4141C834.208 24.8304 835.598 26.2554 836.979 27.6889L837.339 27.342ZM828.938 18.8355L829.289 18.4798C827.87 17.078 826.442 15.685 825.005 14.3009L824.658 14.661L824.311 15.0211C825.745 16.4023 827.17 17.7924 828.586 19.1913L828.938 18.8355ZM154.711 18.4797C156.13 17.0779 157.558 15.6849 158.995 14.3008L159.342 14.6608L159.689 15.0209C158.255 16.4022 156.83 17.7923 155.414 19.1911L155.063 18.8354L154.711 18.4797ZM150.835 23.0626L150.48 22.7112C149.078 24.1305 147.685 25.5584 146.301 26.9949L146.661 27.3419L147.021 27.6888C148.402 26.2552 149.792 24.8302 151.191 23.4139L150.835 23.0626ZM142.539 31.6727L142.175 31.3303C140.809 32.784 139.451 34.2462 138.103 35.7168L138.472 36.0547L138.84 36.3926C140.186 34.925 141.54 33.4658 142.904 32.0152L142.539 31.6727ZM134.459 40.4859L134.087 40.1526C132.757 41.6393 131.437 43.1344 130.125 44.6377L130.502 44.9664L130.879 45.295C132.188 43.7948 133.505 42.3028 134.832 40.8192L134.459 40.4859ZM126.6 49.4964L126.22 49.1724C124.927 50.6921 123.644 52.22 122.37 53.756L122.754 54.0752L123.139 54.3944C124.411 52.8616 125.691 51.3369 126.981 49.8203L126.6 49.4964ZM118.967 58.6992L118.578 58.3848C117.324 59.9355 116.08 61.4941 114.845 63.0606L115.237 63.3702L115.63 63.6797C116.863 62.1165 118.105 60.5611 119.356 59.0136L118.967 58.6992ZM111.565 68.0884L111.168 67.7837C109.953 69.3659 108.746 70.9559 107.55 72.5536L107.95 72.8533L108.35 73.153C109.544 71.5587 110.748 69.972 111.961 68.3931L111.565 68.0884ZM104.398 77.6584L103.994 77.3637C102.819 78.9746 101.653 80.593 100.497 82.219L100.905 82.5087L101.312 82.7984C102.466 81.1758 103.629 79.5607 104.802 77.9532L104.398 77.6584ZM97.4706 87.4041L97.0595 87.1195C95.9238 88.7602 94.798 90.4082 93.6822 92.0637L94.0969 92.3431L94.5115 92.6226C95.6249 90.9706 96.7484 89.3259 97.8817 87.6887L97.4706 87.4041ZM90.7887 97.3179L90.3706 97.0436C89.2768 98.7109 88.1931 100.385 87.1196 102.067L87.541 102.336L87.9625 102.605C89.0338 100.927 90.1152 99.256 91.2067 97.5922L90.7887 97.3179ZM84.3544 107.397L83.9297 107.133C82.8772 108.828 81.8349 110.53 80.803 112.239L81.231 112.497L81.6591 112.756C82.6888 111.05 83.7289 109.352 84.7792 107.661L84.3544 107.397ZM78.1751 117.63L77.7439 117.377C76.7346 119.097 75.7356 120.823 74.7472 122.557L75.1815 122.804L75.6159 123.052C76.6022 121.322 77.5991 119.599 78.6063 117.883L78.1751 117.63ZM72.2508 128.019L71.8134 127.776C70.847 129.521 69.8911 131.273 68.9459 133.031L69.3863 133.268L69.8267 133.505C70.7699 131.75 71.7238 130.002 72.6882 128.261L72.2508 128.019ZM66.5907 138.546L66.1474 138.315C65.2252 140.083 64.3137 141.857 63.413 143.638L63.8591 143.864L64.3053 144.089C65.2041 142.312 66.1137 140.542 67.034 138.778L66.5907 138.546ZM61.1921 149.219L60.7432 148.999C59.8655 150.79 58.9986 152.587 58.1426 154.39L58.5943 154.604L59.046 154.818C59.9002 153.019 60.7652 151.226 61.6411 149.439L61.1921 149.219ZM53.1475 165.26C53.9581 163.436 54.7797 161.619 55.6122 159.807L56.0666 160.016L56.5209 160.224C55.6901 162.032 54.8702 163.846 54.0614 165.666L53.6045 165.463L53.1475 165.26ZM51.2085 170.947L50.7491 170.75C49.9625 172.581 49.187 174.419 48.4226 176.262L48.8845 176.454L49.3464 176.645C50.1091 174.806 50.883 172.972 51.6679 171.145L51.2085 170.947ZM46.6314 181.985L46.1672 181.799C45.4265 183.65 44.6971 185.507 43.9789 187.37L44.4454 187.55L44.9119 187.73C45.6286 185.871 46.3565 184.018 47.0956 182.17L46.6314 181.985ZM42.327 193.149L41.8583 192.975C41.1649 194.842 40.4829 196.716 39.8122 198.595L40.2831 198.763L40.754 198.931C41.4233 197.056 42.1039 195.186 42.7958 193.323L42.327 193.149ZM38.3107 204.399L37.8377 204.237C37.191 206.124 36.5556 208.015 35.9318 209.912L36.4067 210.068L36.8817 210.224C37.5042 208.331 38.1383 206.444 38.7837 204.562L38.3107 204.399ZM34.5717 215.768L34.0948 215.618C33.4965 217.517 32.9096 219.422 32.3344 221.331L32.8131 221.475L33.2919 221.62C33.8659 219.714 34.4515 217.814 35.0486 215.918L34.5717 215.768ZM31.1266 227.204L30.646 227.066C30.0948 228.982 29.5553 230.903 29.0274 232.829L29.5096 232.962L29.9918 233.094C30.5186 231.172 31.057 229.254 31.6071 227.342L31.1266 227.204ZM27.9628 238.748L27.479 238.622C26.977 240.548 26.4868 242.479 26.0083 244.415L26.4937 244.535L26.9791 244.655C27.4566 242.723 27.9458 240.797 28.4467 238.874L27.9628 238.748ZM25.0971 250.34L24.6102 250.226C24.156 252.168 23.7135 254.114 23.2829 256.065L23.7712 256.172L24.2594 256.28C24.6891 254.334 25.1307 252.392 25.584 250.454L25.0971 250.34ZM22.5164 262.031L22.0268 261.93C21.6224 263.878 21.2297 265.83 20.8489 267.787L21.3397 267.883L21.8305 267.978C22.2105 266.026 22.6023 264.077 23.0059 262.133L22.5164 262.031ZM20.2362 273.75L19.7442 273.66C19.3879 275.622 19.0435 277.588 18.711 279.558L19.2041 279.641L19.6971 279.725C20.0288 277.759 20.3725 275.797 20.7281 273.839L20.2362 273.75ZM18.2439 285.558L17.7499 285.481C17.4435 287.446 17.1491 289.416 16.8667 291.389L17.3616 291.46L17.8566 291.531C18.1384 289.561 18.4322 287.596 18.7379 285.635L18.2439 285.558ZM16.5528 297.373L16.057 297.308C15.7991 299.285 15.5533 301.266 15.3196 303.251L15.8161 303.309L16.3127 303.368C16.5459 301.387 16.7913 299.411 17.0486 297.438L16.5528 297.373ZM15.152 309.267L14.6547 309.215C14.4467 311.193 14.2507 313.175 14.0667 315.161L14.5646 315.207L15.0625 315.253C15.246 313.272 15.4416 311.294 15.6492 309.32L15.152 309.267ZM14.051 321.151L13.5526 321.111C13.3933 323.098 13.2461 325.088 13.1111 327.082L13.6099 327.115L14.1088 327.149C14.2435 325.16 14.3904 323.174 14.5494 321.191L14.051 321.151ZM13.2418 333.1L12.7426 333.073C12.6327 335.059 12.5349 337.05 12.4493 339.043L12.9488 339.064L13.4484 339.086C13.5338 337.097 13.6314 335.111 13.7411 333.128L13.2418 333.1ZM12.7294 345.024L12.2297 345.008C12.1686 347 12.1196 348.994 12.0828 350.992L12.5828 351.001L13.0827 351.01C13.1194 349.017 13.1682 347.026 13.2292 345.039L12.7294 345.024ZM12 360C12 358.997 12.0031 357.995 12.0092 356.994L12.5092 356.997L13.0092 357C13.0031 357.999 13 358.999 13 360C13 361.001 13.0031 362.002 13.0092 363.001L12.5092 363.005L12.0092 363.008C12.0031 362.006 12 361.003 12 360ZM12.5828 369L12.0829 369.009C12.1196 371.007 12.1686 373.001 12.2297 374.993L12.7295 374.978L13.2292 374.962C13.1682 372.975 13.1194 370.984 13.0827 368.991L12.5828 369ZM12.9489 380.937L12.4493 380.958C12.535 382.952 12.6328 384.942 12.7426 386.929L13.2419 386.901L13.7411 386.874C13.6315 384.891 13.5339 382.905 13.4484 380.916L12.9489 380.937ZM13.61 392.886L13.1111 392.92C13.2462 394.913 13.3934 396.903 13.5527 398.89L14.0511 398.85L14.5495 398.81C14.3905 396.828 14.2436 394.842 14.1089 392.852L13.61 392.886ZM14.5647 404.795L14.0668 404.841C14.2507 406.826 14.4468 408.808 14.6548 410.786L15.1521 410.734L15.6493 410.682C15.4417 408.707 15.2461 406.73 15.0625 404.748L14.5647 404.795ZM15.8162 416.692L15.3196 416.751C15.5534 418.735 15.7992 420.716 16.0571 422.693L16.5529 422.628L17.0487 422.563C16.7914 420.59 16.546 418.614 16.3128 416.634L15.8162 416.692ZM17.3617 428.541L16.8667 428.612C17.1492 430.585 17.4436 432.555 17.75 434.52L18.244 434.443L18.738 434.366C18.4323 432.405 18.1385 430.44 17.8567 428.47L17.3617 428.541ZM19.2042 440.36L18.7111 440.443C19.0436 442.413 19.388 444.379 19.7443 446.341L20.2363 446.251L20.7282 446.162C20.3726 444.204 20.0289 442.242 19.6972 440.276L19.2042 440.36ZM21.3398 452.118L20.849 452.214C21.2298 454.17 21.6224 456.123 22.0269 458.071L22.5165 457.97L23.006 457.868C22.6024 455.924 22.2106 453.975 21.8306 452.023L21.3398 452.118ZM23.7713 463.829L23.283 463.936C23.7136 465.887 24.1561 467.833 24.6103 469.775L25.0972 469.661L25.584 469.547C25.1307 467.609 24.6892 465.667 24.2595 463.721L23.7713 463.829ZM26.4938 475.466L26.0084 475.586C26.4869 477.521 26.9771 479.452 27.4791 481.379L27.9629 481.252L28.4467 481.126C27.9459 479.204 27.4566 477.277 26.9791 475.346L26.4938 475.466ZM29.5097 487.039L29.0275 487.171C29.5553 489.098 30.0949 491.019 30.6461 492.935L31.1266 492.797L31.6071 492.659C31.0571 490.746 30.5187 488.829 29.9919 486.907L29.5097 487.039ZM32.8132 498.525L32.3344 498.669C32.9097 500.579 33.4966 502.484 34.0949 504.383L34.5718 504.233L35.0487 504.082C34.4516 502.187 33.866 500.286 33.2919 498.381L32.8132 498.525ZM36.4068 509.933L35.9318 510.089C36.5557 511.986 37.191 513.877 37.8378 515.763L38.3108 515.601L38.7837 515.439C38.1383 513.557 37.5043 511.669 36.8818 509.776L36.4068 509.933ZM41.8583 527.026C41.165 525.158 40.4829 523.285 39.8123 521.406L40.2832 521.238L40.754 521.07C41.4233 522.945 42.1039 524.814 42.7958 526.678L42.3271 526.852L41.8583 527.026ZM44.4454 532.451L43.9789 532.631C44.6971 534.493 45.4265 536.35 46.1672 538.202L46.6314 538.016L47.0956 537.83C46.3565 535.983 45.6286 534.13 44.912 532.271L44.4454 532.451ZM48.8845 543.547L48.4226 543.738C49.187 545.582 49.9625 547.419 50.7491 549.25L51.2085 549.053L51.6679 548.856C50.883 547.028 50.1091 545.195 49.3464 543.355L48.8845 543.547ZM53.6044 554.537L53.1475 554.74C53.9581 556.564 54.7797 558.382 55.6122 560.194L56.0665 559.985L56.5209 559.776C55.6901 557.968 54.8702 556.154 54.0613 554.334L53.6044 554.537ZM58.5943 565.396L58.1426 565.611C58.9986 567.414 59.8654 569.21 60.7431 571.001L61.1921 570.781L61.641 570.561C60.7652 568.774 59.9001 566.981 59.046 565.182L58.5943 565.396ZM63.859 576.136L63.4129 576.362C64.3136 578.143 65.2251 579.917 66.1473 581.685L66.5906 581.454L67.0339 581.223C66.1136 579.458 65.2041 577.688 64.3052 575.911L63.859 576.136ZM69.3862 586.732L68.9458 586.969C69.891 588.727 70.8469 590.479 71.8133 592.224L72.2507 591.982L72.6881 591.739C71.7237 589.998 70.7698 588.25 69.8266 586.496L69.3862 586.732ZM75.1814 597.196L74.7471 597.444C75.7355 599.177 76.7345 600.903 77.7438 602.623L78.175 602.37L78.6062 602.117C77.599 600.401 76.6021 598.678 75.6157 596.948L75.1814 597.196ZM81.2309 607.503L80.8029 607.761C81.8348 609.47 82.877 611.172 83.9296 612.867L84.3543 612.603L84.7791 612.34C83.7288 610.648 82.6887 608.95 81.6589 607.244L81.2309 607.503ZM87.5409 617.664L87.1195 617.933C88.193 619.615 89.2767 621.289 90.3705 622.957L90.7886 622.682L91.2066 622.408C90.1151 620.744 89.0336 619.073 87.9623 617.395L87.5409 617.664ZM94.0968 627.657L93.6821 627.937C94.7979 629.592 95.9237 631.24 97.0594 632.881L97.4705 632.596L97.8816 632.312C96.7482 630.674 95.6248 629.03 94.5114 627.378L94.0968 627.657ZM100.905 637.492L100.497 637.781C101.653 639.407 102.818 641.026 103.994 642.637L104.398 642.342L104.802 642.047C103.629 640.44 102.465 638.824 101.312 637.202L100.905 637.492ZM107.95 647.147L107.55 647.447C108.746 649.044 109.952 650.634 111.168 652.217L111.565 651.912L111.961 651.607C110.748 650.028 109.544 648.442 108.35 646.847L107.95 647.147ZM115.237 656.63L114.845 656.94C116.08 658.506 117.324 660.065 118.578 661.615L118.967 661.301L119.356 660.987C118.104 659.439 116.862 657.884 115.63 656.321L115.237 656.63ZM122.754 665.925L122.369 666.244C123.643 667.78 124.927 669.308 126.219 670.828L126.6 670.504L126.981 670.18C125.691 668.663 124.41 667.139 123.139 665.606L122.754 665.925ZM130.502 675.034L130.125 675.363C131.437 676.866 132.757 678.361 134.087 679.848L134.459 679.514L134.832 679.181C133.505 677.697 132.187 676.205 130.879 674.705L130.502 675.034ZM138.472 683.946L138.103 684.283C139.451 685.754 140.809 687.216 142.175 688.67L142.539 688.328L142.904 687.985C141.54 686.534 140.186 685.075 138.84 683.608L138.472 683.946ZM150.479 697.289C149.078 695.87 147.685 694.442 146.301 693.005L146.661 692.658L147.021 692.312C148.402 693.745 149.792 695.17 151.191 696.586L150.835 696.938L150.479 697.289ZM833.165 696.938L833.52 697.289C834.922 695.87 836.315 694.442 837.699 693.005L837.339 692.659L836.979 692.312C835.598 693.745 834.208 695.17 832.809 696.587L833.165 696.938ZM841.461 688.328L841.825 688.67C843.191 687.216 844.549 685.754 845.897 684.284L845.528 683.946L845.16 683.608C843.814 685.075 842.46 686.535 841.096 687.985L841.461 688.328ZM849.541 679.515L849.913 679.848C851.243 678.361 852.563 676.866 853.875 675.363L853.498 675.034L853.121 674.705C851.812 676.206 850.495 677.698 849.168 679.181L849.541 679.515ZM857.4 670.504L857.78 670.828C859.073 669.308 860.356 667.78 861.63 666.244L861.246 665.925L860.861 665.606C859.589 667.139 858.309 668.664 857.019 670.18L857.4 670.504ZM865.033 661.301L865.422 661.616C866.676 660.065 867.92 658.506 869.155 656.94L868.763 656.63L868.37 656.321C867.138 657.884 865.895 659.439 864.644 660.987L865.033 661.301ZM872.435 651.912L872.832 652.217C874.047 650.635 875.254 649.044 876.45 647.447L876.05 647.147L875.65 646.847C874.456 648.442 873.252 650.028 872.039 651.607L872.435 651.912ZM879.602 642.342L880.006 642.637C881.181 641.026 882.347 639.407 883.503 637.781L883.095 637.492L882.688 637.202C881.534 638.825 880.371 640.44 879.198 642.047L879.602 642.342ZM886.529 632.596L886.94 632.881C888.076 631.24 889.202 629.592 890.318 627.937L889.903 627.657L889.489 627.378C888.375 629.03 887.252 630.675 886.118 632.312L886.529 632.596ZM893.211 622.682L893.629 622.957C894.723 621.29 895.807 619.615 896.88 617.933L896.459 617.664L896.038 617.395C894.966 619.073 893.885 620.745 892.793 622.408L893.211 622.682ZM899.646 612.604L900.07 612.867C901.123 611.172 902.165 609.47 903.197 607.761L902.769 607.503L902.341 607.245C901.311 608.95 900.271 610.648 899.221 612.34L899.646 612.604ZM905.825 602.37L906.256 602.623C907.265 600.904 908.264 599.177 909.253 597.444L908.818 597.196L908.384 596.948C907.398 598.678 906.401 600.401 905.394 602.117L905.825 602.37ZM911.749 591.982L912.187 592.224C913.153 590.479 914.109 588.728 915.054 586.969L914.614 586.733L914.173 586.496C913.23 588.25 912.276 589.998 911.312 591.74L911.749 591.982ZM917.409 581.454L917.853 581.685C918.775 579.917 919.686 578.143 920.587 576.362L920.141 576.137L919.695 575.911C918.796 577.688 917.886 579.459 916.966 581.223L917.409 581.454ZM922.808 570.781L923.257 571.001C924.135 569.211 925.001 567.414 925.857 565.611L925.406 565.396L924.954 565.182C924.1 566.981 923.235 568.774 922.359 570.561L922.808 570.781ZM927.933 559.985L928.388 560.194C929.22 558.382 930.042 556.564 930.852 554.74L930.396 554.537L929.939 554.334C929.13 556.154 928.31 557.968 927.479 559.776L927.933 559.985ZM932.792 549.053L933.251 549.25C934.037 547.419 934.813 545.582 935.577 543.738L935.115 543.547L934.654 543.355C933.891 545.195 933.117 547.028 932.332 548.856L932.792 549.053ZM937.369 538.016L937.833 538.202C938.573 536.35 939.303 534.493 940.021 532.63L939.555 532.451L939.088 532.271C938.371 534.13 937.643 535.983 936.904 537.83L937.369 538.016ZM941.673 526.852L942.142 527.026C942.835 525.158 943.517 523.285 944.188 521.406L943.717 521.238L943.246 521.07C942.577 522.944 941.896 524.814 941.204 526.678L941.673 526.852ZM945.689 515.601L946.162 515.763C946.809 513.877 947.444 511.985 948.068 510.089L947.593 509.932L947.118 509.776C946.496 511.669 945.862 513.556 945.216 515.439L945.689 515.601ZM949.428 504.233L949.905 504.383C950.503 502.483 951.09 500.579 951.666 498.669L951.187 498.525L950.708 498.381C950.134 500.286 949.548 502.187 948.951 504.082L949.428 504.233ZM952.873 492.797L953.354 492.935C953.905 491.018 954.445 489.097 954.973 487.171L954.49 487.039L954.008 486.907C953.481 488.829 952.943 490.746 952.393 492.658L952.873 492.797ZM956.037 481.252L956.521 481.378C957.023 479.452 957.513 477.521 957.992 475.585L957.506 475.465L957.021 475.345C956.543 477.277 956.054 479.204 955.553 481.126L956.037 481.252ZM958.903 469.66L959.39 469.774C959.844 467.833 960.286 465.887 960.717 463.936L960.229 463.828L959.741 463.72C959.311 465.667 958.869 467.609 958.416 469.546L958.903 469.66ZM961.484 457.969L961.973 458.071C962.378 456.123 962.77 454.17 963.151 452.213L962.66 452.118L962.169 452.022C961.789 453.975 961.398 455.923 960.994 457.867L961.484 457.969ZM963.764 446.251L964.256 446.34C964.612 444.378 964.957 442.412 965.289 440.442L964.796 440.359L964.303 440.276C963.971 442.242 963.628 444.204 963.272 446.161L963.764 446.251ZM965.756 434.443L966.25 434.52C966.556 432.554 966.851 430.585 967.133 428.612L966.638 428.541L966.143 428.47C965.862 430.439 965.568 432.404 965.262 434.366L965.756 434.443ZM967.447 422.627L967.943 422.692C968.201 420.715 968.447 418.734 968.68 416.75L968.184 416.691L967.687 416.633C967.454 418.613 967.209 420.59 966.951 422.563L967.447 422.627ZM968.848 410.733L969.345 410.785C969.553 408.807 969.749 406.825 969.933 404.84L969.435 404.794L968.938 404.748C968.754 406.729 968.558 408.707 968.351 410.681L968.848 410.733ZM969.949 398.85L970.447 398.89C970.607 396.903 970.754 394.912 970.889 392.919L970.39 392.885L969.891 392.851C969.756 394.841 969.61 396.827 969.451 398.81L969.949 398.85ZM970.758 386.9L971.257 386.928C971.367 384.941 971.465 382.951 971.551 380.958L971.051 380.936L970.552 380.915C970.466 382.904 970.369 384.89 970.259 386.873L970.758 386.9ZM971.271 374.977L971.77 374.992C971.831 373.001 971.88 371.006 971.917 369.008L971.417 368.999L970.917 368.99C970.881 370.983 970.832 372.974 970.771 374.961L971.271 374.977Z" fill="#5C6937"></path></svg> 