<?xml version="1.0" encoding="UTF-8"?> <svg xmlns="http://www.w3.org/2000/svg" width="60" height="60" viewBox="0 0 60 60" fill="none"><path d="M33.7063 8.27901L38.4601 2.57318L39.1736 9.96544L39.2528 10.7863L39.944 10.3365L46.1684 6.28532L44.6713 13.5595L44.5051 14.3673L45.2982 14.1411L52.4401 12.1046L48.8654 18.6143L48.4685 19.3372L49.293 19.3549L56.7179 19.514L51.3833 24.6809L50.7909 25.2546L51.5736 25.5145L58.6217 27.8551L52.0011 31.22L51.2659 31.5937L51.9372 32.0727L57.9824 36.3868L50.6641 37.6507L49.8514 37.7911L50.3517 38.4468L54.8566 44.351L47.4909 43.4017L46.673 43.2963L46.9578 44.0702L49.5223 51.04L42.7636 47.9618L42.0131 47.62L42.0571 48.4435L42.4533 55.8596L36.9022 50.926L36.2858 50.3781L36.0851 51.178L34.2778 58.3814L30.4276 52.0308L30 51.3256L29.5724 52.0308L25.7222 58.3814L23.9149 51.178L23.7142 50.3781L23.0978 50.926L17.5467 55.8596L17.9429 48.4435L17.9869 47.62L17.2364 47.9618L10.4777 51.04L13.0422 44.0702L13.327 43.2963L12.5091 43.4017L5.14336 44.351L9.64833 38.4468L10.1486 37.7911L9.33592 37.6507L2.01765 36.3868L8.06277 32.0727L8.73407 31.5937L7.99887 31.22L1.37828 27.8551L8.42644 25.5145L9.20911 25.2546L8.61672 24.6809L3.28209 19.514L10.707 19.3549L11.5315 19.3372L11.1346 18.6143L7.55989 12.1046L14.7018 14.1411L15.4949 14.3673L15.3287 13.5595L13.8316 6.28532L20.056 10.3365L20.7472 10.7863L20.8264 9.96544L21.5399 2.57317L26.2937 8.27901L26.8216 8.91262L27.1393 8.15156L30 1.29803L32.8607 8.15156L33.1784 8.91262L33.7063 8.27901Z" stroke="#FDF6F0"></path></svg> 