<?xml version="1.0" encoding="UTF-8"?> <svg xmlns="http://www.w3.org/2000/svg" width="32" height="32" viewBox="0 0 32 32" fill="none"><path d="M15.9995 2.66669C23.3632 2.66669 29.3333 8.63605 29.3335 15.9997C29.3335 23.3635 23.3633 29.3337 15.9995 29.3337C8.63586 29.3335 2.6665 23.3634 2.6665 15.9997C2.66668 8.63616 8.63597 2.66686 15.9995 2.66669ZM13.5366 9.76044C13.3645 9.71434 13.0671 9.70408 12.7612 9.89911C12.4549 10.0944 11.6212 10.5408 11.2808 11.8112C10.9403 13.0822 11.5355 14.5579 11.6187 14.7653C11.7016 14.9724 12.6949 18.0345 14.9858 19.8474C15.5307 20.2785 15.9698 20.5663 16.313 20.7858C16.8788 21.1479 17.449 21.2712 17.9116 21.3239C18.4276 21.3827 19.6067 21.1085 19.9839 20.5632C20.3606 20.0175 20.4991 19.4997 20.4634 19.3747C20.4274 19.2499 20.2726 19.1393 20.0493 18.9411C19.8257 18.7427 18.7244 17.7778 18.5103 17.6276C18.2967 17.4781 18.1354 17.389 17.894 17.6013C17.6526 17.8137 17.0021 18.2632 16.8052 18.3952C16.6084 18.527 16.4515 18.5077 16.228 18.3093C16.004 18.1106 15.245 17.615 14.4946 16.4714C13.9107 15.5813 13.6191 14.597 13.5376 14.2975C13.4563 13.9987 13.6287 13.8946 13.7925 13.8005C13.9395 13.7159 14.131 13.5679 14.3003 13.4518C14.4696 13.3358 14.5423 13.2395 14.6743 13.0905C14.8065 12.9412 14.8039 12.7781 14.7739 12.6315C14.7438 12.4826 14.5683 11.0749 14.4917 10.5007C14.417 9.94171 14.1861 9.95231 14.0298 9.90204C13.8813 9.85416 13.7088 9.80656 13.5366 9.76044Z" fill="#FDF6F0"></path></svg> 