<?xml version="1.0" encoding="UTF-8"?> <svg xmlns="http://www.w3.org/2000/svg" width="300" height="388" viewBox="0 0 300 388" fill="none"><g clip-path="url(#clip0_3001_6853)"><g clip-path="url(#clip1_3001_6853)"><path d="M302.893 -214.613L297.317 -213.119L301.399 -209.036L302.893 -214.613ZM77.4851 10.7952L77.8387 11.1487L79.9258 9.06161L79.5722 8.70805L79.2187 8.3545L77.1316 10.4416L77.4851 10.7952ZM83.7465 4.53382L84.1 4.88738L88.2742 0.713149L87.9207 0.359595L87.5671 0.00604204L83.3929 4.18027L83.7465 4.53382ZM92.0949 -3.81463L92.4485 -3.46108L96.6227 -7.63531L96.2691 -7.98886L95.9156 -8.34242L91.7414 -4.16819L92.0949 -3.81463ZM100.443 -12.1631L100.797 -11.8095L104.971 -15.9838L104.618 -16.3373L104.264 -16.6909L100.09 -12.5166L100.443 -12.1631ZM108.792 -20.5115L109.145 -20.158L113.32 -24.3322L112.966 -24.6858L112.613 -25.0393L108.438 -20.8651L108.792 -20.5115ZM117.14 -28.86L117.494 -28.5065L121.668 -32.6807L121.315 -33.0342L120.961 -33.3878L116.787 -29.2136L117.14 -28.86ZM125.489 -37.2085L125.842 -36.8549L130.017 -41.0291L129.663 -41.3827L129.309 -41.7362L125.135 -37.562L125.489 -37.2085ZM133.837 -45.5569L134.191 -45.2034L138.365 -49.3776L138.011 -49.7311L137.658 -50.0847L133.484 -45.9105L133.837 -45.5569ZM142.186 -53.9054L142.539 -53.5518L146.713 -57.7261L146.36 -58.0796L146.006 -58.4332L141.832 -54.2589L142.186 -53.9054ZM150.534 -62.2538L150.888 -61.9003L155.062 -66.0745L154.708 -66.4281L154.355 -66.7816L150.181 -62.6074L150.534 -62.2538ZM158.883 -70.6023L159.236 -70.2487L163.41 -74.423L163.057 -74.7765L162.703 -75.1301L158.529 -70.9558L158.883 -70.6023ZM167.231 -78.9508L167.585 -78.5972L171.759 -82.7714L171.405 -83.125L171.052 -83.4785L166.877 -79.3043L167.231 -78.9508ZM175.579 -87.2992L175.933 -86.9456L180.107 -91.1199L179.754 -91.4734L179.4 -91.827L175.226 -87.6527L175.579 -87.2992ZM183.928 -95.6476L184.281 -95.2941L188.456 -99.4683L188.102 -99.8219L187.749 -100.175L183.574 -96.0012L183.928 -95.6476ZM192.276 -103.996L192.63 -103.643L196.804 -107.817L196.451 -108.17L196.097 -108.524L191.923 -104.35L192.276 -103.996ZM200.625 -112.345L200.978 -111.991L205.153 -116.165L204.799 -116.519L204.445 -116.872L200.271 -112.698L200.625 -112.345ZM208.973 -120.693L209.327 -120.339L213.501 -124.514L213.147 -124.867L212.794 -125.221L208.62 -121.047L208.973 -120.693ZM217.322 -129.041L217.675 -128.688L221.85 -132.862L221.496 -133.216L221.142 -133.569L216.968 -129.395L217.322 -129.041ZM225.67 -137.39L226.024 -137.036L230.198 -141.211L229.844 -141.564L229.491 -141.918L225.317 -137.743L225.67 -137.39ZM234.019 -145.738L234.372 -145.385L238.546 -149.559L238.193 -149.913L237.839 -150.266L233.665 -146.092L234.019 -145.738ZM242.367 -154.087L242.721 -153.733L246.895 -157.907L246.541 -158.261L246.188 -158.615L242.014 -154.44L242.367 -154.087ZM250.716 -162.435L251.069 -162.082L255.243 -166.256L254.89 -166.609L254.536 -166.963L250.362 -162.789L250.716 -162.435ZM259.064 -170.784L259.418 -170.43L263.592 -174.604L263.238 -174.958L262.885 -175.311L258.71 -171.137L259.064 -170.784ZM267.412 -179.132L267.766 -178.779L271.94 -182.953L271.587 -183.306L271.233 -183.66L267.059 -179.486L267.412 -179.132ZM275.761 -187.481L276.114 -187.127L280.289 -191.301L279.935 -191.655L279.582 -192.008L275.407 -187.834L275.761 -187.481ZM284.109 -195.829L284.463 -195.476L288.637 -199.65L288.284 -200.003L287.93 -200.357L283.756 -196.183L284.109 -195.829ZM292.458 -204.178L292.811 -203.824L296.986 -207.998L296.632 -208.352L296.279 -208.705L292.104 -204.531L292.458 -204.178Z" fill="#465128"></path><path d="M236.348 514.31L78.6392 356.601" stroke="#465128" stroke-dasharray="6 6"></path><path d="M80.1778 7.33324C57.1435 30.3675 38.886 57.7275 26.4479 87.8511C14.0097 117.975 7.63432 150.272 7.68581 182.899C7.7373 215.526 14.2146 247.843 26.748 278.006C39.2813 308.169 57.6252 335.587 80.7322 358.694" stroke="#465128" stroke-dasharray="6 6"></path><ellipse cx="88.2555" cy="366.987" rx="42.9749" ry="43.5189" transform="rotate(-45 88.2555 366.987)" fill="#5C6937"></ellipse><ellipse cx="9.14475" cy="194" rx="17.0449" ry="17.4075" transform="rotate(-45 9.14475 194)" fill="#5C6937"></ellipse><path d="M64.022 341.984L78.8797 355.62C84.6108 360.88 93.4119 360.886 99.1501 355.634L113.643 342.369L100.377 356.861C95.1252 362.599 95.1311 371.4 100.391 377.132L114.027 391.989L99.1696 378.353C93.4386 373.093 84.6374 373.087 78.8993 378.339L64.4067 391.605L77.6719 377.112C82.9242 371.374 82.9182 362.573 77.6583 356.842L64.022 341.984Z" fill="#465128"></path><circle cx="9.40123" cy="193.744" r="7.6158" transform="rotate(-45 9.40123 193.744)" fill="#465128"></circle><ellipse cx="77.4852" cy="10.0259" rx="25.5673" ry="26.1113" transform="rotate(-45 77.4852 10.0259)" fill="#5C6937"></ellipse><path d="M72.098 -8.95499C72.1171 -9.24046 72.4871 -9.33958 72.6464 -9.10195L78.7286 -0.0326892C78.8293 0.117495 79.039 0.145103 79.1751 0.0261038L87.3973 -7.15996C87.6127 -7.34825 87.9444 -7.15677 87.8891 -6.87605L85.7768 3.8376C85.7419 4.01501 85.8706 4.18282 86.051 4.19495L96.9463 4.92759C97.2318 4.94679 97.3309 5.31671 97.0933 5.47607L88.024 11.5582C87.8738 11.6589 87.8462 11.8686 87.9652 12.0048L95.1513 20.2269C95.3396 20.4424 95.1481 20.774 94.8674 20.7187L84.1537 18.6065C83.9763 18.5715 83.8085 18.7003 83.7964 18.8807L83.0637 29.7759C83.0445 30.0614 82.6746 30.1605 82.5153 29.9229L76.4331 20.8537C76.3324 20.7035 76.1227 20.6759 75.9866 20.7949L67.7644 27.9809C67.5489 28.1692 67.2173 27.9777 67.2726 27.697L69.3849 16.9834C69.4198 16.8059 69.2911 16.6381 69.1106 16.626L58.2154 15.8934C57.9299 15.8742 57.8308 15.5043 58.0684 15.3449L67.1377 9.26277C67.2879 9.16205 67.3155 8.95235 67.1965 8.81619L60.0104 0.594019C59.8221 0.378581 60.0136 0.0469187 60.2943 0.102263L71.008 2.21449C71.1854 2.24947 71.3532 2.12071 71.3653 1.94028L72.098 -8.95499Z" fill="#465128"></path><mask id="mask0_3001_6853" style="mask-type:alpha" maskUnits="userSpaceOnUse" x="122" y="56" width="278" height="278"><path d="M192.322 126.509L329.142 263.329" stroke="#FDF6F0"></path><path d="M140.854 125.856L380.239 264.066" stroke="#FDF6F0"></path><path d="M167.235 169.838L354.135 219.918" stroke="#FDF6F0"></path><path d="M122.6 194.917H399.019" stroke="#FDF6F0"></path><path d="M167.237 220.005L354.137 169.926" stroke="#FDF6F0"></path><path d="M140.851 263.983L380.237 125.774" stroke="#FDF6F0"></path><path d="M192.322 263.329L329.142 126.508" stroke="#FDF6F0"></path><path d="M191.342 314.474L329.551 75.0882" stroke="#FDF6F0"></path><path d="M235.647 288.415L285.727 101.515" stroke="#FDF6F0"></path><path d="M260.729 333.046L260.729 56.6272" stroke="#FDF6F0"></path><path d="M285.812 288.415L235.732 101.515" stroke="#FDF6F0"></path><path d="M329.798 314.801L191.589 75.4157" stroke="#FDF6F0"></path></mask><g mask="url(#mask0_3001_6853)"><path d="M160.817 95.8831C215.512 41.1883 304.19 41.1878 358.885 95.8824C413.58 150.577 413.58 239.256 358.885 293.951C304.19 348.646 215.512 348.645 160.817 293.95C106.123 239.256 106.123 150.578 160.817 95.8831ZM218.709 152.724C195.65 175.782 195.809 213.325 219.062 236.579C242.316 259.833 279.86 259.992 302.919 236.934C325.977 213.875 325.819 176.331 302.565 153.077C279.311 129.823 241.767 129.665 218.709 152.724Z" fill="#465128"></path></g></g></g><defs><clipPath id="clip0_3001_6853"><rect width="300" height="388" fill="white"></rect></clipPath><clipPath id="clip1_3001_6853"><rect width="780.082" height="780.082" fill="white" transform="translate(-146 -235)"></rect></clipPath></defs></svg> 