<?xml version="1.0" encoding="UTF-8"?> <svg xmlns="http://www.w3.org/2000/svg" width="274" height="214" viewBox="0 0 274 214" fill="none"><circle cx="11.9444" cy="11.9444" r="11.9444" transform="matrix(-4.37114e-08 -1 -1 4.37114e-08 163.32 139.809)" stroke="#3C481A"></circle><circle cx="5.83947" cy="5.83947" r="5.83947" transform="matrix(-4.37114e-08 -1 -1 4.37114e-08 14.6787 133.18)" fill="#3C481A"></circle><circle cx="52.2898" cy="52.2898" r="52.2898" transform="matrix(-4.37114e-08 -1 -1 4.37114e-08 129.345 179.896)" stroke="#3C481A"></circle><path d="M80.5059 66.291L80.5059 41.8714" stroke="#3C481A"></path><path d="M80.5059 212.809L80.5059 83.2785" stroke="#3C481A"></path><path d="M73.6045 188.389L73.6045 212.808" stroke="#3C481A"></path><path d="M73.6045 41.8711L73.6045 171.401" stroke="#3C481A"></path><path d="M271.692 2L271.692 48C271.692 92.1828 235.874 128 191.691 128L164.191 128" stroke="#3C481A" stroke-dasharray="6 6"></path></svg> 