<?xml version="1.0" encoding="UTF-8"?> <svg xmlns="http://www.w3.org/2000/svg" width="614" height="505" viewBox="0 0 614 505" fill="none"><path d="M610.002 32.832L605.002 29.9453L605.002 35.7188L610.002 32.832ZM291.227 33.332L294.178 33.332L294.178 32.332L291.227 32.332V33.332ZM300.081 33.332L305.985 33.332V32.332L300.081 32.332V33.332ZM311.888 33.332L317.791 33.332V32.332L311.888 32.332L311.888 33.332ZM323.694 33.332L329.598 33.332V32.332L323.694 32.332L323.694 33.332ZM335.501 33.332L341.404 33.332V32.332L335.501 32.332V33.332ZM347.307 33.332L353.211 33.332V32.332L347.307 32.332V33.332ZM359.114 33.332L365.017 33.332V32.332L359.114 32.332V33.332ZM370.92 33.332L376.824 33.332L376.824 32.332L370.92 32.332L370.92 33.332ZM382.727 33.332L388.63 33.332V32.332L382.727 32.332L382.727 33.332ZM394.533 33.332L400.437 33.332L400.437 32.332L394.533 32.332V33.332ZM406.34 33.332L412.243 33.332L412.243 32.332L406.34 32.332L406.34 33.332ZM418.146 33.332L424.05 33.332V32.332L418.146 32.332V33.332ZM429.953 33.332L435.856 33.332V32.332L429.953 32.332V33.332ZM441.759 33.332L447.663 33.332L447.663 32.332L441.759 32.332V33.332ZM453.566 33.332L459.469 33.332V32.332L453.566 32.332V33.332ZM465.372 33.332L471.276 33.332V32.332L465.372 32.332V33.332ZM477.179 33.332L483.082 33.332V32.332L477.179 32.332L477.179 33.332ZM488.985 33.332L494.889 33.332V32.332L488.985 32.332V33.332ZM500.792 33.332L506.695 33.332V32.332L500.792 32.332V33.332ZM512.598 33.332L518.502 33.332V32.332L512.598 32.332V33.332ZM524.405 33.332L530.308 33.332V32.332L524.405 32.332V33.332ZM536.211 33.332L542.115 33.332V32.332L536.211 32.332L536.211 33.332ZM548.018 33.332L553.921 33.332V32.332L548.018 32.332L548.018 33.332ZM559.824 33.332L565.728 33.332V32.332L559.824 32.332V33.332ZM571.631 33.332L577.534 33.332V32.332L571.631 32.332L571.631 33.332ZM583.437 33.332L589.341 33.332V32.332L583.437 32.332V33.332ZM595.244 33.332L601.147 33.332V32.332L595.244 32.332V33.332Z" fill="#91BBD8"></path><path d="M47.5156 501.202V278.168" stroke="#91BBD8" stroke-dasharray="6 6"></path><path d="M295.573 32.2871C262.998 32.2871 230.741 38.7236 200.646 51.2291C170.55 63.7345 143.204 82.0641 120.17 105.171C97.1357 128.278 78.8639 155.71 66.3979 185.901C53.9318 216.092 47.5156 248.45 47.5156 281.129" stroke="#91BBD8" stroke-dasharray="6 6"></path><ellipse cx="46.9749" cy="292.312" rx="42.9749" ry="43.5189" fill="#CAE7FB"></ellipse><ellipse cx="106.998" cy="120.413" rx="17.0449" ry="17.4075" fill="#CAE7FB"></ellipse><path d="M47.5182 257.498L48.3819 277.646C48.715 285.418 54.9342 291.646 62.7055 291.989L82.3333 292.857L62.7055 293.725C54.9342 294.069 48.715 300.296 48.3819 308.068L47.5182 328.216L46.6545 308.068C46.3214 300.296 40.1023 294.069 32.3309 293.725L12.7031 292.857L32.3309 291.989C40.1022 291.646 46.3214 285.418 46.6545 277.646L47.5182 257.498Z" fill="#91BBD8"></path><circle cx="107.358" cy="120.413" r="7.6158" fill="#91BBD8"></circle><ellipse cx="291.77" cy="32.2871" rx="25.5673" ry="26.1113" fill="#CAE7FB"></ellipse><path d="M301.378 15.0566C301.593 14.8683 301.925 15.0598 301.869 15.3405L299.757 26.0541C299.722 26.2316 299.851 26.3994 300.031 26.4115L310.927 27.1441C311.212 27.1633 311.311 27.5333 311.074 27.6926L302.004 33.7747C301.854 33.8755 301.827 34.0852 301.946 34.2213L309.132 42.4435C309.32 42.6589 309.128 42.9906 308.848 42.9352L298.134 40.823C297.957 40.788 297.789 40.9168 297.777 41.0972L297.044 51.9925C297.025 52.278 296.655 52.3771 296.496 52.1395L290.414 43.0702C290.313 42.92 290.103 42.8924 289.967 43.0114L281.745 50.1975C281.529 50.3858 281.198 50.1943 281.253 49.9136L283.365 39.1999C283.4 39.0225 283.271 38.8547 283.091 38.8426L272.196 38.1099C271.91 38.0907 271.811 37.7208 272.049 37.5614L281.118 31.4793C281.268 31.3786 281.296 31.1689 281.177 31.0327L273.991 22.8106C273.802 22.5951 273.994 22.2635 274.275 22.3188L284.988 24.431C285.166 24.466 285.334 24.3373 285.346 24.1568L286.078 13.2616C286.098 12.9761 286.467 12.877 286.627 13.1146L292.709 22.1839C292.81 22.334 293.019 22.3617 293.156 22.2427L301.378 15.0566Z" fill="#91BBD8"></path><circle cx="290.682" cy="137.276" r="24.4794" stroke="#91BBD8"></circle><circle cx="291.225" cy="429.397" r="11.9677" stroke="#91BBD8"></circle><circle cx="290.681" cy="289.593" r="107.165" stroke="#91BBD8"></circle><path d="M416.344 282.52H466.39" stroke="#91BBD8"></path><path d="M116.062 282.52H381.528" stroke="#91BBD8"></path><path d="M166.109 296.662H116.063" stroke="#91BBD8"></path><path d="M466.391 296.662H200.926" stroke="#91BBD8"></path></svg> 