<?xml version="1.0" encoding="UTF-8"?> <svg xmlns="http://www.w3.org/2000/svg" width="43" height="43" viewBox="0 0 43 43" fill="none"><path d="M20.978 2.83176C21.0705 2.56098 21.4534 2.56098 21.5459 2.83176L24.7563 12.2372C24.8148 12.4083 25.0102 12.4893 25.1725 12.4096L34.0933 8.02908C34.3501 7.90296 34.6209 8.17376 34.4948 8.43059L30.1143 17.3514C30.0346 17.5137 30.1156 17.7091 30.2867 17.7675L39.6921 20.978C39.9629 21.0705 39.9629 21.4534 39.6921 21.5459L30.2867 24.7563C30.1156 24.8148 30.0346 25.0102 30.1143 25.1725L34.4948 34.0933C34.6209 34.3501 34.3501 34.6209 34.0933 34.4948L25.1725 30.1143C25.0102 30.0346 24.8148 30.1156 24.7563 30.2867L21.5459 39.6921C21.4534 39.9629 21.0705 39.9629 20.978 39.6921L17.7675 30.2867C17.7091 30.1156 17.5137 30.0346 17.3514 30.1143L8.43059 34.4948C8.17376 34.6209 7.90296 34.3501 8.02908 34.0933L12.4096 25.1725C12.4893 25.0102 12.4083 24.8148 12.2372 24.7563L2.83176 21.5459C2.56098 21.4534 2.56098 21.0705 2.83176 20.978L12.2372 17.7675C12.4083 17.7091 12.4893 17.5137 12.4096 17.3514L8.02908 8.43059C7.90296 8.17376 8.17376 7.90296 8.43059 8.02908L17.3514 12.4096C17.5137 12.4893 17.7091 12.4083 17.7675 12.2372L20.978 2.83176Z" fill="#FDF6F0"></path></svg> 