<?xml version="1.0" encoding="UTF-8"?> <svg xmlns="http://www.w3.org/2000/svg" width="108" height="106" viewBox="0 0 108 106" fill="none"><path d="M37.8924 3.98616C37.6731 4.06838 37.4676 4.1369 37.4539 4.1506C37.4402 4.16431 37.2072 6.52133 36.9331 9.38538C36.6728 12.2357 36.4124 14.8668 36.3713 15.2231L36.2891 15.8672L37.0291 15.6205L37.7553 15.3739L37.8787 13.8528C37.9746 12.6605 38.0431 12.318 38.2213 12.2494C38.3446 12.1946 39.482 11.7972 40.7701 11.345L43.0861 10.5365L44.196 11.6328L45.306 12.7291L45.9501 12.5098C46.3201 12.3865 46.5942 12.2357 46.5668 12.1809C46.4845 11.9891 38.5913 3.89023 38.4405 3.86283C38.372 3.84912 38.1253 3.90394 37.8924 3.98616ZM42.0583 9.49501C41.9212 9.61834 38.3309 10.8106 38.2624 10.742C38.1939 10.6735 38.4679 6.75429 38.5776 6.20614C38.6324 5.95948 38.9065 6.17874 40.3727 7.67243C41.332 8.64539 42.0857 9.4676 42.0583 9.49501Z" fill="#FDF6F0"></path><path d="M55.0897 5.98735V6.52179L57.2548 6.60401C72.5069 7.22067 86.2791 14.9906 94.7479 27.735C98.9138 33.9975 101.326 40.5616 102.312 48.2904C102.614 50.6474 102.655 56.4577 102.395 58.6366C100.997 70.0928 96.3101 79.7539 88.3757 87.4827C80.6469 95.0197 71.3284 99.4048 60.2285 100.734C58.3922 100.953 52.5134 100.953 50.636 100.734C41.249 99.6378 33.1639 96.3215 25.8599 90.5249C24.0373 89.0997 20.1044 85.1531 18.5833 83.2346C12.2385 75.2728 8.68926 65.7488 8.26445 55.6081L8.18223 53.4292H7.63408H7.08594L7.16816 55.7177C7.82593 73.3406 18.2544 89.3464 34.1917 97.1437C39.2757 99.6378 44.3049 101.09 50.3619 101.83C52.2256 102.063 58.8582 102.05 60.7767 101.83C72.1507 100.474 81.9487 95.7734 89.8283 87.8938C104.107 73.6147 108.013 52.1137 99.6401 33.7235C93.3775 19.9376 80.825 9.78325 66.0526 6.57661C62.8596 5.87772 59.3789 5.46661 56.6382 5.46661H55.0897V5.98735Z" fill="#FDF6F0"></path><path d="M26.2399 10.0992C24.6366 10.661 23.1703 11.9492 22.4988 13.3743C22.1836 14.0458 22.1288 14.3473 22.1425 15.4025C22.1425 17.0469 22.4851 17.9239 23.5951 19.1024C25.3492 20.9798 27.624 21.3909 29.9673 20.2398C31.365 19.5547 32.8587 17.7321 33.0506 16.4714C33.078 16.2795 32.6943 15.6491 31.8721 14.5254C31.2006 13.6073 30.6113 12.8673 30.5702 12.8673C30.5291 12.8673 30.2688 13.0455 29.9947 13.251L29.4877 13.6347L30.5839 15.0873L31.6665 16.5536L31.3925 17.1017C31.0225 17.8143 30.118 18.6913 29.3232 19.0613C28.501 19.4724 27.1032 19.5547 26.1988 19.2532C25.8151 19.1161 25.2258 18.7736 24.8832 18.4721C23.0744 16.8825 23.0196 14.1966 24.7599 12.4973C25.5821 11.7162 26.4455 11.3188 27.6103 11.2229L28.5695 11.1544V10.5377V9.92103L27.7473 9.89362C27.2403 9.86621 26.6647 9.94844 26.2399 10.0992Z" fill="#FDF6F0"></path><path d="M15.2513 21.1441C13.8124 21.61 12.4147 22.8707 11.6884 24.3507C11.3321 25.0633 11.3047 25.2689 11.3047 26.6392C11.3047 28.0644 11.3321 28.1877 11.7295 28.9688C12.8258 31.0655 15.3473 32.3673 17.4987 31.9288C18.6498 31.7096 19.6228 31.1614 20.4724 30.2707C21.322 29.3799 21.7057 28.6948 22.0072 27.5025C22.3224 26.2966 22.1854 25.2552 21.5824 24.0081C20.6917 22.1992 18.9513 21.0756 16.9232 20.9933C16.2517 20.9659 15.6076 21.0207 15.2513 21.1441ZM18.3072 22.72C20.4176 23.6518 21.3494 26.1048 20.3765 28.0918C19.4583 29.9966 17.5946 30.9559 15.7584 30.4899C13.8262 29.9966 12.5928 28.4892 12.5791 26.6529C12.5791 25.2277 13.2232 23.967 14.388 23.1174C15.5254 22.2815 16.9643 22.1307 18.3072 22.72Z" fill="#FDF6F0"></path><path d="M62.7633 21.4583C61.7629 21.9791 61.3929 23.1576 61.9411 24.0757C62.0918 24.3224 62.7085 24.8431 63.3388 25.2542C64.764 26.1587 64.9147 26.3231 64.7092 26.7753C64.6133 26.9672 64.4077 27.1727 64.2159 27.2413C63.4896 27.529 61.9136 26.8302 61.4066 26.0079L61.1599 25.5968L60.79 26.0902L60.4062 26.5835L60.7625 27.0494C61.2011 27.625 62.5988 28.3238 63.5307 28.4335C64.5584 28.5568 65.4218 28.1457 65.7781 27.3646C66.3262 26.1587 66.0384 25.5694 64.3118 24.4731C62.9825 23.6235 62.7359 23.2809 63.0236 22.7602C63.3662 22.1161 64.8736 22.3354 65.7644 23.1576L66.2166 23.5687L66.5455 23.2672C66.9703 22.8698 66.9566 22.7191 66.5044 22.2943C65.504 21.3624 63.7088 20.965 62.7633 21.4583Z" fill="#FDF6F0"></path><path d="M53.0331 22.0077C44.7013 22.638 36.7669 26.6669 31.2718 33.0802C23.4059 42.2479 21.4189 54.9374 26.1055 66.1196C30.1207 75.6984 38.8636 82.8791 49.0454 84.9483C53.3346 85.8117 58.3501 85.7568 62.4886 84.7976C71.0122 82.8106 78.2477 77.5347 82.7699 70.0114C85.4284 65.5851 86.8947 60.6792 87.2236 55.1019L87.3195 53.43H86.7577C86.4014 53.43 86.1958 53.4985 86.1958 53.5945C86.1821 54.6359 85.8669 57.9248 85.6477 59.117C83.9484 68.6821 77.8229 76.8769 69.1348 81.2209C59.3094 86.1131 47.6613 85.4142 38.5073 79.371C28.6407 72.848 23.3648 61.1315 25.0229 49.456C25.9548 43.0016 28.8188 37.1501 33.3684 32.4772C39.028 26.6532 45.8935 23.5562 54.1705 23.0628L55.7738 22.9806V22.4462V21.9117L54.7186 21.9391C54.1294 21.9528 53.3757 21.9803 53.0331 22.0077Z" fill="#FDF6F0"></path><path d="M69.2601 24.7476C68.8353 25.4876 68.0541 26.8169 67.5334 27.6939C67.0264 28.5709 66.6016 29.352 66.6016 29.4342C66.6016 29.5713 67.3004 29.9961 67.5334 29.9961C67.6019 29.9961 67.8212 29.7083 68.013 29.3383C68.2186 28.982 68.4241 28.612 68.4927 28.5161C68.5886 28.3791 68.8901 28.4887 69.8082 28.9683C71.5486 29.8728 72.453 29.8042 73.426 28.708C74.2756 27.735 74.2756 26.5017 73.426 25.5424C73.0834 25.1313 70.9045 23.7198 70.2467 23.4732C70.1097 23.4184 69.8082 23.8021 69.2601 24.7476ZM72.3845 26.1317C72.8641 26.5702 72.96 27.0087 72.7134 27.598C72.453 28.2146 71.8363 28.5161 71.1649 28.3243C70.7949 28.2283 69.4519 27.5294 69.2327 27.3239C69.219 27.3102 69.5067 26.762 69.8904 26.118L70.5893 24.9395L71.3019 25.3643C71.6993 25.5972 72.1789 25.9398 72.3845 26.1317Z" fill="#FDF6F0"></path><path d="M76.1266 30.1887C74.9206 30.6683 73.331 31.285 72.591 31.5727L71.2344 32.0935L71.7003 32.5457L72.1525 33.0116L73.0844 32.6416L74.0162 32.2716L75.181 33.4364L76.3458 34.6012L76.0032 35.5057L75.6743 36.4101L76.1403 36.8623C76.3869 37.109 76.6199 37.2872 76.6473 37.246C76.6747 37.2186 77.2777 35.5742 77.9765 33.5872L79.251 29.9968L78.9358 29.6542C78.7577 29.4624 78.5521 29.3117 78.4699 29.3254C78.3877 29.3254 77.3325 29.7091 76.1266 30.1887ZM77.3736 31.792C77.1954 32.2716 76.9762 32.8472 76.8803 33.0664L76.7295 33.4638L75.9895 32.7376C75.5784 32.3264 75.2358 31.9564 75.2358 31.9016C75.2358 31.8057 77.6066 30.819 77.6751 30.8739C77.6888 30.9013 77.5517 31.3124 77.3736 31.792Z" fill="#FDF6F0"></path><path d="M6.81128 32.8866L6.56462 33.5718L7.03054 34.1474C7.29091 34.4626 8.22275 35.5863 9.08608 36.6277C9.96311 37.6829 10.6483 38.5736 10.6209 38.6148C10.5798 38.6422 9.18201 38.9848 7.49646 39.3685C4.19389 40.1359 4.30352 40.081 4.04315 41.1225C3.96093 41.4377 3.98834 41.5062 4.19389 41.4925C4.34463 41.4925 6.1261 41.1088 8.15424 40.6292L11.8542 39.7659L13.6083 40.3551L15.3623 40.9444L15.4857 40.6018C15.8694 39.5877 15.9516 39.6699 14.0605 39.0396L12.3338 38.464L9.71645 35.3259C8.27757 33.5992 7.09906 32.1878 7.08535 32.1878C7.07165 32.1878 6.94832 32.5029 6.81128 32.8866Z" fill="#FDF6F0"></path><path d="M80.0265 35.3544C78.3958 36.0944 77.5598 37.7388 77.971 39.438C78.2724 40.7262 79.3002 41.8636 80.4376 42.1925C80.698 42.261 80.9172 42.3021 80.9309 42.2884C80.9583 42.261 81.0132 42.0006 81.068 41.6991C81.1502 41.1647 81.1365 41.1373 80.7528 41.0551C79.4372 40.7947 78.6561 38.8762 79.3413 37.5332C79.8346 36.5603 81.0406 36.0258 82.082 36.2999C83.2468 36.6151 84.1239 37.8895 83.9594 39.0406C83.8909 39.5614 83.9046 39.5888 84.3842 39.7121C84.6446 39.7943 84.9187 39.8217 84.9872 39.7806C85.2065 39.6436 85.0968 37.9032 84.8365 37.314C84.4802 36.5329 83.6854 35.6833 82.9865 35.3544C82.2054 34.9707 80.8761 34.9707 80.0265 35.3544Z" fill="#FDF6F0"></path><path d="M83.6747 42.9465C81.8658 43.4947 80.3721 43.988 80.3447 44.0702C80.3036 44.1936 81.6191 48.7569 81.7288 48.8665C81.7836 48.935 82.7702 48.6472 82.7702 48.5787C82.7702 48.5376 81.8932 45.5502 81.7425 45.0843C81.6739 44.8513 81.7699 44.7828 82.4139 44.6047C82.825 44.4813 83.2362 44.3854 83.3458 44.3854C83.4691 44.3854 83.6884 44.9198 83.9899 45.975C84.3461 47.1809 84.4969 47.5372 84.6476 47.4824C84.7573 47.4413 84.9217 47.4002 85.0039 47.4002C85.5247 47.3865 85.5384 47.1809 85.0587 45.5776L84.5791 43.9743L85.278 43.7687C86.4017 43.4399 86.2235 43.2343 86.9635 45.6873C87.1554 46.3587 87.3472 46.9617 87.3746 47.0165C87.4569 47.1535 88.3887 46.8247 88.3887 46.6602C88.3887 46.4409 87.1143 42.138 87.0321 42.0421C86.9909 42.001 85.4698 42.4121 83.6747 42.9465Z" fill="#FDF6F0"></path><path d="M53.805 47.1389C52.8869 47.3581 51.6261 48.0433 50.8039 48.7696L50.0091 49.4822L48.5291 49.5233C47.3643 49.5507 46.8984 49.6329 46.3366 49.8796C45.6377 50.1811 45.2266 50.6607 45.2266 51.1814C45.2266 51.9077 46.3091 53.0177 47.9125 53.9084C48.5839 54.2784 48.6114 54.3332 48.7758 55.1144C49.4199 58.2525 52.2702 60.5547 55.4769 60.5547C57.2035 60.5547 58.9987 59.7873 60.2731 58.4854L61.0542 57.718L62.5616 57.6495C64.7816 57.5536 65.782 57.0329 65.782 55.9777C65.782 55.1692 64.5624 53.977 62.9316 53.1821C62.3013 52.867 62.1916 52.7436 62.0683 52.264C61.4379 49.7425 59.6016 47.824 57.2172 47.1937C56.3402 46.9744 54.6546 46.947 53.805 47.1389ZM57.8887 48.6874C59.8072 49.6329 60.972 51.3733 61.0679 53.4699C61.1227 54.3881 61.0679 54.7581 60.8213 55.4844L60.5061 56.3751L59.7524 56.334C58.6561 56.2792 55.9291 55.7036 54.0654 55.1418C51.9002 54.484 49.8721 53.6892 49.7899 53.4836C49.6802 53.1959 49.9954 51.9351 50.3791 51.1814C50.7902 50.3592 51.6124 49.4685 52.4895 48.9066C53.4213 48.3037 54.4217 48.0707 55.7509 48.1392C56.7239 48.1803 57.0528 48.2626 57.8887 48.6874ZM49.1047 50.6333C49.2965 50.7018 49.2965 50.7703 49.1184 51.1814C49.0088 51.4281 48.858 51.9488 48.7758 52.3325L48.6251 53.0177L48.0906 52.7162C47.4054 52.3325 46.638 51.7022 46.4599 51.3733C46.268 51.017 46.6928 50.7977 47.8302 50.6881C48.3236 50.6333 48.7621 50.5785 48.8169 50.5648C48.858 50.5648 48.9951 50.5922 49.1047 50.6333ZM63.3153 54.6895C64.3705 55.4021 64.8501 55.9777 64.5486 56.1695C64.2198 56.3751 63.0961 56.5806 62.3287 56.5806C61.7257 56.5806 61.6572 56.5532 61.7394 56.334C61.9039 55.9092 62.219 54.6073 62.219 54.3607C62.219 54.0044 62.3424 54.0455 63.3153 54.6895ZM52.3661 55.7721C54.4765 56.4847 57.3543 57.1973 58.6972 57.348C59.122 57.4029 59.5194 57.4851 59.5468 57.5399C59.6428 57.6906 58.752 58.4443 58.0668 58.7869C55.2028 60.2669 51.8043 59.1569 50.3654 56.2655C49.8173 55.1829 49.7625 54.854 50.1325 55.0047C50.2558 55.0595 51.2699 55.4021 52.3661 55.7721Z" fill="#FDF6F0"></path></svg> 