<?xml version="1.0" encoding="UTF-8"?> <svg xmlns="http://www.w3.org/2000/svg" width="174" height="32" viewBox="0 0 174 32" fill="none"><path d="M21.2099 5.53122C19.1272 5.5299 17.0908 6.14332 15.3585 7.29389C13.6261 8.44445 12.2757 10.0804 11.478 11.9949C10.6804 13.9093 10.4713 16.0162 10.8773 18.0489C11.2833 20.0816 12.2862 21.9487 13.7589 23.4142C15.2317 24.8796 17.1082 25.8775 19.151 26.2815C21.1938 26.6854 23.3112 26.4774 25.2351 25.6837C27.1591 24.89 28.8033 23.5463 29.9596 21.8226C31.1159 20.0988 31.7324 18.0726 31.731 16.0001C31.7275 13.2247 30.6179 10.5639 28.6455 8.60141C26.6732 6.63887 23.9992 5.53477 21.2099 5.53122ZM21.2099 27.2527C18.973 27.254 16.7859 26.5952 14.9253 25.3595C13.0648 24.1239 11.6142 22.3669 10.7573 20.3109C9.90033 18.2549 9.67542 15.9922 10.111 13.809C10.5466 11.6257 11.6231 9.6201 13.2044 8.04573C14.7857 6.47136 16.8007 5.39899 18.9945 4.96427C21.1884 4.52954 23.4625 4.75199 25.5293 5.60347C27.5961 6.45495 29.3626 7.89722 30.6056 9.74784C31.8485 11.5985 32.5119 13.7743 32.5119 16.0001C32.5083 18.9822 31.3167 21.8413 29.1981 23.9506C27.0795 26.0599 24.2069 27.2474 21.2099 27.2527Z" fill="#242424"></path><path d="M33.1381 22.2291C28.7439 22.0864 24.3836 21.4116 20.1534 20.2197C16.0821 19.1919 12.1431 17.7019 8.41388 15.779C6.17234 14.5533 3.60096 12.7448 4.05196 11.0904C4.61739 8.96717 9.52455 9.08103 12.3988 9.31546L12.3315 10.1125C7.13492 9.64366 5.02801 10.4541 4.80587 11.2847C4.61739 11.9545 5.56651 13.3342 8.79083 15.0958C12.4637 16.9965 16.344 18.4708 20.3553 19.4897C30.1157 22.0885 37.4529 21.921 37.9308 20.1594C38.153 19.3222 36.7394 17.5673 32.014 15.3704L32.3506 14.7006C34.9623 15.9129 39.2569 18.2773 38.6915 20.3939C38.328 21.6665 36.174 22.2291 33.1381 22.2291Z" fill="#242424"></path><path d="M170 21.0167V21.8137H161.512V9.59667H169.717V10.4004H162.42V15.2163H168.963V16.0066H162.42V21.0167H170ZM152.99 21.9008C151.853 21.9196 150.73 21.6449 149.732 21.1038C148.786 20.5808 147.998 19.8153 147.45 18.8867C146.892 17.9195 146.606 16.8205 146.622 15.7052C146.606 14.5921 146.892 13.4954 147.45 12.5304C147.995 11.6 148.784 10.8339 149.732 10.3134C150.606 9.85427 151.567 9.58467 152.554 9.52233C153.54 9.45998 154.528 9.60631 155.453 9.95166C156.18 10.2145 156.835 10.6435 157.365 11.2042L156.806 11.7802C156.308 11.2978 155.716 10.9209 155.067 10.6723C154.418 10.4236 153.725 10.3084 153.03 10.3334C152.055 10.3149 151.09 10.5455 150.23 11.0032C149.401 11.4534 148.714 12.1235 148.244 12.9389C147.761 13.7713 147.513 14.7175 147.524 15.6784C147.512 16.6457 147.761 17.5986 148.244 18.438C148.716 19.2481 149.403 19.9132 150.23 20.3603C151.09 20.818 152.055 21.0486 153.03 21.0301C153.722 21.0583 154.412 20.9477 155.059 20.7049C155.707 20.4621 156.299 20.092 156.8 19.6168L157.358 20.1928C156.834 20.7694 156.182 21.2166 155.453 21.4989C154.666 21.7892 153.829 21.9256 152.99 21.9008ZM141.695 17.6275L138.47 10.5746L135.259 17.6275H141.695ZM142.031 18.3777H134.909L133.348 21.8137H132.378L138.033 9.59667H138.921L144.576 21.8137H143.606L142.031 18.3777ZM125.916 17.0381C126.992 17.0981 128.054 16.7805 128.918 16.1406C129.266 15.8384 129.54 15.461 129.719 15.0372C129.897 14.6134 129.976 14.1545 129.948 13.6958C129.976 13.2381 129.897 12.7802 129.719 12.3575C129.54 11.9348 129.266 11.5585 128.918 11.2578C128.054 10.6192 126.99 10.3081 125.916 10.3803H122.409V16.9979L125.916 17.0381ZM125.916 9.61677C127.22 9.54104 128.507 9.93319 129.544 10.7219C129.989 11.0853 130.343 11.5471 130.576 12.0703C130.81 12.5936 130.918 13.164 130.891 13.736C130.915 14.3087 130.806 14.8792 130.573 15.4031C130.339 15.9271 129.987 16.3903 129.544 16.7568C128.502 17.5331 127.216 17.9174 125.916 17.8418H122.409V21.8606H121.514V9.59667L125.916 9.61677ZM112.884 21.9008C112.005 21.906 111.132 21.754 110.306 21.452C109.591 21.1967 108.942 20.7847 108.408 20.2464L108.812 19.5766C109.303 20.0693 109.896 20.4508 110.549 20.6952C111.289 20.9713 112.073 21.1119 112.864 21.1104C113.797 21.1722 114.726 20.9377 115.516 20.4407C115.794 20.2489 116.021 19.9925 116.177 19.6937C116.333 19.3949 116.414 19.0627 116.412 18.726C116.423 18.4876 116.386 18.2494 116.304 18.0252C116.222 17.801 116.096 17.5952 115.934 17.4199C115.605 17.0849 115.205 16.8284 114.762 16.6697C114.141 16.452 113.507 16.2709 112.864 16.1272C112.127 15.9462 111.401 15.7225 110.69 15.4574C110.157 15.2509 109.681 14.9202 109.303 14.4929C108.913 13.9902 108.715 13.3658 108.745 12.7313C108.738 12.1566 108.902 11.5928 109.216 11.1104C109.565 10.5799 110.067 10.1666 110.656 9.92487C111.428 9.60771 112.258 9.45704 113.093 9.48281C113.778 9.48051 114.459 9.58215 115.112 9.78421C115.721 9.95626 116.297 10.2279 116.815 10.588L116.479 11.298C115.98 10.9586 115.43 10.7008 114.85 10.5344C114.287 10.3638 113.702 10.2758 113.113 10.2732C112.203 10.2101 111.298 10.4454 110.535 10.943C110.258 11.1455 110.034 11.4112 109.882 11.7177C109.73 12.0242 109.654 12.3626 109.66 12.7045C109.644 12.9479 109.677 13.192 109.758 13.4222C109.839 13.6524 109.966 13.864 110.131 14.0441C110.455 14.3803 110.85 14.6391 111.289 14.801C111.915 15.0235 112.553 15.2091 113.201 15.3569C113.933 15.533 114.652 15.7567 115.355 16.0267C115.877 16.2295 116.339 16.5587 116.701 16.9845C117.108 17.4583 117.315 18.0702 117.28 18.6925C117.286 19.2721 117.115 19.8398 116.789 20.3201C116.437 20.8498 115.933 21.2608 115.341 21.4989C114.559 21.8007 113.722 21.9376 112.884 21.9008ZM97.7051 17.6275L94.4808 10.5746L91.27 17.6275H97.7051ZM98.0417 18.3777H90.9199L89.3583 21.8137H88.389L94.0365 9.59667H94.9318L100.579 21.8137H99.6168L98.0417 18.3777ZM84.478 15.7588H85.3396V20.3335C84.7759 20.8576 84.1056 21.255 83.3741 21.4989C82.595 21.7677 81.7753 21.9014 80.9508 21.8941C79.801 21.9131 78.6654 21.6387 77.6524 21.0971C76.6999 20.5788 75.9048 19.8154 75.3503 18.8867C74.7942 17.9189 74.5105 16.8199 74.5291 15.7052C74.5114 14.5928 74.7951 13.4961 75.3503 12.5304C75.8991 11.5978 76.6926 10.8314 77.6457 10.3134C78.6649 9.76826 79.8073 9.49157 80.9643 9.5096C81.8085 9.49926 82.647 9.6493 83.4347 9.95166C84.1716 10.2117 84.8392 10.6355 85.3868 11.1908L84.8213 11.7802C84.3351 11.286 83.7408 10.91 83.0846 10.6817C82.409 10.441 81.6953 10.323 80.9777 10.3334C79.9848 10.3131 79.0028 10.5436 78.1236 11.0032C77.2961 11.4554 76.6092 12.125 76.1379 12.9389C75.6553 13.7713 75.4065 14.7175 75.4176 15.6784C75.3947 16.6298 75.6334 17.5694 76.1079 18.3957C76.5824 19.222 77.2748 19.9036 78.1102 20.367C78.984 20.828 79.962 21.0586 80.9508 21.0368C82.211 21.0824 83.4474 20.6866 84.4444 19.9182L84.478 15.7588ZM65.0514 21.1171C66.023 21.1383 66.9833 20.9074 67.8381 20.4474C68.6563 19.9956 69.3357 19.3312 69.8037 18.525C70.287 17.6857 70.5357 16.7328 70.5239 15.7655C70.5351 14.8046 70.2863 13.8584 69.8037 13.026C69.3381 12.2145 68.6584 11.5451 67.8381 11.0903C66.9833 10.6302 66.023 10.3994 65.0514 10.4205C64.0735 10.4011 63.107 10.6317 62.2444 11.0903C61.4255 11.5471 60.7463 12.216 60.2788 13.026C59.7962 13.8584 59.5474 14.8046 59.5586 15.7655C59.5468 16.7328 59.7955 17.6857 60.2788 18.525C60.7487 19.3297 61.4277 19.9938 62.2444 20.4474C63.1101 20.8943 64.0765 21.1134 65.0514 21.0837V21.1171ZM65.0514 21.9343C63.9123 21.953 62.7877 21.6784 61.7867 21.1372C60.8353 20.6078 60.043 19.8356 59.4913 18.9001C58.9348 17.9395 58.6487 16.8474 58.6633 15.7387C58.6486 14.6321 58.9347 13.5421 59.4913 12.584C60.04 11.6514 60.8335 10.885 61.7867 10.3669C62.7797 9.79921 63.9061 9.50339 65.0514 9.5096C66.1909 9.49387 67.3153 9.7707 68.3161 10.3134C69.2663 10.8282 70.0541 11.5958 70.5913 12.5304C71.159 13.4919 71.45 14.5902 71.4327 15.7052C71.4509 16.8224 71.1598 17.9231 70.5913 18.8867C70.0521 19.8198 69.2649 20.5869 68.3161 21.1038C67.3147 21.6441 66.1903 21.9186 65.0514 21.9008V21.9343ZM52.0262 17.6074V21.8137H51.1175V17.6074L46.1699 9.56988H47.1527L51.6089 16.8104L56.0448 9.59667H56.9737L52.0262 17.6074Z" fill="#242424"></path></svg> 