<?xml version="1.0" encoding="UTF-8"?> <svg xmlns="http://www.w3.org/2000/svg" width="2242" height="33" viewBox="0 0 2242 33" fill="none"><path fill-rule="evenodd" clip-rule="evenodd" d="M-5.92156e-07 16.4888L3.01205 16.4888L3.01205 15.4888L-4.1731e-07 15.4888L-5.92156e-07 16.4888ZM9.03614 16.4888L15.0602 16.4888L15.0602 15.4888L9.03614 15.4888L9.03614 16.4888ZM21.0843 16.4888L27.1084 16.4888L27.1084 15.4888L21.0843 15.4888L21.0843 16.4888ZM33.1325 16.4888L39.1566 16.4888L39.1566 15.4888L33.1325 15.4888L33.1325 16.4888ZM45.1807 16.4888L51.2048 16.4888L51.2048 15.4888L45.1807 15.4888L45.1807 16.4888ZM57.2289 16.4888L63.253 16.4888L63.253 15.4888L57.2289 15.4888L57.2289 16.4888ZM69.2771 16.4888L75.3012 16.4888L75.3012 15.4888L69.2771 15.4888L69.2771 16.4888ZM81.3253 16.4888L87.3494 16.4888L87.3494 15.4888L81.3253 15.4888L81.3253 16.4888ZM93.3735 16.4888L99.3976 16.4888L99.3976 15.4888L93.3735 15.4888L93.3735 16.4888ZM105.422 16.4888L111.446 16.4888L111.446 15.4888L105.422 15.4888L105.422 16.4888ZM117.47 16.4888L123.494 16.4888L123.494 15.4888L117.47 15.4888L117.47 16.4888ZM129.518 16.4888L135.542 16.4888L135.542 15.4888L129.518 15.4888L129.518 16.4888ZM141.566 16.4888L147.59 16.4888L147.59 15.4888L141.566 15.4888L141.566 16.4888ZM153.614 16.4888L159.639 16.4888L159.639 15.4888L153.614 15.4888L153.614 16.4888ZM165.663 16.4888L171.687 16.4888L171.687 15.4888L165.663 15.4888L165.663 16.4888ZM177.711 16.4888L183.735 16.4888L183.735 15.4888L177.711 15.4888L177.711 16.4888ZM189.759 16.4888L195.783 16.4888L195.783 15.4888L189.759 15.4888L189.759 16.4888ZM201.807 16.4888L207.831 16.4888L207.831 15.4888L201.807 15.4888L201.807 16.4888ZM213.855 16.4888L219.879 16.4888L219.879 15.4888L213.855 15.4888L213.855 16.4888ZM225.904 16.4888L231.928 16.4888L231.928 15.4888L225.904 15.4888L225.904 16.4888ZM237.952 16.4888L243.976 16.4888L243.976 15.4888L237.952 15.4888L237.952 16.4888ZM250 16.4888L256.024 16.4888L256.024 15.4888L250 15.4888L250 16.4888ZM262.048 16.4888L268.072 16.4888L268.072 15.4888L262.048 15.4888L262.048 16.4888ZM274.096 16.4888L280.12 16.4888L280.12 15.4888L274.096 15.4888L274.096 16.4888ZM286.145 16.4888L292.169 16.4888L292.169 15.4888L286.145 15.4888L286.145 16.4888ZM298.193 16.4888L304.217 16.4888L304.217 15.4888L298.193 15.4888L298.193 16.4888ZM310.241 16.4888L316.265 16.4888L316.265 15.4888L310.241 15.4888L310.241 16.4888ZM322.289 16.4888L328.313 16.4888L328.313 15.4888L322.289 15.4888L322.289 16.4888ZM334.337 16.4889L340.362 16.4889L340.362 15.4889L334.337 15.4889L334.337 16.4889ZM346.386 16.4889L352.41 16.4889L352.41 15.4889L346.386 15.4889L346.386 16.4889ZM358.434 16.4889L364.458 16.4889L364.458 15.4889L358.434 15.4889L358.434 16.4889ZM370.482 16.4889L376.506 16.4889L376.506 15.4889L370.482 15.4889L370.482 16.4889ZM382.53 16.4889L388.554 16.4889L388.554 15.4889L382.53 15.4889L382.53 16.4889ZM394.579 16.4889L400.603 16.4889L400.603 15.4889L394.579 15.4889L394.579 16.4889ZM406.627 16.4889L412.651 16.4889L412.651 15.4889L406.627 15.4889L406.627 16.4889ZM418.675 16.4889L424.699 16.4889L424.699 15.4889L418.675 15.4889L418.675 16.4889ZM430.723 16.4889L436.747 16.4889L436.747 15.4889L430.723 15.4889L430.723 16.4889ZM442.771 16.4889L448.796 16.4889L448.796 15.4889L442.771 15.4889L442.771 16.4889ZM454.82 16.4889L460.844 16.4889L460.844 15.4889L454.82 15.4889L454.82 16.4889ZM466.868 16.4889L472.892 16.4889L472.892 15.4889L466.868 15.4889L466.868 16.4889ZM478.916 16.4889L484.94 16.4889L484.94 15.4889L478.916 15.4889L478.916 16.4889ZM490.964 16.4889L496.988 16.4889L496.988 15.4889L490.964 15.4889L490.964 16.4889ZM503.012 16.4889L509.037 16.4889L509.037 15.4889L503.012 15.4889L503.012 16.4889ZM515.061 16.4889L521.085 16.4889L521.085 15.4889L515.061 15.4889L515.061 16.4889ZM527.109 16.4889L533.133 16.4889L533.133 15.4889L527.109 15.4889L527.109 16.4889ZM539.157 16.4889L545.181 16.4889L545.181 15.4889L539.157 15.4889L539.157 16.4889ZM551.205 16.4889L557.229 16.4889L557.229 15.4889L551.205 15.4889L551.205 16.4889ZM563.254 16.4889L569.278 16.4889L569.278 15.4889L563.254 15.4889L563.254 16.4889ZM575.302 16.4889L581.326 16.4889L581.326 15.4889L575.302 15.4889L575.302 16.4889ZM587.35 16.4889L593.374 16.4889L593.374 15.4889L587.35 15.4889L587.35 16.4889ZM599.398 16.4889L605.422 16.4889L605.422 15.4889L599.398 15.4889L599.398 16.4889ZM611.446 16.4889L617.471 16.4889L617.471 15.4889L611.446 15.4889L611.446 16.4889ZM623.495 16.4889L629.519 16.4889L629.519 15.4889L623.495 15.4889L623.495 16.4889ZM635.543 16.4889L641.567 16.4889L641.567 15.4889L635.543 15.4889L635.543 16.4889ZM647.591 16.4889L653.615 16.4889L653.615 15.4889L647.591 15.4889L647.591 16.4889ZM659.639 16.4889L665.663 16.4889L665.663 15.4889L659.639 15.4889L659.639 16.4889ZM671.687 16.4889L677.712 16.4889L677.712 15.4889L671.687 15.4889L671.687 16.4889ZM683.736 16.4889L689.76 16.4889L689.76 15.4889L683.736 15.4889L683.736 16.4889ZM695.784 16.4889L701.808 16.4889L701.808 15.4889L695.784 15.4889L695.784 16.4889ZM707.832 16.4889L713.856 16.4889L713.856 15.4889L707.832 15.4889L707.832 16.4889ZM719.88 16.4889L725.904 16.4889L725.904 15.4889L719.88 15.4889L719.88 16.4889ZM780.121 16.4889L786.146 16.4889L786.146 15.4889L780.121 15.4889L780.121 16.4889ZM792.17 16.4889L798.194 16.4889L798.194 15.4889L792.17 15.4889L792.17 16.4889ZM804.218 16.4889L810.242 16.4889L810.242 15.4889L804.218 15.4889L804.218 16.4889ZM816.266 16.4889L822.29 16.4889L822.29 15.4889L816.266 15.4889L816.266 16.4889ZM828.314 16.4889L834.338 16.4889L834.338 15.4889L828.314 15.4889L828.314 16.4889ZM840.363 16.4889L846.387 16.4889L846.387 15.4889L840.363 15.4889L840.363 16.4889ZM852.411 16.4889L858.435 16.489L858.435 15.489L852.411 15.4889L852.411 16.4889ZM864.459 16.489L870.483 16.489L870.483 15.489L864.459 15.489L864.459 16.489ZM876.507 16.489L882.531 16.489L882.531 15.489L876.507 15.489L876.507 16.489ZM888.555 16.489L894.58 16.489L894.58 15.489L888.555 15.489L888.555 16.489ZM900.604 16.489L906.628 16.489L906.628 15.489L900.604 15.489L900.604 16.489ZM912.652 16.489L918.676 16.489L918.676 15.489L912.652 15.489L912.652 16.489ZM924.7 16.489L930.724 16.489L930.724 15.489L924.7 15.489L924.7 16.489ZM936.748 16.489L942.772 16.489L942.772 15.489L936.748 15.489L936.748 16.489ZM948.797 16.489L954.821 16.489L954.821 15.489L948.797 15.489L948.797 16.489ZM960.845 16.489L966.869 16.489L966.869 15.489L960.845 15.489L960.845 16.489ZM972.893 16.489L978.917 16.489L978.917 15.489L972.893 15.489L972.893 16.489ZM984.941 16.489L990.965 16.489L990.965 15.489L984.941 15.489L984.941 16.489ZM1000 15.989L995 13.1022L995 18.8757L1000 15.989Z" fill="#E0D6CE"></path><path fill-rule="evenodd" clip-rule="evenodd" d="M1245.01 16.4888L1242 16.4888L1242 15.4888L1245.01 15.4888L1245.01 16.4888ZM1257.06 16.4888L1251.04 16.4888L1251.04 15.4888L1257.06 15.4888L1257.06 16.4888ZM1269.11 16.4888L1263.08 16.4888L1263.08 15.4888L1269.11 15.4888L1269.11 16.4888ZM1281.16 16.4888L1275.13 16.4888L1275.13 15.4888L1281.16 15.4888L1281.16 16.4888ZM1293.2 16.4888L1287.18 16.4888L1287.18 15.4888L1293.2 15.4888L1293.2 16.4888ZM1305.25 16.4888L1299.23 16.4888L1299.23 15.4888L1305.25 15.4888L1305.25 16.4888ZM1317.3 16.4888L1311.28 16.4888L1311.28 15.4888L1317.3 15.4888L1317.3 16.4888ZM1329.35 16.4888L1323.33 16.4888L1323.33 15.4888L1329.35 15.4888L1329.35 16.4888ZM1341.4 16.4888L1335.37 16.4888L1335.37 15.4888L1341.4 15.4888L1341.4 16.4888ZM1353.45 16.4888L1347.42 16.4888L1347.42 15.4888L1353.45 15.4888L1353.45 16.4888ZM1365.49 16.4888L1359.47 16.4888L1359.47 15.4888L1365.49 15.4888L1365.49 16.4888ZM1377.54 16.4888L1371.52 16.4888L1371.52 15.4888L1377.54 15.4888L1377.54 16.4888ZM1389.59 16.4888L1383.57 16.4888L1383.57 15.4888L1389.59 15.4888L1389.59 16.4888ZM1401.64 16.4888L1395.61 16.4888L1395.61 15.4888L1401.64 15.4888L1401.64 16.4888ZM1413.69 16.4888L1407.66 16.4888L1407.66 15.4888L1413.69 15.4888L1413.69 16.4888ZM1425.73 16.4888L1419.71 16.4888L1419.71 15.4888L1425.73 15.4888L1425.73 16.4888ZM1437.78 16.4888L1431.76 16.4888L1431.76 15.4888L1437.78 15.4888L1437.78 16.4888ZM1449.83 16.4888L1443.81 16.4888L1443.81 15.4888L1449.83 15.4888L1449.83 16.4888ZM1461.88 16.4888L1455.86 16.4888L1455.86 15.4888L1461.88 15.4888L1461.88 16.4888ZM1473.93 16.4888L1467.9 16.4888L1467.9 15.4888L1473.93 15.4888L1473.93 16.4888ZM1485.98 16.4888L1479.95 16.4888L1479.95 15.4888L1485.98 15.4888L1485.98 16.4888ZM1498.02 16.4888L1492 16.4888L1492 15.4888L1498.02 15.4888L1498.02 16.4888ZM1510.07 16.4888L1504.05 16.4888L1504.05 15.4888L1510.07 15.4888L1510.07 16.4888ZM1522.12 16.4888L1516.1 16.4888L1516.1 15.4888L1522.12 15.4888L1522.12 16.4888ZM1534.17 16.4888L1528.14 16.4888L1528.14 15.4888L1534.17 15.4888L1534.17 16.4888ZM1546.22 16.4888L1540.19 16.4888L1540.19 15.4888L1546.22 15.4888L1546.22 16.4888ZM1558.27 16.4888L1552.24 16.4888L1552.24 15.4888L1558.27 15.4888L1558.27 16.4888ZM1570.31 16.4888L1564.29 16.4888L1564.29 15.4888L1570.31 15.4888L1570.31 16.4888ZM1582.36 16.4889L1576.34 16.4889L1576.34 15.4889L1582.36 15.4889L1582.36 16.4889ZM1594.41 16.4889L1588.39 16.4889L1588.39 15.4889L1594.41 15.4889L1594.41 16.4889ZM1606.46 16.4889L1600.43 16.4889L1600.43 15.4889L1606.46 15.4889L1606.46 16.4889ZM1618.51 16.4889L1612.48 16.4889L1612.48 15.4889L1618.51 15.4889L1618.51 16.4889ZM1630.55 16.4889L1624.53 16.4889L1624.53 15.4889L1630.55 15.4889L1630.55 16.4889ZM1642.6 16.4889L1636.58 16.4889L1636.58 15.4889L1642.6 15.4889L1642.6 16.4889ZM1654.65 16.4889L1648.63 16.4889L1648.63 15.4889L1654.65 15.4889L1654.65 16.4889ZM1666.7 16.4889L1660.67 16.4889L1660.67 15.4889L1666.7 15.4889L1666.7 16.4889ZM1678.75 16.4889L1672.72 16.4889L1672.72 15.4889L1678.75 15.4889L1678.75 16.4889ZM1690.8 16.4889L1684.77 16.4889L1684.77 15.4889L1690.8 15.4889L1690.8 16.4889ZM1702.84 16.4889L1696.82 16.4889L1696.82 15.4889L1702.84 15.4889L1702.84 16.4889ZM1714.89 16.4889L1708.87 16.4889L1708.87 15.4889L1714.89 15.4889L1714.89 16.4889ZM1726.94 16.4889L1720.92 16.4889L1720.92 15.4889L1726.94 15.4889L1726.94 16.4889ZM1738.99 16.4889L1732.96 16.4889L1732.96 15.4889L1738.99 15.4889L1738.99 16.4889ZM1751.04 16.4889L1745.01 16.4889L1745.01 15.4889L1751.04 15.4889L1751.04 16.4889ZM1763.08 16.4889L1757.06 16.4889L1757.06 15.4889L1763.08 15.4889L1763.08 16.4889ZM1775.13 16.4889L1769.11 16.4889L1769.11 15.4889L1775.13 15.4889L1775.13 16.4889ZM1787.18 16.4889L1781.16 16.4889L1781.16 15.4889L1787.18 15.4889L1787.18 16.4889ZM1799.23 16.4889L1793.21 16.4889L1793.21 15.4889L1799.23 15.4889L1799.23 16.4889ZM1811.28 16.4889L1805.25 16.4889L1805.25 15.4889L1811.28 15.4889L1811.28 16.4889ZM1823.33 16.4889L1817.3 16.4889L1817.3 15.4889L1823.33 15.4889L1823.33 16.4889ZM1835.37 16.4889L1829.35 16.4889L1829.35 15.4889L1835.37 15.4889L1835.37 16.4889ZM1847.42 16.4889L1841.4 16.4889L1841.4 15.4889L1847.42 15.4889L1847.42 16.4889ZM1859.47 16.4889L1853.45 16.4889L1853.45 15.4889L1859.47 15.4889L1859.47 16.4889ZM1871.52 16.4889L1865.49 16.4889L1865.49 15.4889L1871.52 15.4889L1871.52 16.4889ZM1883.57 16.4889L1877.54 16.4889L1877.54 15.4889L1883.57 15.4889L1883.57 16.4889ZM1895.62 16.4889L1889.59 16.4889L1889.59 15.4889L1895.62 15.4889L1895.62 16.4889ZM1907.66 16.4889L1901.64 16.4889L1901.64 15.4889L1907.66 15.4889L1907.66 16.4889ZM1919.71 16.4889L1913.69 16.4889L1913.69 15.4889L1919.71 15.4889L1919.71 16.4889ZM1931.76 16.4889L1925.74 16.4889L1925.74 15.4889L1931.76 15.4889L1931.76 16.4889ZM1943.81 16.4889L1937.78 16.4889L1937.78 15.4889L1943.81 15.4889L1943.81 16.4889ZM1955.86 16.4889L1949.83 16.4889L1949.83 15.4889L1955.86 15.4889L1955.86 16.4889ZM1967.9 16.4889L1961.88 16.4889L1961.88 15.4889L1967.9 15.4889L1967.9 16.4889ZM1979.95 16.4889L1973.93 16.4889L1973.93 15.4889L1979.95 15.4889L1979.95 16.4889ZM1992 16.4889L1985.98 16.4889L1985.98 15.4889L1992 15.4889L1992 16.4889ZM2004.05 16.4889L1998.03 16.4889L1998.03 15.4889L2004.05 15.4889L2004.05 16.4889ZM2016.1 16.4889L2010.07 16.4889L2010.07 15.4889L2016.1 15.4889L2016.1 16.4889ZM2028.15 16.4889L2022.12 16.4889L2022.12 15.4889L2028.15 15.4889L2028.15 16.4889ZM2040.19 16.4889L2034.17 16.4889L2034.17 15.4889L2040.19 15.4889L2040.19 16.4889ZM2052.24 16.4889L2046.22 16.4889L2046.22 15.4889L2052.24 15.4889L2052.24 16.4889ZM2064.29 16.4889L2058.27 16.4889L2058.27 15.4889L2064.29 15.4889L2064.29 16.4889ZM2076.34 16.4889L2070.31 16.4889L2070.31 15.4889L2076.34 15.4889L2076.34 16.4889ZM2088.39 16.4889L2082.36 16.4889L2082.36 15.4889L2088.39 15.4889L2088.39 16.4889ZM2100.43 16.489L2094.41 16.4889L2094.41 15.4889L2100.43 15.489L2100.43 16.489ZM2112.48 16.489L2106.46 16.489L2106.46 15.489L2112.48 15.489L2112.48 16.489ZM2124.53 16.489L2118.51 16.489L2118.51 15.489L2124.53 15.489L2124.53 16.489ZM2136.58 16.489L2130.56 16.489L2130.56 15.489L2136.58 15.489L2136.58 16.489ZM2148.63 16.489L2142.6 16.489L2142.6 15.489L2148.63 15.489L2148.63 16.489ZM2160.68 16.489L2154.65 16.489L2154.65 15.489L2160.68 15.489L2160.68 16.489ZM2172.72 16.489L2166.7 16.489L2166.7 15.489L2172.72 15.489L2172.72 16.489ZM2184.77 16.489L2178.75 16.489L2178.75 15.489L2184.77 15.489L2184.77 16.489ZM2196.82 16.489L2190.8 16.489L2190.8 15.489L2196.82 15.489L2196.82 16.489ZM2208.87 16.489L2202.84 16.489L2202.84 15.489L2208.87 15.489L2208.87 16.489ZM2220.92 16.489L2214.89 16.489L2214.89 15.489L2220.92 15.489L2220.92 16.489ZM2232.97 16.489L2226.94 16.489L2226.94 15.489L2232.97 15.489L2232.97 16.489ZM2242 16.489L2238.99 16.489L2238.99 15.489L2242 15.489L2242 16.489Z" fill="#E0D6CE"></path><path d="M752.607 31.5213C752.515 31.792 752.132 31.792 752.04 31.5213L749.407 23.8074C749.348 23.6362 749.153 23.5553 748.99 23.635L741.674 27.2277C741.417 27.3538 741.146 27.083 741.272 26.8261L744.865 19.5097C744.945 19.3474 744.864 19.152 744.693 19.0936L736.979 16.4605C736.708 16.368 736.708 15.9851 736.979 15.8926L744.693 13.2595C744.864 13.2011 744.945 13.0057 744.865 12.8434L741.272 5.52695C741.146 5.27012 741.417 4.99932 741.674 5.12543L748.99 8.71812C749.153 8.79782 749.348 8.71688 749.407 8.54575L752.04 0.83183C752.132 0.561047 752.515 0.561047 752.607 0.83183L755.241 8.54575C755.299 8.71688 755.494 8.79783 755.657 8.71812L762.973 5.12544C763.23 4.99932 763.501 5.27012 763.375 5.52695L759.782 12.8434C759.702 13.0057 759.783 13.2011 759.954 13.2595L767.668 15.8926C767.939 15.9851 767.939 16.368 767.668 16.4605L759.954 19.0936C759.783 19.152 759.702 19.3474 759.782 19.5097L763.375 26.8261C763.501 27.083 763.23 27.3538 762.973 27.2277L755.657 23.635C755.494 23.5553 755.299 23.6362 755.241 23.8074L752.607 31.5213Z" stroke="#E0D6CE"></path><path d="M999.5 16.353L983.5 0.353026L983.5 32.353L999.5 16.353Z" fill="#E0D6CE"></path><circle cx="1247.62" cy="15.6158" r="7.6158" fill="#E0D6CE"></circle></svg> 