<?xml version="1.0" encoding="UTF-8"?> <svg xmlns="http://www.w3.org/2000/svg" width="818" height="343" viewBox="0 0 818 343" fill="none"><path d="M584.994 32L567.585 32.7462C559.813 33.0794 553.586 39.2985 553.242 47.0699L552.494 64L551.745 47.0699C551.401 39.2985 545.174 33.0794 537.402 32.7462L519.994 32L537.402 31.2538C545.174 30.9206 551.401 24.7015 551.745 16.9301L552.494 1.42062e-06L553.242 16.9301C553.586 24.7015 559.813 30.9206 567.585 31.2538L584.994 32Z" fill="#E0D6CE"></path><circle cx="710.994" cy="87" r="7" transform="rotate(90 710.994 87)" fill="#E0D6CE"></circle><path fill-rule="evenodd" clip-rule="evenodd" d="M512.994 31.5001L512.669 31.5001L512.669 32.5001L513.006 32.5001C512.998 32.1677 512.994 31.8344 512.994 31.5001ZM789.891 233.089C789.822 232.511 789.751 231.933 789.677 231.356L790.669 231.23C790.746 231.828 790.819 232.426 790.891 233.024C790.556 233.039 790.222 233.061 789.891 233.089ZM788.782 225.037C788.454 222.935 788.097 220.838 787.71 218.746L788.693 218.564C789.082 220.665 789.441 222.772 789.77 224.883L788.782 225.037ZM786.461 212.487C786.015 210.407 785.54 208.333 785.036 206.266L786.008 206.029C786.514 208.105 786.991 210.188 787.439 212.278L786.461 212.487ZM783.437 200.088C782.876 198.036 782.285 195.992 781.665 193.956L782.622 193.665C783.244 195.71 783.838 197.763 784.402 199.823L783.437 200.088ZM779.722 187.877C779.045 185.861 778.341 183.854 777.608 181.856L778.546 181.511C779.283 183.518 779.991 185.535 780.67 187.56L779.722 187.877ZM775.325 175.896C774.931 174.908 774.53 173.923 774.121 172.94C773.713 171.957 773.297 170.976 772.875 169.999L773.793 169.603C774.217 170.584 774.634 171.568 775.045 172.556C775.455 173.543 775.858 174.533 776.254 175.525L775.325 175.896ZM770.259 164.172C769.36 162.241 768.433 160.324 767.481 158.421L768.375 157.973C769.332 159.884 770.262 161.81 771.166 163.75L770.259 164.172ZM764.542 152.75C763.535 150.873 762.502 149.01 761.444 147.163L762.312 146.666C763.375 148.521 764.412 150.392 765.423 152.277L764.542 152.75ZM758.191 141.667C757.081 139.849 755.945 138.048 754.784 136.263L755.623 135.718C756.789 137.511 757.929 139.32 759.044 141.145L758.191 141.667ZM751.228 130.958C750.018 129.206 748.783 127.471 747.524 125.754L748.33 125.163C749.595 126.887 750.835 128.63 752.05 130.389L751.228 130.958ZM743.675 120.656C742.368 118.976 741.038 117.313 739.684 115.669L740.456 115.033C741.816 116.685 743.152 118.355 744.464 120.043L743.675 120.656ZM735.555 110.795C734.157 109.191 732.736 107.605 731.292 106.039L732.027 105.361C733.477 106.934 734.905 108.527 736.309 110.138L735.555 110.795ZM726.896 101.404C726.153 100.643 725.404 99.8856 724.65 99.1337C724.025 98.511 723.397 97.8921 722.766 97.2771C722.994 97.0339 723.215 96.7835 723.428 96.5265C724.074 97.1555 724.717 97.7885 725.356 98.4255C726.113 99.1807 726.865 99.9409 727.612 100.706L726.896 101.404ZM697.926 76.3176C696.202 75.0624 694.462 73.8314 692.704 72.6251L693.27 71.8006C695.036 73.0123 696.784 74.2486 698.514 75.5094L697.926 76.3176ZM687.382 69.0802C685.591 67.9237 683.785 66.7921 681.962 65.6859L682.481 64.831C684.311 65.9421 686.126 67.0786 687.924 68.2403L687.382 69.0802ZM676.449 62.4446C674.597 61.3903 672.73 60.3616 670.848 59.3589L671.318 58.4763C673.208 59.4834 675.084 60.5166 676.944 61.5755L676.449 62.4446ZM665.162 56.4312C663.255 55.4824 661.333 54.5598 659.397 53.6638L659.817 52.7563C661.761 53.6562 663.692 54.5829 665.608 55.5358L665.162 56.4312ZM653.557 51.0586C652.578 50.6382 651.595 50.2245 650.61 49.8176C649.623 49.4103 648.634 49.0101 647.643 48.6169L648.012 47.6873C649.007 48.0822 650.001 48.4842 650.991 48.8933C651.981 49.302 652.968 49.7175 653.951 50.1398L653.557 51.0586ZM641.661 46.3407C639.656 45.6096 637.641 44.9069 635.618 44.2328L635.934 43.2841C637.966 43.9611 639.989 44.6668 642.003 45.4012L641.661 46.3407ZM629.518 42.2948C627.475 41.6772 625.424 41.0883 623.366 40.5283L623.629 39.5633C625.696 40.1258 627.755 40.7173 629.807 41.3376L629.518 42.2948ZM617.167 38.9345C615.094 38.4321 613.013 37.9588 610.926 37.5147L611.135 36.5366C613.23 36.9826 615.32 37.458 617.403 37.9626L617.167 38.9345ZM604.648 36.27C602.55 35.8844 600.446 35.5281 598.338 35.2013L598.491 34.2131C600.609 34.5413 602.721 34.8992 604.829 35.2864L604.648 36.27ZM7.49353 31.5001L10.519 31.5001L10.519 32.5001L7.49353 32.5001L7.49353 31.5001ZM16.569 31.5001L22.619 31.5001L22.619 32.5001L16.569 32.5001L16.569 31.5001ZM28.6689 31.5001L34.7189 31.5001L34.7189 32.5001L28.6689 32.5001L28.6689 31.5001ZM40.7689 31.5001L46.8189 31.5001L46.8189 32.5001L40.7689 32.5001L40.7689 31.5001ZM52.8689 31.5001L58.9189 31.5001L58.9189 32.5001L52.8689 32.5001L52.8689 31.5001ZM64.9689 31.5001L71.0189 31.5001L71.0189 32.5001L64.9689 32.5001L64.9689 31.5001ZM77.0689 31.5001L83.1189 31.5001L83.1189 32.5001L77.0689 32.5001L77.0689 31.5001ZM89.1688 31.5001L95.2189 31.5001L95.2189 32.5001L89.1688 32.5001L89.1688 31.5001ZM101.269 31.5001L107.319 31.5001L107.319 32.5001L101.269 32.5001L101.269 31.5001ZM113.369 31.5001L119.419 31.5001L119.419 32.5001L113.369 32.5001L113.369 31.5001ZM125.469 31.5001L131.519 31.5001L131.519 32.5001L125.469 32.5001L125.469 31.5001ZM137.569 31.5001L143.619 31.5001L143.619 32.5001L137.569 32.5001L137.569 31.5001ZM149.669 31.5001L155.719 31.5001L155.719 32.5001L149.669 32.5001L149.669 31.5001ZM161.769 31.5001L167.819 31.5001L167.819 32.5001L161.769 32.5001L161.769 31.5001ZM173.869 31.5001L179.919 31.5001L179.919 32.5001L173.869 32.5001L173.869 31.5001ZM185.969 31.5001L192.019 31.5001L192.019 32.5001L185.969 32.5001L185.969 31.5001ZM198.069 31.5001L204.119 31.5001L204.119 32.5001L198.069 32.5001L198.069 31.5001ZM210.169 31.5001L216.219 31.5001L216.219 32.5001L210.169 32.5001L210.169 31.5001ZM222.269 31.5001L228.319 31.5001L228.319 32.5001L222.269 32.5001L222.269 31.5001ZM234.369 31.5001L240.419 31.5001L240.419 32.5001L234.369 32.5001L234.369 31.5001ZM246.469 31.5001L252.519 31.5001L252.519 32.5001L246.469 32.5001L246.469 31.5001ZM258.569 31.5001L264.618 31.5001L264.618 32.5001L258.569 32.5001L258.569 31.5001ZM270.668 31.5001L276.718 31.5001L276.718 32.5001L270.668 32.5001L270.668 31.5001ZM282.768 31.5001L288.818 31.5001L288.818 32.5001L282.768 32.5001L282.768 31.5001ZM294.868 31.5001L300.918 31.5001L300.918 32.5001L294.868 32.5001L294.868 31.5001ZM306.968 31.5001L313.018 31.5001L313.018 32.5001L306.968 32.5001L306.968 31.5001ZM319.068 31.5001L325.118 31.5001L325.118 32.5001L319.068 32.5001L319.068 31.5001ZM331.168 31.5001L337.218 31.5001L337.218 32.5001L331.168 32.5001L331.168 31.5001ZM343.268 31.5001L349.318 31.5001L349.318 32.5001L343.268 32.5001L343.268 31.5001ZM355.368 31.5001L361.418 31.5001L361.418 32.5001L355.368 32.5001L355.368 31.5001ZM367.468 31.5001L373.518 31.5001L373.518 32.5001L367.468 32.5001L367.468 31.5001ZM379.568 31.5001L385.618 31.5001L385.618 32.5001L379.568 32.5001L379.568 31.5001ZM391.668 31.5001L397.718 31.5001L397.718 32.5001L391.668 32.5001L391.668 31.5001ZM403.768 31.5001L409.819 31.5001L409.819 32.5001L403.768 32.5001L403.768 31.5001ZM415.868 31.5001L421.919 31.5001L421.919 32.5001L415.868 32.5001L415.868 31.5001ZM427.969 31.5001L434.019 31.5001L434.019 32.5001L427.969 32.5001L427.969 31.5001ZM440.069 31.5001L446.118 31.5001L446.118 32.5001L440.069 32.5001L440.069 31.5001ZM452.169 31.5001L458.219 31.5001L458.219 32.5001L452.169 32.5001L452.169 31.5001ZM464.269 31.5001L470.319 31.5001L470.319 32.5001L464.269 32.5001L464.269 31.5001ZM476.369 31.5001L482.419 31.5001L482.419 32.5001L476.369 32.5001L476.369 31.5001ZM488.469 31.5001L494.519 31.5001L494.519 32.5001L488.469 32.5001L488.469 31.5001ZM500.569 31.5001L506.619 31.5001L506.619 32.5001L500.569 32.5001L500.569 31.5001Z" fill="#E0D6CE"></path><path d="M807.784 265.282C807.973 265.497 807.781 265.829 807.5 265.774L797.75 263.851C797.572 263.816 797.405 263.945 797.392 264.125L796.726 274.041C796.706 274.327 796.337 274.426 796.177 274.188L790.642 265.934C790.541 265.784 790.331 265.756 790.195 265.875L782.712 272.416C782.497 272.604 782.165 272.412 782.22 272.132L784.143 262.381C784.178 262.204 784.049 262.036 783.869 262.024L773.953 261.357C773.667 261.338 773.568 260.968 773.806 260.808L782.06 255.273C782.21 255.172 782.237 254.963 782.118 254.826L775.578 247.343C775.39 247.128 775.582 246.796 775.862 246.852L785.613 248.774C785.79 248.809 785.958 248.68 785.97 248.5L786.637 238.584C786.656 238.298 787.026 238.199 787.186 238.437L792.721 246.691C792.822 246.841 793.031 246.869 793.167 246.75L800.651 240.21C800.866 240.021 801.198 240.213 801.142 240.494L799.22 250.244C799.185 250.422 799.314 250.589 799.494 250.601L809.41 251.268C809.696 251.287 809.795 251.657 809.557 251.817L801.303 257.352C801.153 257.453 801.125 257.663 801.244 257.799L807.784 265.282Z" fill="#E0D6CE"></path><circle cx="6.99353" cy="32" r="7" transform="rotate(90 6.99353 32)" fill="#E0D6CE"></circle><path d="M502.783 208.382C499.774 209.147 497.412 211.51 496.646 214.518C495.881 211.51 493.519 209.147 490.51 208.382C493.519 207.617 495.881 205.254 496.646 202.246C497.412 205.254 499.774 207.617 502.783 208.382Z" stroke="#E0D6CE"></path><path d="M589.407 260.774C587.994 261.332 586.869 262.457 586.311 263.87C585.753 262.457 584.628 261.332 583.215 260.774C584.628 260.216 585.753 259.091 586.311 257.678C586.869 259.091 587.994 260.216 589.407 260.774Z" stroke="#E0D6CE"></path><circle cx="551.852" cy="332.506" r="9.4939" transform="rotate(-180 551.852 332.506)" stroke="#E0D6CE"></circle><circle cx="551.852" cy="178.494" r="9.4939" transform="rotate(-180 551.852 178.494)" stroke="#E0D6CE"></circle><circle cx="551.852" cy="207.327" r="38.3272" transform="rotate(-180 551.852 207.327)" stroke="#E0D6CE"></circle><path d="M591.46 266.4C596.86 274.184 600.024 283.636 600.024 293.827C600.024 320.432 578.457 342 551.852 342C525.247 342 503.679 320.432 503.679 293.827C503.679 267.222 525.247 245.654 551.852 245.654C562.665 245.654 572.646 249.217 580.685 255.233" stroke="#E0D6CE"></path><circle cx="551.852" cy="281.169" r="60.8313" transform="rotate(-180 551.852 281.169)" stroke="#E0D6CE"></circle><circle cx="551.5" cy="255.5" r="86.5" transform="rotate(-180 551.5 255.5)" stroke="#E0D6CE"></circle></svg> 